<svg xmlns="http://www.w3.org/2000/svg" viewBox="0 0 3000 1200"><defs><style>.cls-1{fill:#178181;}.cls-2{fill:#2aa846;}.cls-3{fill:#414141;opacity:0.37;isolation:isolate;}.cls-4{fill:none;stroke:#000;stroke-miterlimit:10;stroke-width:10px;}.cls-5{fill:#e8e8e8;}.cls-6{fill:#cdcdcd;}</style></defs><g id="svg4770"><g id="layer1"><g id="g5318"><circle id="circle4657" class="cls-1" cx="605.11" cy="622.48" r="200"/><path id="path4659" class="cls-2" d="M805.11,622.48A199,199,0,0,0,773,513.68s-11.41,16.66-9.26,27.38,14.73,11.53,13.43,19.39-10.57-2.25-22,18.46-5.72,49.3,10.71,51.43,39.28-7.86,39.28-7.86Z"/><path id="path4661" class="cls-2" d="M657.64,429.45a199.21,199.21,0,0,1,64,30.43s-23.19-3.82-32,4-21.59,26.43-32,0S657.64,429.45,657.64,429.45Z"/><path id="path4663" class="cls-2" d="M454.74,490.62a199.5,199.5,0,0,1,150.37-68.14s-13.57,8.22,12.15,22.15,13.93,20.35,8.57,24.64-14.65-8.57-20.72-17.14S573,430.34,553,437.49s-37.14,12.42-34.29,19.07,37.14-6.21,50-5.5,8.57,8.57-3.57,17.86-13.57,20.71-.72,27.85,28.57,7.86,32.15,3.58-6.43-32.15,17.85-20,44.29,19.29,24.29,37.14-42.86,37.86-43.57,49.28,7.14,20.72,2.86,21.43-8.22-4.64-11.08-8.57-16.07-5.35-22.5-2.86-18.57,12.15-11.78,21.43,16.06,5,25.35,9.29,17.95,20.59,16.17,24.28-9.69-1-16.17-13.57-18.62-4.29-27.16-6.43-15-3.57-23.55-18.57-26.32-19.2-33.57-27.86c-20.77-24.8-19.29-43.57-23.57-52.14S454.74,490.62,454.74,490.62Z"/><path id="path4665" class="cls-2" d="M624.4,625.34s21.43,2.14,32.14,11.43,12.15,12.86,28.57,16.43,23.58,12.85,12.86,30.71-30,46.43-39.29,55-20.71,15.72-25,30-5.72,22.85,3.57,28.57c0,0-5,12.15-16.43-3.57s-2.14-34.28,0-45,7.85-42.85,4.28-50.71-20-12.86-24.28-29.29S604,620.52,624.4,625.34Z"/><path id="path4667" class="cls-3" d="M463.69,481.06c78.11-78.1,204.74-78.1,282.84,0s78.11,204.74,0,282.85c0,0,90.74-120-37.72-248.47S463.69,481.06,463.69,481.06Z"/></g></g><path class="cls-4" d="M598,588.2c353.47-7.91,235-158.75,235-158.75S694.42,230.35,438.16,358.1C204.83,474.41,312.74,741.32,312.74,741.32s120,281.81,436.4,148.65c297.95-125.4,1435.71-481.42,1657.46-483.1,266.66-1.55,248.08,221.54,248.08,221.54s.9,215.11-248.08,218.2c-235,0-221.08-218.2-221.08-218.2s9.11-187.48,221.08-186.7C2616,442.48,2607,628.41,2607,628.41s2.74,171.75-196.58,173.55C2201,803.85,805.11,362.74,805.11,362.74s-373.92-145.5-373.92,199"/></g><g id="Layer_2" data-name="Layer 2"><path class="cls-5" d="M2513.31,628.41c0,57-46,103.24-102.86,103.24s-102.87-46.22-102.87-103.24,46.05-103.25,102.87-103.25C2467.16,525.4,2513.07,571.48,2513.31,628.41Z"/><path class="cls-6" d="M2320.12,613.28a3.26,3.26,0,0,1-.62-.06,3.14,3.14,0,0,1-2.45-3.7h0a95.93,95.93,0,0,1,17.11-38.32,3.13,3.13,0,1,1,5,3.77,89.75,89.75,0,0,0-16,35.79,3.13,3.13,0,0,1-3.07,2.52Z"/><path class="cls-6" d="M2350.09,561.74a3.15,3.15,0,0,1-2.05-5.52,95,95,0,0,1,10-7.63,3.14,3.14,0,0,1,3.45,5.24,90.92,90.92,0,0,0-9.35,7.14A3.14,3.14,0,0,1,2350.09,561.74Z"/><ellipse class="cls-6" cx="2382.71" cy="601.96" rx="15.83" ry="15.88"/><path class="cls-6" d="M2511.34,648.59a102.92,102.92,0,0,1-10.43,29,15.89,15.89,0,0,1,3.23-31.61A15.69,15.69,0,0,1,2511.34,648.59Z"/><ellipse class="cls-6" cx="2390.78" cy="668.76" rx="15.83" ry="15.88"/><ellipse class="cls-6" cx="2441.19" cy="679.53" rx="10.73" ry="10.77"/><ellipse class="cls-6" cx="2453.72" cy="607.38" rx="10.73" ry="10.77"/><ellipse class="cls-6" cx="2444.76" cy="581.5" rx="5.37" ry="5.39"/></g></svg>