<svg id="svg2" xmlns="http://www.w3.org/2000/svg" xmlns:xlink="http://www.w3.org/1999/xlink" viewBox="0 0 150 174.96"><defs><style>.cls-1,.cls-12,.cls-13,.cls-19,.cls-2,.cls-20,.cls-21,.cls-22,.cls-23,.cls-24,.cls-25,.cls-26,.cls-27,.cls-29,.cls-3,.cls-31,.cls-32,.cls-33,.cls-34,.cls-4,.cls-5,.cls-6,.cls-7,.cls-8,.cls-9{stroke:gray;}.cls-1,.cls-12,.cls-13,.cls-15,.cls-16,.cls-17,.cls-19,.cls-2,.cls-20,.cls-21,.cls-22,.cls-23,.cls-24,.cls-25,.cls-26,.cls-27,.cls-29,.cls-3,.cls-31,.cls-32,.cls-33,.cls-34,.cls-4,.cls-5,.cls-6,.cls-7,.cls-8,.cls-9{stroke-miterlimit:11.34;}.cls-1,.cls-19,.cls-2,.cls-20,.cls-21,.cls-22,.cls-23,.cls-24,.cls-25,.cls-26,.cls-27,.cls-29,.cls-3,.cls-31,.cls-32,.cls-34,.cls-5,.cls-6,.cls-7,.cls-8,.cls-9{stroke-width:0.09px;}.cls-1{fill:url(#linear-gradient);}.cls-10,.cls-13,.cls-14,.cls-17,.cls-2,.cls-20,.cls-21,.cls-23,.cls-24,.cls-26,.cls-27,.cls-28,.cls-29,.cls-3,.cls-30,.cls-31,.cls-32,.cls-6,.cls-7,.cls-8,.cls-9{fill-rule:evenodd;}.cls-2{fill:url(#linear-gradient-2);}.cls-3{fill:url(#linear-gradient-3);}.cls-12,.cls-15,.cls-4{fill:none;}.cls-13,.cls-16,.cls-17,.cls-33,.cls-4{stroke-width:0.09px;}.cls-5{fill:url(#linear-gradient-4);}.cls-6{fill:url(#linear-gradient-5);}.cls-7{fill:url(#linear-gradient-6);}.cls-8{fill:url(#linear-gradient-7);}.cls-9{fill:url(#linear-gradient-8);}.cls-10,.cls-13{fill:#fff;}.cls-11{fill:gray;}.cls-12,.cls-15{stroke-width:0.22px;}.cls-15,.cls-16,.cls-17{stroke:#000;}.cls-18{fill:red;}.cls-19{fill:url(#linear-gradient-9);}.cls-20{fill:url(#linear-gradient-10);}.cls-21{fill:url(#linear-gradient-11);}.cls-22{fill:url(#linear-gradient-12);}.cls-23{fill:url(#linear-gradient-13);}.cls-24{fill:url(#linear-gradient-14);}.cls-25{fill:url(#linear-gradient-15);}.cls-26{fill:url(#linear-gradient-16);}.cls-27{fill:url(#linear-gradient-17);}.cls-28{fill:url(#linear-gradient-18);}.cls-29{fill:url(#linear-gradient-19);}.cls-30{fill:url(#linear-gradient-20);}.cls-31{fill:url(#linear-gradient-21);}.cls-32{fill:url(#linear-gradient-22);}.cls-33{fill:url(#linear-gradient-23);}.cls-34{fill:url(#linear-gradient-24);}</style><linearGradient id="linear-gradient" x1="-136.38" y1="312.13" x2="-135.5" y2="312.13" gradientTransform="matrix(2.83, 0, 0, -2.83, 423.8, 1042.74)" gradientUnits="userSpaceOnUse"><stop offset="0" stop-color="#fff"/><stop offset="0.21" stop-color="#fff"/><stop offset="0.5" stop-color="#e6e6e6"/><stop offset="0.75" stop-color="#fff"/><stop offset="1" stop-color="#fff"/></linearGradient><linearGradient id="linear-gradient-2" x1="-136.58" y1="309.05" x2="-135.3" y2="309.05" xlink:href="#linear-gradient"/><linearGradient id="linear-gradient-3" x1="-136.38" y1="316.36" x2="-135.5" y2="316.36" xlink:href="#linear-gradient"/><linearGradient id="linear-gradient-4" x1="-110.46" y1="312.13" x2="-109.96" y2="312.13" xlink:href="#linear-gradient"/><linearGradient id="linear-gradient-5" x1="-110.5" y1="309.05" x2="-109.81" y2="309.05" xlink:href="#linear-gradient"/><linearGradient id="linear-gradient-6" x1="-110.67" y1="316.36" x2="-110.11" y2="316.36" xlink:href="#linear-gradient"/><linearGradient id="linear-gradient-7" x1="-111.59" y1="325.6" x2="-109.91" y2="325.6" xlink:href="#linear-gradient"/><linearGradient id="linear-gradient-8" x1="-136.52" y1="325.6" x2="-135.71" y2="325.6" xlink:href="#linear-gradient"/><linearGradient id="linear-gradient-9" x1="-123.66" y1="312.13" x2="-122.63" y2="312.13" xlink:href="#linear-gradient"/><linearGradient id="linear-gradient-10" x1="-123.86" y1="309.05" x2="-122.59" y2="309.05" xlink:href="#linear-gradient"/><linearGradient id="linear-gradient-11" x1="-123.41" y1="316.36" x2="-122.85" y2="316.36" xlink:href="#linear-gradient"/><linearGradient id="linear-gradient-12" x1="-132.86" y1="312.13" x2="-131.98" y2="312.13" xlink:href="#linear-gradient"/><linearGradient id="linear-gradient-13" x1="-133.02" y1="309.05" x2="-131.9" y2="309.05" xlink:href="#linear-gradient"/><linearGradient id="linear-gradient-14" x1="-132.95" y1="316.36" x2="-131.98" y2="316.36" xlink:href="#linear-gradient"/><linearGradient id="linear-gradient-15" x1="-114.88" y1="312.13" x2="-113.91" y2="312.13" xlink:href="#linear-gradient"/><linearGradient id="linear-gradient-16" x1="-115.02" y1="309.05" x2="-113.71" y2="309.05" xlink:href="#linear-gradient"/><linearGradient id="linear-gradient-17" x1="-114.85" y1="316.36" x2="-114.09" y2="316.36" xlink:href="#linear-gradient"/><linearGradient id="linear-gradient-18" x1="-120.32" y1="322.07" x2="-118.33" y2="322.07" xlink:href="#linear-gradient"/><linearGradient id="linear-gradient-19" x1="-125.1" y1="325.6" x2="-123.07" y2="325.6" xlink:href="#linear-gradient"/><linearGradient id="linear-gradient-20" x1="-133.72" y1="325.6" x2="-132.58" y2="325.6" xlink:href="#linear-gradient"/><linearGradient id="linear-gradient-21" x1="-128.59" y1="326.39" x2="-126.57" y2="326.39" xlink:href="#linear-gradient"/><linearGradient id="linear-gradient-22" x1="-128.5" y1="322.08" x2="-126.68" y2="322.08" xlink:href="#linear-gradient"/><linearGradient id="linear-gradient-23" x1="-128.35" y1="362.11" x2="-126.81" y2="362.11" xlink:href="#linear-gradient"/><linearGradient id="linear-gradient-24" x1="-128.33" y1="345.63" x2="-126.83" y2="345.63" xlink:href="#linear-gradient"/></defs><g id="g135"><rect id="_143927672" data-name=" 143927672" class="cls-1" x="37.23" y="150.35" width="2.48" height="15.26"/><polygon id="_143927504" data-name=" 143927504" class="cls-2" points="36.66 167.76 40.28 167.76 39.71 165.6 37.23 165.6 36.66 167.76"/><polygon id="_143927336" data-name=" 143927336" class="cls-3" points="39.71 150.35 38.47 141.6 37.23 150.35 39.71 150.35"/><line id="_143927240" data-name=" 143927240" class="cls-4" x1="37.23" y1="153.88" x2="39.71" y2="153.88"/><line id="_143927120" data-name=" 143927120" class="cls-4" x1="37.23" y1="157.97" x2="39.71" y2="157.97"/><line id="_143927048" data-name=" 143927048" class="cls-4" x1="37.23" y1="162.04" x2="39.71" y2="162.04"/></g><g id="g143"><rect id="_143926880" data-name=" 143926880" class="cls-5" x="109.47" y="150.35" width="2.48" height="15.26"/><polygon id="_143926712" data-name=" 143926712" class="cls-6" points="108.9 167.76 112.53 167.76 111.95 165.6 109.47 165.6 108.9 167.76"/><polygon id="_143926544" data-name=" 143926544" class="cls-7" points="111.95 150.35 110.72 141.6 109.47 150.35 111.95 150.35"/><line id="_143926448" data-name=" 143926448" class="cls-4" x1="109.47" y1="153.88" x2="111.96" y2="153.88"/><line id="_143926328" data-name=" 143926328" class="cls-4" x1="109.47" y1="157.97" x2="111.96" y2="157.97"/><line id="_143926184" data-name=" 143926184" class="cls-4" x1="109.47" y1="162.04" x2="111.96" y2="162.04"/></g><path id="_143926040" data-name=" 143926040" class="cls-8" d="M112.24,102.67h0v33.11h0c0,4.18-1.2,7.5-2.38,8.68-1.16-1.15-2.38-4.5-2.38-8.68V102.67c0-4.18,1.22-6.42,2.38-7.57C111,96.28,112.24,98.49,112.24,102.67Z"/><path id="_143925872" data-name=" 143925872" class="cls-9" d="M41.7,102.67h0v33.11h0c0,4.18-1.2,7.5-2.38,8.68-1.16-1.15-2.38-4.5-2.38-8.68V102.67c0-4.18,1.22-6.42,2.38-7.57C40.5,96.28,41.7,98.49,41.7,102.67Z"/><g id="g3652"><polygon id="polygon3654" class="cls-10" points="38.45 111.5 110.84 111.5 110.84 198.94 38.45 198.94 38.45 111.5"/><path id="path3656" class="cls-11" d="M110.84,111.55H38.45v-.09h72.39l0,0Zm0-.09h0v0Zm0,87.48V111.5h.1v87.44l0,.05,0-.05Zm.1,0V199h0Zm-72.44,0h72.39V199H38.45l-.05-.05Zm0,.09H38.4v-.05Zm0-87.49v87.44h-.1V111.5l.05,0,0,0Zm-.1,0v0h.05Z"/></g><g id="g3658"><polygon id="polygon3660" class="cls-10" points="39.42 111.5 109.87 111.5 109.87 26.5 39.42 26.5 39.42 111.5"/><polygon id="polygon3662" class="cls-12" points="39.42 111.5 109.87 111.5 109.87 26.5 39.42 26.5 39.42 111.5"/></g><g id="g3664"><polygon id="polygon3666" class="cls-10" points="38.58 1.97 110.64 1.97 110.64 26.5 38.58 26.5 38.58 1.97"/><polygon id="polygon3668" class="cls-12" points="38.58 1.97 110.64 1.97 110.64 26.5 38.58 26.5 38.58 1.97"/></g><polygon id="polygon3672" class="cls-13" points="38.58 1.97 110.64 1.97 98.47 -38.07 50.27 -38.07 38.58 1.97"/><g id="g3684"><polygon id="polygon3686" class="cls-14" points="38.45 132.91 110.84 132.91 110.84 120.9 38.45 120.9 38.45 132.91"/><polygon id="polygon3688" class="cls-15" points="38.45 132.91 110.84 132.91 110.84 120.9 38.45 120.9 38.45 132.91"/></g><rect id="rect3690" class="cls-16" x="52.34" y="120.9" width="21.32" height="78.05"/><g id="g3692"><polygon id="polygon3694" class="cls-14" points="98.22 198.94 110.84 198.94 110.84 127.88 98.22 127.88 98.22 198.94"/><polygon id="polygon3696" class="cls-15" points="98.22 198.94 110.84 198.94 110.84 127.88 98.22 127.88 98.22 198.94"/></g><polygon id="polygon3698" class="cls-17" points="94.91 -15.16 98.37 1.97 55.2 1.97 61.69 -38.07 98.51 -38.07 105.48 -15.16 94.91 -15.16"/><path id="path3702" class="cls-18" d="M103,33.54l.56.57h1.7l.57-.57V30.17h-.68v3l-.23.23h-1l-.22-.23v-3H103Zm0,6.57V36.18h1l1.16,2.87V36.18h.68v3.93h-1l-1.16-2.86v2.86ZM104,42.18h.68v3.93H104Zm-1,6h2.62v.67h-1v3.26H104V48.85h-1Zm0,6h2.62v.68h-1.94v1h1.51v.68h-1.51v.95h1.94v.67h-2.62V54.18Zm-.1,9.93h2.26l.57-.56V60.74l-.57-.56H103Zm.68-3.25h1.24l.23.23v2.12l-.23.23h-1.24ZM103,75.55l.56.57h1.7l.57-.57V74.38l-.57-.57h-1.36l-.22-.23v-.49l.23-.23h1l.23.23v.31h.68v-.65l-.57-.57h-1.7l-.56.57v1.17l.56.57h1.37l.22.23v.49l-.23.23h-1l-.22-.23V74.9H103v.65Zm.1,2.63h2.62v.68h-1v3.26H104V78.86h-1Zm-.28,9.94L104,84.18h.85L106,88.12h-.71l-.26-.87h-1.26l-.26.87Zm1.16-1.55h.87l-.44-1.46-.43,1.46Zm-.88,3.62h2.62v.67h-1v3.26H104V90.86h-1Zm0,6h2.62v.67h-1.94v1h1.51v.67h-1.51v1h1.94v.68h-2.62Zm-.1,9.37.56.56h1.7l.57-.56v-1.18l-.57-.56h-1.36l-.22-.23v-.5l.23-.23h1l.23.23v.32h.68v-.66l-.57-.56h-1.7l-.56.56v1.18l.56.56h1.37l.22.23v.5l-.23.23h-1l-.22-.23v-.32H103v.66Z"/><path id="path3704" class="cls-18" d="M54.75,33.54l.57.57H57l.56-.57V30.17h-.67v3l-.23.23h-1l-.23-.23v-3h-.68Zm0,6.57V36.18h1l1.17,2.87V36.18h.67v3.93h-1l-1.17-2.86v2.86Zm1.08,2.07h.67v3.93h-.67Zm-1,6h2.62v.67h-1v3.26h-.67V48.85h-1Zm0,6h2.62v.68H55.53v1h1.52v.68H55.53v.95h1.95v.67H54.86V54.18Zm-.11,9.93H57l.56-.56V60.74L57,60.18H54.75Zm.68-3.25h1.25l.23.23v2.12l-.23.23H55.43Zm-.68,14.69.57.57H57l.56-.57V74.38L57,73.81H55.66l-.23-.23v-.49l.23-.23h1l.23.23v.31h.67v-.65L57,72.18h-1.7l-.57.57v1.17l.57.57h1.36l.23.23v.49l-.23.23h-1l-.23-.23V74.9h-.68v.65Zm.11,2.63h2.62v.68h-1v3.26h-.67V78.86h-1Zm-.29,9.94,1.18-3.94h.84l1.17,3.94h-.7l-.27-.87H55.54l-.26.87Zm1.16-1.55h.87l-.44-1.46-.43,1.46Zm-.87,3.62h2.62v.67h-1v3.26h-.67V90.86h-1Zm0,6h2.62v.67H55.53v1h1.52v.67H55.53v1h1.95v.68H54.86Zm-.11,9.37.57.56H57l.56-.56v-1.18l-.56-.56H55.66l-.23-.23v-.5l.23-.23h1l.23.23v.32h.67v-.66l-.56-.56h-1.7l-.57.56v1.18l.57.56h1.36l.23.23v.5l-.23.23h-1l-.23-.23v-.32h-.68v.66Z"/><rect id="rect4288" class="cls-4" x="38.45" y="168.31" width="71.3" height="1.62"/><rect id="rect4294" class="cls-4" x="79.72" y="111.5" width="3.03" height="87.44"/><polyline id="rect4300" class="cls-4" points="79.72 176.02 79.72 198.94 76.69 198.94 76.69 111.5 79.72 111.5 79.72 176.02"/><polyline id="rect4302" class="cls-4" points="76.69 176.02 76.69 198.94 73.66 198.94 73.66 111.5 76.69 111.5 76.69 176.02"/><polyline id="rect4304" class="cls-4" points="73.66 176.02 73.66 198.94 70.63 198.94 70.63 111.5 73.66 111.5 73.66 176.02"/><polyline id="rect4306" class="cls-4" points="70.63 175.87 70.63 198.94 67.6 198.94 67.6 111.5 70.63 111.5 70.63 175.87"/><polyline id="rect4308" class="cls-4" points="67.6 176.02 67.6 198.94 64.57 198.94 64.57 111.5 67.6 111.5 67.6 176.02"/><polyline id="rect4310" class="cls-4" points="64.57 175.87 64.57 198.94 61.54 198.94 61.54 111.5 64.57 111.5 64.57 175.87"/><polyline id="rect4312" class="cls-4" points="61.54 176.02 61.54 198.94 58.51 198.94 58.51 111.5 61.54 111.5 61.54 176.02"/><polyline id="rect4314" class="cls-4" points="58.51 176.17 58.51 198.94 55.48 198.94 55.48 111.5 58.51 111.5 58.51 176.17"/><polyline id="rect4316" class="cls-4" points="82.75 176.02 82.75 111.5 85.78 111.5 85.78 176.02"/><rect id="rect4318" class="cls-4" x="85.78" y="111.5" width="3.03" height="87.44"/><polyline id="rect4320" class="cls-4" points="55.48 175.87 55.48 198.94 52.45 198.94 52.45 111.5 55.48 111.5 55.48 175.87"/><polyline id="rect4322" class="cls-4" points="49.42 176.02 49.42 111.5 52.45 111.5 52.45 176.02"/><polyline id="rect4324" class="cls-4" points="88.81 176.02 88.81 111.5 91.84 111.5 91.84 176.02"/><rect id="rect4326" class="cls-4" x="91.83" y="111.5" width="3.03" height="87.44"/><polyline id="rect4328" class="cls-4" points="94.86 176.02 94.86 111.5 97.89 111.5 97.89 175.88"/><rect id="rect4330" class="cls-4" x="97.9" y="111.5" width="3.03" height="87.44"/><g id="g4332"><path id="path4334" class="cls-11" d="M103.33,111.55h-2.4v-.09h2.4l0,0Zm0-.09h0v0Zm0,87.48V111.5h.1v87.44l0,.05,0-.05Zm.1,0V199h0Zm-2.45,0h2.4V199h-2.4l-.05-.05Zm0,.09h-.05v-.05Zm0-23v22.92h-.09V111.5l.05,0,0,0h0V176m-.09-64.52v0h.05Z"/></g><g id="g4336"><path id="path4338" class="cls-11" d="M105.33,111.55h-2v-.09h2l0,0,0,0Zm0-.09h0v0Zm0,87.49V111.5h.1V199l0,0,0,0Zm.1,0v0h0Zm-2,0h2V199h-2l0,0,0,0Zm0,.09h0v0Zm0-23.12V199h-.1V111.5l0,0,0,0h0v64.37m-.1-64.37v0h0Z"/></g><g id="g4340"><path id="path4342" class="cls-11" d="M107.33,111.55h-2v-.09h2l0,0,0,0Zm0-.09h0v0Zm0,87.49V111.5h.09V199l0,0,0,0Zm.09,0v0h0Zm-2,0h2V199h-2l0,0,0,0Zm0,.09h0v0Zm0-23.12V199h-.09V111.5l0,0,0,0h0v64.37m-.09-64.37v0h0Z"/></g><g id="g4344"><path class="cls-11" d="M109.29,111.55v64.9h.09V111.5l0,0Z"/><polygon class="cls-11" points="109.38 111.46 109.34 111.46 109.38 111.5 109.38 111.46"/><polygon class="cls-11" points="107.29 111.46 107.29 111.5 107.33 111.46 107.29 111.46"/><polygon class="cls-11" points="109.29 111.5 109.29 111.55 109.34 111.55 109.38 111.5 109.38 111.5 109.29 111.5"/><polygon class="cls-11" points="107.38 111.55 109.29 111.55 109.29 111.5 109.38 111.5 109.38 111.5 109.38 111.5 109.34 111.46 107.33 111.46 107.38 111.5 107.38 111.55"/><polygon class="cls-11" points="107.38 111.55 107.38 111.5 107.33 111.46 107.33 111.55 107.38 111.55"/><path class="cls-11" d="M107.38,175.88V111.55h0v-.09l0,0v64.94h.09Z"/></g><g id="g4348"><path id="path4350" class="cls-11" d="M44.46,111.55l-.05,0,.05,0h2.4v.09Zm-.05,0v0h.05Zm.09,87.44,0,.05,0-.05V111.5h.09v87.44Zm0,.05h0v-.05Zm2.41-.09,0,0,0,.05H44.45v-.09Zm0,0V199h0Zm0-22.92v22.92h-.1V111.5h0l0,0,0,0V176m0-64.56h0v0Z"/></g><g id="g4352"><path id="path4354" class="cls-11" d="M42.45,111.55l0,0,0,0h2v.09Zm0,0v0h0ZM42.5,199l0,0,0,0V111.5h.09V199Zm0,0h0v0Zm2-.09,0,0,0,0h-2v-.09Zm0,0v0h0ZM44.41,176V111.5h0l.05,0,0,0V199h-.09V176m.05-64.56h0v0Z"/></g><g id="g4356"><path id="path4358" class="cls-11" d="M40.45,111.55l-.05,0,.05,0h2v.09Zm-.05,0v0h.05ZM40.5,199l0,0-.05,0V111.5h.1V199Zm0,0H40.4v0Zm2-.09,0,0,0,0h-2v-.09Zm0,0v0h0Zm0-22.78V199h-.09V111.5h0l0,0,0,0v64.67m0-64.71h0v0Z"/></g><g id="g4360"><path id="path4362" class="cls-11" d="M38.45,111.55l-.05,0,.05,0h2v.09Zm-.05,0v0h.05Zm0,64.67V111.5h.1V199h0l0,0-.05,0V176.17M38.45,199H38.4v0Zm2-.09,0,0,0,0h-2v-.09Zm0,0v0h0Zm0-22.93V199h-.1V111.5h0l.05,0,0,0V176m0-64.56h0v0Z"/></g><g id="g4364"><rect id="rect4366" class="cls-19" x="73.66" y="150.35" width="2.48" height="15.26"/><polygon id="polygon4368" class="cls-20" points="73.09 167.76 76.71 167.76 76.14 165.6 73.66 165.6 73.09 167.76"/><polygon id="polygon4370" class="cls-21" points="76.14 150.35 74.9 141.6 73.66 150.35 76.14 150.35"/><line id="line4372" class="cls-4" x1="73.66" y1="153.88" x2="76.14" y2="153.88"/><line id="line4374" class="cls-4" x1="73.66" y1="157.97" x2="76.14" y2="157.97"/><line id="line4376" class="cls-4" x1="73.66" y1="162.04" x2="76.14" y2="162.04"/></g><g id="g4378"><rect id="rect4380" class="cls-22" x="47.14" y="150.35" width="2.48" height="15.26"/><polygon id="polygon4382" class="cls-23" points="46.57 167.76 50.2 167.76 49.63 165.6 47.14 165.6 46.57 167.76"/><polygon id="polygon4384" class="cls-24" points="49.63 150.35 48.38 141.6 47.14 150.35 49.63 150.35"/><line id="line4386" class="cls-4" x1="47.14" y1="153.88" x2="49.62" y2="153.88"/><line id="line4388" class="cls-4" x1="47.14" y1="157.97" x2="49.62" y2="157.97"/><line id="line4390" class="cls-4" x1="47.14" y1="162.04" x2="49.62" y2="162.04"/></g><g id="g4392"><rect id="rect4394" class="cls-25" x="98.44" y="150.35" width="2.48" height="15.26"/><polygon id="polygon4396" class="cls-26" points="97.87 167.76 101.49 167.76 100.92 165.6 98.44 165.6 97.87 167.76"/><polygon id="polygon4398" class="cls-27" points="100.92 150.35 99.68 141.6 98.44 150.35 100.92 150.35"/><line id="line4400" class="cls-4" x1="98.44" y1="153.88" x2="100.92" y2="153.88"/><line id="line4402" class="cls-4" x1="98.44" y1="157.97" x2="100.92" y2="157.97"/><line id="line4404" class="cls-4" x1="98.44" y1="162.04" x2="100.92" y2="162.04"/></g><g id="g4406"><path id="path4408" class="cls-10" d="M83.71,122.55h3.72A2.46,2.46,0,0,1,89.88,125v9.93H81.25V125a2.47,2.47,0,0,1,2.46-2.46Z"/><path id="path4410" class="cls-11" d="M87.43,122.6H83.71v-.09h3.72Zm2.5,2.41h-.09v-.37l0-.12,0-.11,0-.12,0-.11,0-.11-.05-.1,0-.11-.06-.1-.06-.1-.07-.09-.07-.09-.08-.09-.08-.08-.08-.08-.09-.08-.09-.07-.1-.07-.09-.06-.1-.06-.11,0-.1,0-.11,0-.11,0-.12,0-.11,0-.12,0-.12,0h-.25v-.09h.26l.12,0,.12,0,.13,0,.11,0,.12,0,.11,0,.11.05.11,0,.11.07.1.06.1.07.09.07.09.08.09.09.08.08.08.09.07.1.07.1.07.1.06.1.06.11,0,.11,0,.11,0,.12,0,.12,0,.12,0,.12,0,.13V125Zm-.09,9.93V125h.09v9.93l-.05.05Zm.09,0V135h-.05Zm-8.68,0h8.63V135H81.25l0-.05Zm0,.09h0v-.05Zm0-10v9.93h-.09V125h.09Zm2.41-2.5v.09h-.25l-.12,0-.12,0-.11,0-.12,0-.11,0-.11.05-.1,0-.11,0-.1.06-.09.06-.1.07-.09.07-.09.08-.08.08-.08.08-.08.09-.07.09-.07.09-.06.1-.06.1,0,.1-.05.11,0,.11,0,.11,0,.12,0,.11,0,.12V125h-.09v-.26l0-.12,0-.13,0-.12,0-.12,0-.11,0-.12,0-.11.05-.1.06-.11.07-.1.07-.1.07-.09.08-.09.08-.09.09-.08.09-.08.1-.08.09-.07.11-.06.1-.06.11-.06.11,0,.11,0,.12,0,.12,0,.12,0,.12,0h.13l.12,0h.13Z"/></g><g id="g4412"><path id="path4414" class="cls-28" d="M82.74,134.94h5.63v-8.56a1.73,1.73,0,0,0-1.72-1.72H84.46a1.73,1.73,0,0,0-1.72,1.72Z"/><path id="path4416" class="cls-11" d="M88.37,135H82.74v-.1h5.63l0,.05Zm0-.05V135h0Zm0-8.56v8.56h-.1v-8.56h.1Zm-1.77-1.67v-.1h.27l.09,0,.08,0,.08,0,.09,0,.08,0,.07,0,.08,0,.07,0,.08,0,.06,0,.07,0,.07,0,.06.06.06.06.05.07,0,.06,0,.07,0,.08,0,.07,0,.08,0,.07,0,.08,0,.09,0,.08,0,.08,0,.09v.27h-.09V126l0-.08,0-.08,0-.07,0-.08,0-.07,0-.08,0-.07,0-.06-.05-.07,0-.06,0-.06-.06-.06-.06-.06-.06,0-.06,0-.07,0-.06,0-.07,0-.08,0-.07,0-.08,0-.07,0-.08,0-.08,0h-.34Zm-2.19-.1h2.19v.1H84.46Zm-1.67,1.77h-.1v-.27l0-.09,0-.08,0-.08,0-.09,0-.08,0-.07,0-.08,0-.07,0-.08,0-.06,0-.07.05-.07.06-.06.06-.06.07,0,.06,0,.07,0,.08,0,.07,0,.08,0,.07,0,.08,0,.09,0,.08,0,.08,0,.09,0h.27v.09h-.34l-.08,0-.08,0-.07,0-.08,0-.07,0-.08,0-.07,0-.06,0-.07,0-.06,0-.06,0-.06.06-.06.06,0,.06,0,.06-.05.07,0,.07,0,.07,0,.07,0,.07,0,.08,0,.07,0,.08,0,.08v.34Zm-.1,8.56v-8.56h.1v8.56l-.05.05Zm0,.05h0v-.05Z"/></g><g id="g4418"><g id="g4420"><path id="path4422" class="cls-11" d="M109.87,110H39.42v-.09h70.45l0,0,0,0Zm0-.09h0v0Zm-.05,1.64v-1.59h.1v1.59l0,0-.05,0Zm.1,0v0h0Zm-70.5,0h70.45v.09H39.42l-.05,0,.05,0Zm0,.09h-.05v0Zm0-1.64v1.59h-.1v-1.59l.05,0,0,0Zm-.1,0v0h.05Z"/></g><g id="g4424"><path id="path4426" class="cls-11" d="M109.87,92.42H39.42v-.09h70.45l0,0,0,0Zm0-.09h0v0Zm-.05,1.45v-1.4h.09v1.4l0,0-.05,0Zm.09,0v0h0Zm-70.49,0h70.45v.09H39.42l-.05,0,.05,0Zm0,.09h-.05v0Zm0-1.45v1.4h-.1v-1.4l.05,0,0,0Zm-.1,0v0h.05Z"/></g><g id="g4428"><path id="path4430" class="cls-11" d="M109.87,75.76H39.42v-.09h70.45l0,0,0,.05Zm0-.09h0v0Zm-.05,1.56V75.71h.09v1.52l0,0-.05,0Zm.09,0v0h0Zm-70.49,0h70.45v.1H39.42l-.05,0,.05,0Zm0,.1h-.05v0Zm0-1.57v1.52h-.1V75.71l.05,0,0,0Zm-.1,0v0h.05Z"/></g><g id="g4432"><path id="path4434" class="cls-11" d="M109.87,59H39.42V58.9h70.45l0,0,0,.05Zm0-.09h0v0ZM109.82,60V58.94h.09V60l0,0-.05,0Zm.09,0v0h0ZM39.42,60h70.45v.09H39.42l-.05,0,.05-.05Zm0,.09h-.05v0Zm0-1.13V60h-.1V58.94l.05,0,0,0Zm-.1,0v0h.05Z"/></g><g id="g4436"><path id="path4438" class="cls-11" d="M109.87,41.79H39.42v-.1h70.45l0,.05,0,0Zm0-.1h0v.05Zm-.05.91v-.86h.09v.86l0,0-.05,0Zm.09,0v0h0Zm-70.49,0h70.45v.09H39.42l-.05,0,.05,0Zm0,.09h-.05v0Zm0-.91v.86h-.1v-.86l.05-.05,0,.05Zm-.1,0v-.05h.05Z"/></g><g id="g4440"><path id="path4442" class="cls-11" d="M109.87,26.54H39.42v-.09h70.45l0,.05,0,0Zm0-.09h0v.05Zm-.05,1.11V26.5h.09v1.06l0,.05-.05-.05Zm.09,0v.05h0Zm-70.49,0h70.45v.09H39.42l-.05-.05.05,0Zm0,.09h-.05v-.05Zm0-1.11v1.06h-.1V26.5l.05-.05,0,.05Zm-.1,0v-.05h.05Z"/></g></g><path id="path4444" class="cls-29" d="M74.3,102.67h0v33.11h0c0,4.18-1.19,7.5-2.38,8.68-1.15-1.15-2.38-4.5-2.38-8.68V102.67c0-4.18,1.23-6.42,2.38-7.57C73.11,96.28,74.3,98.49,74.3,102.67Z"/><g id="g4446"><path id="path4448" class="cls-30" d="M48,102.67h0v33.11h0c0,4.18-.82,7.5-1.63,8.68-.79-1.15-1.62-4.5-1.62-8.68V102.67c0-4.18.83-6.42,1.62-7.57C47.18,96.28,48,98.49,48,102.67Z"/><path id="path4450" class="cls-11" d="M48,102.67Zm0,33.11V102.67H48v33.11H48Zm0,0Zm-1.67,8.71.08-.05h-.08l.08-.12.07-.13.08-.14.07-.15.07-.16.08-.18.07-.18.07-.2L47,143l.07-.22.07-.23.07-.23.06-.25.06-.26.06-.27.06-.27.06-.29,0-.29.05-.3,0-.31,0-.32,0-.33,0-.33,0-.34,0-.35,0-.35,0-.36,0-.37,0-.37v-1.15H48v1.53l0,.37,0,.36,0,.35,0,.35,0,.34,0,.33,0,.33,0,.32-.05.31,0,.3,0,.3-.06.29-.06.27-.06.27-.06.26-.06.25-.07.24-.07.23-.07.22-.07.21-.07.2-.07.19-.08.18-.07.16-.08.16-.08.14-.07.13-.08.12Zm.08,0,0,.06,0-.06Zm-1.71-8.71h.1v1.52l0,.37,0,.36,0,.36,0,.34,0,.35,0,.33.05.33,0,.31,0,.32.05.3,0,.29.06.29.06.27.06.27.06.26.07.25.06.24.07.23.07.21.07.21.07.2.07.18.08.18.07.16.07.15.08.14.07.12.07.12-.08.05-.07-.12-.08-.13-.07-.14L46,144l-.07-.16-.07-.18-.08-.19-.07-.2-.07-.21-.07-.22-.07-.23-.06-.24-.07-.25-.06-.26-.06-.27-.06-.27-.06-.29,0-.3,0-.3-.05-.31,0-.32,0-.33,0-.33,0-.35,0-.34,0-.36,0-.36,0-.37,0-.37v-1.16Zm.1-33.11v33.11h-.1V102.67h.1Zm1.61-7.6-.08.05h.08l-.07.11-.08.12-.07.12-.07.13-.08.14-.07.15L45.9,96l-.07.16-.07.16-.07.18-.07.18-.06.19-.07.2-.06.21-.06.21-.06.23-.06.23,0,.25-.05.25,0,.26,0,.27L45,99.3l0,.29,0,.3,0,.31,0,.32,0,.33,0,.34v1.48h-.1v-1.13l0-.35,0-.34,0-.34,0-.32,0-.31,0-.3,0-.29L45,99l0-.27.05-.26,0-.25,0-.25.06-.23.06-.23.06-.22.06-.21.07-.2.06-.19.07-.18.07-.18.07-.17.07-.16.08-.15L46,95.7l.08-.14.07-.13.07-.13.08-.12.07-.11Zm-.08,0,0-.06,0,.06Zm1.71,7.6H48v-1.12l0-.35,0-.35,0-.33,0-.32,0-.31,0-.3,0-.28,0-.28,0-.27,0-.26-.05-.26,0-.24-.06-.23-.06-.22-.06-.22-.06-.21-.06-.19-.07-.2-.07-.18L47,96.38l-.07-.17-.07-.16-.07-.15-.07-.15-.08-.14-.07-.13-.08-.13-.07-.11-.08-.12.08-.05.08.12.07.12.08.12.07.14.08.14.07.15.08.15.07.16.07.17.07.18.07.18.07.2.06.2.06.2.06.22.06.23.06.23,0,.25,0,.25.05.26,0,.27,0,.28,0,.29,0,.3,0,.31,0,.33,0,.33,0,.34v1.48Z"/></g><polygon id="polygon4452" class="cls-31" points="60.02 109.73 59.29 110.47 59.29 125.36 65.03 125.36 65.03 110.47 64.29 109.73 60.02 109.73"/><path id="path4454" class="cls-13" d="M60.25,124.72h3.59a2.21,2.21,0,0,1,2.21,2.2v6.66a.49.49,0,0,1-.49.49h-7a.49.49,0,0,1-.49-.49v-6.66a2.22,2.22,0,0,1,2.21-2.2Z"/><path id="path4456" class="cls-32" d="M59.56,133.43H64.7v-6.94a.38.38,0,0,0-.37-.37h-4.4a.38.38,0,0,0-.37.37v6.94Z"/><line id="line4458" class="cls-4" x1="59.29" y1="110.47" x2="65.02" y2="110.47"/><rect id="rect4470" class="cls-4" x="68.05" y="1.97" width="2.71" height="24.53"/><rect id="rect4472" class="cls-4" x="70.76" y="1.97" width="2.71" height="24.53"/><rect id="rect4474" class="cls-4" x="68.05" y="1.97" width="2.71" height="24.53"/><rect id="rect4476" class="cls-4" x="65.35" y="1.97" width="2.71" height="24.53"/><rect id="rect4478" class="cls-4" x="62.64" y="1.97" width="2.71" height="24.53"/><rect id="rect4480" class="cls-4" x="59.94" y="1.97" width="2.71" height="24.53"/><rect id="rect4482" class="cls-4" x="57.23" y="1.97" width="2.71" height="24.53"/><rect id="rect4484" class="cls-4" x="54.53" y="1.97" width="2.71" height="24.53"/><rect id="rect4486" class="cls-4" x="51.82" y="1.97" width="2.71" height="24.53"/><rect id="rect4488" class="cls-4" x="49.12" y="1.97" width="2.71" height="24.53"/><rect id="rect4490" class="cls-4" x="46.41" y="1.97" width="2.71" height="24.53"/><rect id="rect4492" class="cls-4" x="43.71" y="1.97" width="2.71" height="24.53"/><g id="g4494"><path id="path4496" class="cls-11" d="M46.41,2H44.53v-.1h1.88l.05.05L46.41,2Zm0-.1h.05V2Zm0,24.58V2h.1V26.5l-.05,0,0,0Zm.1,0v0h-.05Zm-1.93-.05h1.88v.09H44.53l0,0,0-.05Zm0,.09h0v0ZM44.58,2V26.5h-.09V2l0-.05,0,.05Zm-.09,0V1.92h0Z"/></g><g id="g4498"><path id="path4500" class="cls-11" d="M44.53,2H43v-.1h1.57l0,.05,0,.05Zm0-.1h0V2Zm0,24.58V2h.09V26.5l0,0,0,0Zm.09,0v0h0ZM43,26.45h1.57v.09H43l0,0,0-.05Zm0,.09h0v0ZM43,2V26.5h-.09V2l0-.05L43,2Zm-.09,0V1.92h0Z"/></g><g id="g4502"><path id="path4504" class="cls-11" d="M43,2H41.91v-.1H43L43,2,43,2Zm0-.1h0V2Zm0,24.58V2H43V26.5l0,0,0,0Zm.09,0v0h0Zm-1.1-.05H43v.09H41.91l0,0,0-.05Zm0,.09h0v0ZM42,2V26.5h-.1V2l0-.05L42,2Zm-.1,0V1.92h0Z"/></g><g id="g4506"><path id="path4508" class="cls-11" d="M41.91,2H40.85v-.1h1.06L42,2,41.91,2Zm0-.1H42V2Zm0,24.58V2H42V26.5l-.05,0,0,0Zm.1,0v0h-.05Zm-1.11-.05h1.06v.09H40.85l0,0,0-.05Zm0,.09h0v0ZM40.9,2V26.5h-.09V2l0-.05,0,.05Zm-.09,0V1.92h0Z"/></g><g id="g4510"><path id="path4512" class="cls-11" d="M40.85,2H39.8v-.1h1.05l0,.05,0,.05Zm0-.1h0V2Zm0,24.58V2h.09V26.5l0,0,0,0Zm.09,0v0h0Zm-1.1-.05h1.05v.09H39.8l0,0,0-.05Zm0,.09h0v0ZM39.84,2V26.5h-.09V2l0-.05,0,.05Zm-.09,0V1.92h0Z"/></g><g id="g4514"><path id="path4516" class="cls-11" d="M39.8,2H38.58v-.1H39.8l0,.05,0,.05Zm0-.1h0V2Zm0,24.58V2h.09V26.5l0,0,0,0Zm.09,0v0h0Zm-1.26-.05H39.8v.09H38.58l0,0,0-.05Zm0,.09h0v0ZM38.63,2V26.5h-.1V2l0-.05.05.05Zm-.1,0V1.92h0Z"/></g><rect id="rect4518" class="cls-4" x="73.46" y="1.97" width="2.71" height="24.53"/><rect id="rect4520" class="cls-4" x="76.17" y="1.97" width="2.71" height="24.53"/><rect id="rect4522" class="cls-4" x="78.87" y="1.97" width="2.71" height="24.53"/><rect id="rect4524" class="cls-4" x="81.58" y="1.97" width="2.71" height="24.53"/><rect id="rect4526" class="cls-4" x="84.28" y="1.97" width="2.71" height="24.53"/><rect id="rect4528" class="cls-4" x="86.99" y="1.97" width="2.71" height="24.53"/><rect id="rect4530" class="cls-4" x="89.69" y="1.97" width="2.71" height="24.53"/><rect id="rect4532" class="cls-4" x="92.4" y="1.97" width="2.71" height="24.53"/><rect id="rect4534" class="cls-4" x="95.1" y="1.97" width="2.71" height="24.53"/><rect id="rect4536" class="cls-4" x="97.81" y="1.97" width="2.71" height="24.53"/><rect id="rect4538" class="cls-4" x="100.51" y="1.97" width="2.71" height="24.53"/><g id="g4540"><path id="path4542" class="cls-11" d="M104.9,2h-1.68v-.1h1.68l0,.05,0,.05Zm0-.1h0V2Zm-.05,24.58V2h.09V26.5l0,0-.05,0Zm.09,0v0h0Zm-1.72-.05h1.68v.09h-1.68l0,0,0-.05Zm0,.09h0v0Zm0-24.57V26.5h-.1V2l0-.05,0,.05Zm-.1,0V1.92h0Z"/></g><g id="g4544"><path id="path4546" class="cls-11" d="M106.57,2H104.9v-.1h1.67l.05.05-.05.05Zm0-.1h.05V2Zm0,24.58V2h.09V26.5l-.05,0,0,0Zm.09,0v0h-.05Zm-1.72-.05h1.67v.09H104.9l-.05,0,.05-.05Zm0,.09h-.05v0Zm0-24.57V26.5h-.09V2l.05-.05,0,.05Zm-.09,0V1.92h.05Z"/></g><g id="g4548"><path id="path4550" class="cls-11" d="M106.57,2l0-.05,0-.05h1.59V2Zm0-.05V1.92h0Zm.09,24.53-.05,0,0,0V2h.09V26.5Zm-.05,0h0v0Zm1.59-.09,0,.05,0,0h-1.59v-.09Zm0,.05v0h0ZM108.11,2l0-.05,0,.05V26.5h-.09V2Zm0-.05h0V2Z"/></g><g id="g4552"><path id="path4554" class="cls-11" d="M108.16,2l0-.05,0-.05h2.48V2Zm0-.05V1.92h0Zm.09,24.53,0,0,0,0V2h.09V26.5Zm0,0h0v0Zm2.48-.09,0,.05,0,0h-2.48v-.09Zm0,.05v0h0ZM110.59,2l0-.05,0,.05V26.5h-.1V2Zm0-.05h0V2Z"/></g><ellipse id="ellipse4556" class="cls-33" cx="62.16" cy="16.3" rx="2.13" ry="7.11"/><rect id="rect4558" class="cls-34" x="60.02" y="16.3" width="4.26" height="93.43"/><line id="line4560" class="cls-4" x1="39.8" y1="1.97" x2="51.93" y2="-38.07"/><line id="line4562" class="cls-4" x1="40.85" y1="1.97" x2="53.01" y2="-38.07"/><line id="line4564" class="cls-4" x1="42.44" y1="1.97" x2="54.2" y2="-38.07"/><line id="line4566" class="cls-4" x1="43.71" y1="1.97" x2="55.17" y2="-38.07"/><line id="line4568" class="cls-4" x1="45.06" y1="1.97" x2="56.47" y2="-38.07"/><line id="line4570" class="cls-4" x1="47.49" y1="1.97" x2="57.56" y2="-38.07"/><line id="line4572" class="cls-4" x1="49.12" y1="1.97" x2="58.75" y2="-38.07"/><line id="line4574" class="cls-4" x1="50.47" y1="1.97" x2="59.83" y2="-38.07"/><line id="line4576" class="cls-4" x1="52.58" y1="1.97" x2="60.91" y2="-38.07"/><line id="line4578" class="cls-4" x1="55.16" y1="1.97" x2="61.65" y2="-38.07"/><line id="line4580" class="cls-4" x1="57.23" y1="1.97" x2="62.43" y2="-38.07"/><line id="line4582" class="cls-4" x1="58.58" y1="1.97" x2="63.62" y2="-38.07"/><line id="line4584" class="cls-4" x1="60.8" y1="1.97" x2="65.02" y2="-38.07"/><line id="line4586" class="cls-4" x1="62.64" y1="1.97" x2="66.54" y2="-38.07"/><line id="line4588" class="cls-4" x1="65.78" y1="1.97" x2="67.73" y2="-38.07"/><line id="line4590" class="cls-4" x1="68.05" y1="1.97" x2="69.78" y2="-38.07"/><line id="line4592" class="cls-4" x1="70.76" y1="1.97" x2="71.95" y2="-38.07"/><line id="line4594" class="cls-4" x1="73.89" y1="1.97" x2="73.89" y2="-38.07"/><line id="line4596" class="cls-4" x1="76.75" y1="1.97" x2="75.84" y2="-38.07"/><line id="line4598" class="cls-4" x1="79.2" y1="1.97" x2="78.12" y2="-38.07"/><line id="line4600" class="cls-4" x1="81.58" y1="1.97" x2="79.74" y2="-38.07"/><line id="line4602" class="cls-4" x1="84.28" y1="1.97" x2="81.36" y2="-38.07"/><line id="line4604" class="cls-4" x1="86.99" y1="1.97" x2="83.63" y2="-38.07"/><line id="line4606" class="cls-4" x1="89.69" y1="1.97" x2="85.58" y2="-38.07"/><line id="line4608" class="cls-4" x1="92.72" y1="1.97" x2="87.64" y2="-38.07"/><line id="line4610" class="cls-4" x1="95.1" y1="1.97" x2="89.8" y2="-38.07"/><line id="line4612" class="cls-4" x1="98.33" y1="1.97" x2="91.53" y2="-37.74"/><line id="line4614" class="cls-4" x1="100.51" y1="1.97" x2="93.05" y2="-38.07"/><line id="line4616" class="cls-4" x1="103.22" y1="1.97" x2="94.34" y2="-38.07"/><line id="line4618" class="cls-4" x1="105.73" y1="1.97" x2="95.97" y2="-38.07"/><line id="line4620" class="cls-4" x1="107.37" y1="1.97" x2="97.27" y2="-38.07"/><line id="line4622" class="cls-4" x1="108.95" y1="1.97" x2="98.02" y2="-38.07"/></svg>