<svg id="svg2" xmlns="http://www.w3.org/2000/svg" viewBox="0 0 150 70.91"><defs><style>.cls-1,.cls-4,.cls-7,.cls-8{fill:none;}.cls-1,.cls-12,.cls-2,.cls-3,.cls-4{stroke:gray;}.cls-1,.cls-12,.cls-2,.cls-3,.cls-4,.cls-5,.cls-6,.cls-7,.cls-8{stroke-miterlimit:11.34;}.cls-1,.cls-12,.cls-2,.cls-3,.cls-5,.cls-6,.cls-7{stroke-width:0.09px;}.cls-2,.cls-3{fill:#fff;}.cls-10,.cls-12,.cls-2,.cls-5{fill-rule:evenodd;}.cls-4{stroke-width:0.31px;}.cls-5{fill:#630;}.cls-5,.cls-6,.cls-7,.cls-8,.cls-9{stroke:#000;}.cls-8{stroke-width:0.22px;}.cls-9{stroke-miterlimit:4.91;stroke-width:0.04px;}.cls-10{fill:#999;}.cls-11{fill:#666;}.cls-12{fill:red;}.cls-13{fill:gray;}</style></defs><polygon id="polygon3670" class="cls-1" points="72.07 10.62 76.91 10.62 74.51 1.81 74.51 1.81 72.07 10.62"/><path id="path3680" class="cls-2" d="M60.49,84.5H88.24L74.86,64.58c-.3-.46-.67-.46-1,0L60.49,84.5Z"/><rect id="rect3682" class="cls-3" x="72.07" y="10.62" width="4.84" height="39.24"/><line id="line4626" class="cls-4" x1="70.23" y1="52.58" x2="68.93" y2="66.86"/><line id="line4628" class="cls-4" x1="78.71" y1="52.7" x2="79.48" y2="66.86"/><line id="line4630" class="cls-4" x1="70.14" y1="52.7" x2="79.48" y2="66.86"/><line id="line4632" class="cls-4" x1="68.93" y1="66.86" x2="78.71" y2="52.7"/><polyline id="polyline4634" class="cls-4" points="71.2 60.53 77.1 60.53 77.75 52.7"/><polyline id="polyline4636" class="cls-4" points="77.1 60.53 71.2 60.53 70.55 52.7"/><line id="line4638" class="cls-4" x1="77.1" y1="60.53" x2="79.48" y2="66.86"/><line id="line4640" class="cls-4" x1="71.2" y1="60.53" x2="68.82" y2="66.86"/><rect id="rect4642" class="cls-3" x="68.94" y="66.86" width="10.55" height="5.46"/><g id="g5010"><polygon id="polygon5012" class="cls-5" points="73.32 52.7 75.3 52.7 76.22 57.16 72.54 57.16 73.32 52.7"/><ellipse id="ellipse5014" class="cls-6" cx="74.38" cy="57.16" rx="1.84" ry="0.54"/><path id="path5016" class="cls-7" d="M73.2,53.41a4.89,4.89,0,0,1,2.25,0"/><g id="g5018"><polygon id="polygon5020" points="75.37 54.25 75.29 54.24 75.21 54.23 75.13 54.22 75.05 54.21 74.97 54.2 74.89 54.19 74.81 54.18 74.73 54.18 74.65 54.17 74.57 54.17 74.49 54.16 74.41 54.16 74.33 54.16 74.24 54.16 74.16 54.16 74.08 54.16 74 54.17 73.92 54.17 73.84 54.18 73.76 54.18 73.68 54.19 73.6 54.2 73.52 54.21 73.44 54.22 73.36 54.23 73.27 54.24 73.19 54.26 73.11 54.27 73.04 54.29 73.02 54.2 73.09 54.18 73.18 54.17 73.26 54.15 73.34 54.14 73.42 54.13 73.5 54.12 73.59 54.1 73.67 54.1 73.75 54.09 73.83 54.08 73.91 54.08 74 54.07 74.08 54.07 74.16 54.07 74.24 54.07 74.33 54.07 74.41 54.07 74.49 54.07 74.57 54.07 74.65 54.08 74.74 54.08 74.82 54.09 74.9 54.1 74.98 54.1 75.06 54.11 75.14 54.12 75.22 54.13 75.31 54.15 75.39 54.16 75.47 54.17 75.55 54.19 75.63 54.2 75.61 54.29 75.53 54.28 75.45 54.26 75.37 54.25"/></g><g id="g5022"><path id="path5024" class="cls-8" d="M72.85,55.15a8.3,8.3,0,0,1,2.94,0"/></g><g id="g5026"><path id="path5028" class="cls-8" d="M72.67,56A10.44,10.44,0,0,1,76,56"/></g></g><g id="g5030"><polygon id="polygon5032" class="cls-5" points="70.34 52.35 72.36 52.5 70.74 57.65 67.51 55.88 70.34 52.35"/><ellipse id="ellipse5034" class="cls-9" cx="69.12" cy="56.76" rx="0.54" ry="1.84" transform="translate(-13.9 90.04) rotate(-61.24)"/><path id="path5036" class="cls-7" d="M69.89,52.91a4.88,4.88,0,0,1,2,1.08"/><g id="g5038"><polygon id="polygon5040" points="71.4 54.69 71.33 54.64 71.27 54.59 71.2 54.54 71.14 54.5 71.07 54.45 71 54.4 70.94 54.36 70.87 54.31 70.8 54.27 70.73 54.23 70.66 54.19 70.59 54.15 70.52 54.11 70.45 54.07 70.38 54.03 70.31 53.99 70.23 53.96 70.16 53.92 70.09 53.89 70.01 53.85 69.94 53.82 69.86 53.79 69.79 53.76 69.71 53.73 69.64 53.7 69.56 53.67 69.48 53.65 69.4 53.63 69.33 53.6 69.35 53.51 69.43 53.53 69.51 53.56 69.59 53.59 69.67 53.61 69.75 53.64 69.82 53.67 69.9 53.7 69.98 53.73 70.05 53.77 70.13 53.8 70.2 53.84 70.28 53.87 70.35 53.91 70.42 53.95 70.5 53.98 70.57 54.02 70.64 54.07 70.71 54.11 70.78 54.15 70.85 54.19 70.92 54.24 70.99 54.28 71.06 54.33 71.12 54.37 71.19 54.42 71.26 54.47 71.32 54.52 71.39 54.56 71.45 54.62 71.52 54.66 71.58 54.72 71.64 54.77 71.58 54.84 71.52 54.79 71.46 54.74 71.4 54.69"/></g><g id="g5042"><path id="path5044" class="cls-8" d="M68.75,54.27a8.42,8.42,0,0,1,2.58,1.41"/></g><g id="g5046"><path id="path5048" class="cls-8" d="M68.2,54.9a10,10,0,0,1,2.89,1.58"/></g></g><g id="g5050"><polygon id="polygon5052" class="cls-5" points="78.51 52.35 76.5 52.5 78.12 57.65 81.34 55.88 78.51 52.35"/><ellipse id="ellipse5054" class="cls-9" cx="79.73" cy="56.76" rx="1.84" ry="0.54" transform="translate(-17.48 45.37) rotate(-28.76)"/><path id="path5056" class="cls-7" d="M79,52.91A4.94,4.94,0,0,0,77,54"/><g id="g5058"><polygon id="polygon5060" points="77.47 54.56 77.53 54.52 77.6 54.47 77.67 54.42 77.73 54.37 77.8 54.33 77.87 54.28 77.94 54.24 78 54.19 78.08 54.15 78.15 54.11 78.22 54.07 78.29 54.02 78.36 53.98 78.43 53.95 78.51 53.91 78.58 53.87 78.65 53.84 78.73 53.8 78.8 53.77 78.88 53.73 78.95 53.7 79.03 53.67 79.11 53.64 79.19 53.61 79.26 53.59 79.34 53.56 79.42 53.53 79.5 53.51 79.53 53.6 79.45 53.63 79.37 53.65 79.29 53.67 79.22 53.7 79.14 53.73 79.06 53.76 78.99 53.79 78.92 53.82 78.84 53.85 78.77 53.89 78.69 53.92 78.62 53.96 78.55 53.99 78.48 54.03 78.4 54.07 78.33 54.11 78.26 54.15 78.19 54.19 78.12 54.23 78.06 54.27 77.99 54.31 77.92 54.36 77.85 54.4 77.79 54.45 77.72 54.5 77.65 54.54 77.59 54.59 77.52 54.64 77.46 54.69 77.39 54.74 77.33 54.79 77.27 54.84 77.21 54.77 77.27 54.72 77.34 54.66 77.4 54.62 77.47 54.56"/></g><g id="g5062"><path id="path5064" class="cls-8" d="M80.1,54.27a8.26,8.26,0,0,0-2.57,1.41"/></g><g id="g5066"><path id="path5068" class="cls-8" d="M80.65,54.9a10.29,10.29,0,0,0-2.89,1.58"/></g></g><polygon id="polygon5070" class="cls-2" points="70.14 52.7 78.71 52.7 76.91 49.86 72.07 49.86 70.14 52.7"/><g id="g5072"><polygon id="polygon5074" class="cls-10" points="72.07 18.64 76.91 18.64 76.91 20 72.07 20 72.07 18.64"/><path id="path5076" class="cls-11" d="M76.91,18.69H72.07V18.6h4.84l0,0Zm0-.09h0v0Zm0,1.4V18.65H77V20l0,0Zm.1,0v0h0ZM72.07,20h4.84V20H72.07l0,0Zm0,.09h0v0Zm.05-1.39V20H72V18.65l0,0Zm-.09,0v0h0Z"/></g><path id="path5078" class="cls-12" d="M74.31,13.1c.39,0,.71.26.71,1.26s-.32,2.34-.71,2.34-.71-1.35-.71-2.34S73.92,13.1,74.31,13.1Z"/><g id="g5080"><polygon id="polygon5082" class="cls-13" points="74.46 10.6 74.46 1.81 74.56 1.81 74.56 10.6 74.46 10.6"/></g></svg>