<svg id="svg2" xmlns="http://www.w3.org/2000/svg" xmlns:xlink="http://www.w3.org/1999/xlink" viewBox="0 0 150 251.34"><defs><style>.cls-1,.cls-2{fill:#4d4d4d;}.cls-1,.cls-11,.cls-17,.cls-27,.cls-28,.cls-29,.cls-3{stroke:#000;}.cls-1,.cls-11,.cls-16,.cls-17,.cls-18,.cls-19,.cls-20,.cls-21,.cls-22,.cls-24,.cls-25,.cls-27,.cls-28,.cls-29,.cls-3,.cls-30,.cls-7,.cls-8,.cls-9{stroke-miterlimit:11.34;}.cls-1{stroke-width:0.02px;}.cls-1,.cls-2,.cls-21,.cls-26,.cls-27,.cls-30,.cls-4,.cls-5,.cls-6,.cls-7,.cls-8,.cls-9{fill-rule:evenodd;}.cls-12,.cls-16,.cls-17,.cls-19,.cls-20,.cls-23,.cls-24,.cls-28,.cls-3{fill:none;}.cls-19,.cls-3{stroke-width:0.22px;}.cls-4{fill:#630;}.cls-13,.cls-30,.cls-5,.cls-8{fill:#fff;}.cls-16,.cls-18,.cls-19,.cls-20,.cls-21,.cls-22,.cls-23,.cls-24,.cls-25,.cls-30,.cls-7,.cls-8,.cls-9{stroke:gray;}.cls-18,.cls-22,.cls-25,.cls-7,.cls-9{stroke-width:0.09px;}.cls-7{fill:url(#linear-gradient);}.cls-11,.cls-20,.cls-21,.cls-8{stroke-width:0.09px;}.cls-9{fill:url(#linear-gradient-2);}.cls-10,.cls-27{fill:gray;}.cls-14{fill:red;}.cls-15{fill:#006;}.cls-16,.cls-17{stroke-width:0.61px;}.cls-18{fill:url(#linear-gradient-3);}.cls-22{fill:url(#linear-gradient-4);}.cls-23{stroke-miterlimit:11.34;stroke-width:0.04px;}.cls-24{stroke-width:0.31px;}.cls-25{fill:url(#linear-gradient-5);}.cls-26{fill:#b3b3b3;}.cls-27,.cls-28,.cls-29,.cls-30{stroke-width:0.06px;}.cls-29{fill:#e6e6e6;}</style><linearGradient id="linear-gradient" x1="-104.5" y1="47.62" x2="-104.5" y2="38.99" gradientTransform="matrix(2.83, 0, 0, -2.83, 423.8, 371.82)" gradientUnits="userSpaceOnUse"><stop offset="0" stop-color="#fff"/><stop offset="0.21" stop-color="#fff"/><stop offset="0.47" stop-color="#e6e6e6"/><stop offset="0.75" stop-color="#fff"/><stop offset="1" stop-color="#fff"/></linearGradient><linearGradient id="linear-gradient-2" x1="-141.67" y1="47.6" x2="-141.42" y2="39.34" xlink:href="#linear-gradient"/><linearGradient id="linear-gradient-3" x1="-130.92" y1="126.87" x2="-130.05" y2="126.87" gradientTransform="matrix(2.83, 0, 0, -2.83, 423.8, 371.82)" gradientUnits="userSpaceOnUse"><stop offset="0" stop-color="#fff"/><stop offset="0.21" stop-color="#fff"/><stop offset="0.5" stop-color="#e6e6e6"/><stop offset="0.75" stop-color="#fff"/><stop offset="1" stop-color="#fff"/></linearGradient><linearGradient id="linear-gradient-4" x1="-130.92" y1="49.12" x2="-130.06" y2="49.12" xlink:href="#linear-gradient-3"/><linearGradient id="linear-gradient-5" x1="-130.92" y1="88" x2="-130.05" y2="88" xlink:href="#linear-gradient-3"/></defs><g id="g155"><path id="rect474" class="cls-1" d="M44.54,251.23h3.27c.13,0,.23,0,.23.1h0c0,.06-.1.11-.23.11H44.54c-.12,0-.22-.05-.22-.11h0C44.32,251.27,44.42,251.23,44.54,251.23Z"/><g id="g504"><polygon id="polygon506" class="cls-2" points="33.48 253.71 29.97 253.71 29.97 249.29 33.48 249.29 33.48 253.71"/><polygon id="polygon508" class="cls-3" points="33.48 253.71 29.97 253.71 29.97 249.29 33.48 249.29 33.48 253.71"/></g><g id="g516"><path id="path518" class="cls-4" d="M30.32,249.6h0a.17.17,0,0,1,.16.18v.41a.17.17,0,0,1-.16.18h0a.18.18,0,0,1-.16-.18v-.41A.18.18,0,0,1,30.32,249.6Zm0,.17h0a.06.06,0,0,1,.05.06v.36a.06.06,0,0,1-.05.06h0a.06.06,0,0,1-.05-.06v-.36S30.33,249.77,30.36,249.77Z"/><path id="path520" class="cls-3" d="M30.32,249.6h0a.17.17,0,0,1,.16.18v.41a.17.17,0,0,1-.16.18h0a.18.18,0,0,1-.16-.18v-.41A.18.18,0,0,1,30.32,249.6Zm0,.17h0a.06.06,0,0,1,.05.06v.36a.06.06,0,0,1-.05.06h0a.06.06,0,0,1-.05-.06v-.36S30.33,249.77,30.36,249.77Z"/></g><g id="g528"><polygon id="polygon530" class="cls-4" points="30.84 249.29 30.84 249.44 30.09 250.01 29.97 250.01 29.97 249.29 30.84 249.29"/><polygon id="polygon532" class="cls-3" points="30.84 249.29 30.84 249.44 30.09 250.01 29.97 250.01 29.97 249.29 30.84 249.29"/></g><g id="g540"><polygon id="polygon542" class="cls-4" points="30.99 249.29 30.99 249.44 31.74 250.01 31.86 250.01 31.86 249.29 30.99 249.29"/><polygon id="polygon544" class="cls-3" points="30.99 249.29 30.99 249.44 31.74 250.01 31.86 250.01 31.86 249.29 30.99 249.29"/></g><g id="g552"><polygon id="polygon554" class="cls-4" points="32.27 249.29 32.27 249.93 31.99 250.29 31.86 250.29 31.86 249.29 32.27 249.29"/><polygon id="polygon556" class="cls-3" points="32.27 249.29 32.27 249.93 31.99 250.29 31.86 250.29 31.86 249.29 32.27 249.29"/></g><g id="g564"><polygon id="polygon566" class="cls-4" points="32.74 249.29 33.48 249.29 33.48 250.27 33.3 250.27 33.08 249.87 32.74 249.79 32.74 249.29"/><polygon id="polygon568" class="cls-3" points="32.74 249.29 33.48 249.29 33.48 250.27 33.3 250.27 33.08 249.87 32.74 249.79 32.74 249.29"/></g><g id="g576"><path id="path578" class="cls-2" d="M33.43,250.39l1.51,1.35a.14.14,0,0,0,.22,0h0a.21.21,0,0,0,0-.26l-1.51-1.35a.14.14,0,0,0-.22,0h0A.21.21,0,0,0,33.43,250.39Z"/><path id="path580" class="cls-3" d="M33.43,250.39l1.51,1.35a.14.14,0,0,0,.22,0h0a.21.21,0,0,0,0-.26l-1.51-1.35a.14.14,0,0,0-.22,0h0A.21.21,0,0,0,33.43,250.39Z"/></g><g id="g588"><polygon id="polygon590" class="cls-4" points="32.74 249.29 32.27 249.29 32.27 250.01 32.74 250.01 32.74 249.29"/><polygon id="polygon592" class="cls-3" points="32.74 249.29 32.27 249.29 32.27 250.01 32.74 250.01 32.74 249.29"/></g><g id="g600"><path id="path602" class="cls-4" d="M30,251.58l.48-.11,1.28-1.13v-.17h-.3v.12h-.1l-.8.67c-.06,0-.16.07-.17,0v-.79H30v1.41Z"/><path id="path604" class="cls-3" d="M30,251.58l.48-.11,1.28-1.13v-.17h-.3v.12h-.1l-.8.67c-.06,0-.16.07-.17,0v-.79H30v1.41Z"/></g><g id="g612"><path id="path614" class="cls-4" d="M30.46,251.55l1.3-1.15a.09.09,0,0,0,0-.13h0a.07.07,0,0,0-.11,0l-1.3,1.15a.09.09,0,0,0,0,.13h0A.07.07,0,0,0,30.46,251.55Z"/><path id="path616" class="cls-3" d="M30.46,251.55l1.3-1.15a.09.09,0,0,0,0-.13h0a.07.07,0,0,0-.11,0l-1.3,1.15a.09.09,0,0,0,0,.13h0A.07.07,0,0,0,30.46,251.55Z"/></g><g id="g624"><path id="path626" class="cls-2" d="M34.87,251.29h.37v.08h.2l.08-.06v.27l-.28.2v.09h-.37Zm.37.22v.13l.1,0v-.07l-.1,0Z"/><path id="path628" class="cls-3" d="M34.87,251.29h.37v.08h.2l.08-.06v.27l-.28.2v.09h-.37Zm.37.22v.13l.1,0v-.07l-.1,0Z"/></g><g id="g636"><polygon id="polygon638" class="cls-4" points="30.45 249.8 31.37 249.8 31.41 249.86 31.85 249.86 31.85 250.22 30.45 250.22 30.45 249.8"/><polygon id="polygon640" class="cls-3" points="30.45 249.8 31.37 249.8 31.41 249.86 31.85 249.86 31.85 250.22 30.45 250.22 30.45 249.8"/></g><g id="g648"><polygon id="polygon650" class="cls-4" points="32.05 249.8 33.24 249.8 33.29 249.86 33.29 250.22 31.99 250.22 31.99 249.86 32.05 249.8"/><polygon id="polygon652" class="cls-3" points="32.05 249.8 33.24 249.8 33.29 249.86 33.29 250.22 31.99 250.22 31.99 249.86 32.05 249.8"/></g><g id="g768"><path id="path770" class="cls-2" d="M29.92,249.1h3.66a.14.14,0,0,1,.14.14h0a.13.13,0,0,1-.14.13H29.92a.13.13,0,0,1-.13-.13h0A.13.13,0,0,1,29.92,249.1Z"/><path id="path772" class="cls-3" d="M29.92,249.1h3.66a.14.14,0,0,1,.14.14h0a.13.13,0,0,1-.14.13H29.92a.13.13,0,0,1-.13-.13h0A.13.13,0,0,1,29.92,249.1Z"/></g><g id="g774"><path id="path778" class="cls-3" d="M30,251.5l.2.28h.34v-.2h-.25l-.15-.2Zm.05,0,.17.24h.24v-.06l-.19,0-.16-.2Z"/></g><g id="g798"><path id="path800" class="cls-4" d="M30,251.6l.26-.18a.12.12,0,0,0,0-.16h0a.1.1,0,0,0-.14,0l-.25.18a.13.13,0,0,0,0,.16h0A.09.09,0,0,0,30,251.6Z"/><path id="path802" class="cls-3" d="M30,251.6l.26-.18a.12.12,0,0,0,0-.16h0a.1.1,0,0,0-.14,0l-.25.18a.13.13,0,0,0,0,.16h0A.09.09,0,0,0,30,251.6Z"/></g><g id="g828"><path id="path830" class="cls-2" d="M33.43,252.69l1.51-1.36a.14.14,0,0,1,.22,0h0a.21.21,0,0,1,0,.26L33.62,253a.14.14,0,0,1-.22,0h0A.2.2,0,0,1,33.43,252.69Z"/><path id="path832" class="cls-3" d="M33.43,252.69l1.51-1.36a.14.14,0,0,1,.22,0h0a.21.21,0,0,1,0,.26L33.62,253a.14.14,0,0,1-.22,0h0A.2.2,0,0,1,33.43,252.69Z"/></g></g><g id="g1260"><path id="rect1650" class="cls-1" d="M80.74,251.23H84c.12,0,.23,0,.23.1h0c0,.06-.11.11-.23.11H80.74c-.13,0-.23-.05-.23-.11h0C80.51,251.27,80.61,251.23,80.74,251.23Z"/><g id="g1680"><polygon id="polygon1682" class="cls-2" points="69.68 253.71 66.17 253.71 66.17 249.29 69.68 249.29 69.68 253.71"/><polygon id="polygon1684" class="cls-3" points="69.68 253.71 66.17 253.71 66.17 249.29 69.68 249.29 69.68 253.71"/></g><g id="g1692"><path id="path1694" class="cls-4" d="M66.52,249.6h0a.17.17,0,0,1,.15.18v.41a.17.17,0,0,1-.15.18h0a.17.17,0,0,1-.16-.18v-.41A.17.17,0,0,1,66.52,249.6Zm0,.17h0a.06.06,0,0,1,.06.06v.36a.06.06,0,0,1-.06.06h0a.06.06,0,0,1,0-.06v-.36S66.52,249.77,66.55,249.77Z"/><path id="path1696" class="cls-3" d="M66.52,249.6h0a.17.17,0,0,1,.15.18v.41a.17.17,0,0,1-.15.18h0a.17.17,0,0,1-.16-.18v-.41A.17.17,0,0,1,66.52,249.6Zm0,.17h0a.06.06,0,0,1,.06.06v.36a.06.06,0,0,1-.06.06h0a.06.06,0,0,1,0-.06v-.36S66.52,249.77,66.55,249.77Z"/></g><g id="g1704"><polygon id="polygon1706" class="cls-4" points="67.03 249.29 67.03 249.44 66.28 250.01 66.17 250.01 66.17 249.29 67.03 249.29"/><polygon id="polygon1708" class="cls-3" points="67.03 249.29 67.03 249.44 66.28 250.01 66.17 250.01 66.17 249.29 67.03 249.29"/></g><g id="g1716"><polygon id="polygon1718" class="cls-4" points="67.19 249.29 67.19 249.44 67.94 250.01 68.05 250.01 68.05 249.29 67.19 249.29"/><polygon id="polygon1720" class="cls-3" points="67.19 249.29 67.19 249.44 67.94 250.01 68.05 250.01 68.05 249.29 67.19 249.29"/></g><g id="g1728"><polygon id="polygon1730" class="cls-4" points="68.47 249.29 68.47 249.93 68.19 250.29 68.05 250.29 68.05 249.29 68.47 249.29"/><polygon id="polygon1732" class="cls-3" points="68.47 249.29 68.47 249.93 68.19 250.29 68.05 250.29 68.05 249.29 68.47 249.29"/></g><g id="g1740"><polygon id="polygon1742" class="cls-4" points="68.93 249.29 69.68 249.29 69.68 250.27 69.5 250.27 69.28 249.87 68.93 249.79 68.93 249.29"/><polygon id="polygon1744" class="cls-3" points="68.93 249.29 69.68 249.29 69.68 250.27 69.5 250.27 69.28 249.87 68.93 249.79 68.93 249.29"/></g><g id="g1752"><path id="path1754" class="cls-2" d="M69.63,250.39l1.5,1.35a.14.14,0,0,0,.22,0h0a.2.2,0,0,0,0-.26l-1.5-1.35a.15.15,0,0,0-.23,0h0A.21.21,0,0,0,69.63,250.39Z"/><path id="path1756" class="cls-3" d="M69.63,250.39l1.5,1.35a.14.14,0,0,0,.22,0h0a.2.2,0,0,0,0-.26l-1.5-1.35a.15.15,0,0,0-.23,0h0A.21.21,0,0,0,69.63,250.39Z"/></g><g id="g1764"><polygon id="polygon1766" class="cls-4" points="68.93 249.29 68.47 249.29 68.47 250.01 68.93 250.01 68.93 249.29"/><polygon id="polygon1768" class="cls-3" points="68.93 249.29 68.47 249.29 68.47 250.01 68.93 250.01 68.93 249.29"/></g><g id="g1776"><path id="path1778" class="cls-4" d="M66.17,251.58l.47-.11,1.28-1.13v-.17h-.29v.12h-.11l-.79.67c-.07,0-.16.07-.17,0v-.79h-.39v1.41Z"/><path id="path1780" class="cls-3" d="M66.17,251.58l.47-.11,1.28-1.13v-.17h-.29v.12h-.11l-.79.67c-.07,0-.16.07-.17,0v-.79h-.39v1.41Z"/></g><g id="g1788"><path id="path1790" class="cls-4" d="M66.65,251.55,68,250.4a.1.1,0,0,0,0-.13h0a.07.07,0,0,0-.11,0l-1.3,1.15a.09.09,0,0,0,0,.13h0a.07.07,0,0,0,.11,0Z"/><path id="path1792" class="cls-3" d="M66.65,251.55,68,250.4a.1.1,0,0,0,0-.13h0a.07.07,0,0,0-.11,0l-1.3,1.15a.09.09,0,0,0,0,.13h0a.07.07,0,0,0,.11,0Z"/></g><g id="g1800"><path id="path1802" class="cls-2" d="M71.06,251.29h.38v.08h.19l.08-.06v.27l-.27.2v.09h-.38v-.59Zm.38.22v.13l.09,0v-.07l-.09,0Z"/><path id="path1804" class="cls-3" d="M71.06,251.29h.38v.08h.19l.08-.06v.27l-.27.2v.09h-.38v-.59Zm.38.22v.13l.09,0v-.07l-.09,0Z"/></g><g id="g1812"><polygon id="polygon1814" class="cls-4" points="66.64 249.8 67.56 249.8 67.6 249.86 68.04 249.86 68.04 250.22 66.64 250.22 66.64 249.8"/><polygon id="polygon1816" class="cls-3" points="66.64 249.8 67.56 249.8 67.6 249.86 68.04 249.86 68.04 250.22 66.64 250.22 66.64 249.8"/></g><g id="g1824"><polygon id="polygon1826" class="cls-4" points="68.24 249.8 69.43 249.8 69.49 249.86 69.49 250.22 68.18 250.22 68.18 249.86 68.24 249.8"/><polygon id="polygon1828" class="cls-3" points="68.24 249.8 69.43 249.8 69.49 249.86 69.49 250.22 68.18 250.22 68.18 249.86 68.24 249.8"/></g><g id="g1944"><path id="path1946" class="cls-2" d="M66.12,249.1h3.66a.13.13,0,0,1,.13.14h0a.13.13,0,0,1-.13.13H66.12a.13.13,0,0,1-.14-.13h0A.14.14,0,0,1,66.12,249.1Z"/><path id="path1948" class="cls-3" d="M66.12,249.1h3.66a.13.13,0,0,1,.13.14h0a.13.13,0,0,1-.13.13H66.12a.13.13,0,0,1-.14-.13h0A.14.14,0,0,1,66.12,249.1Z"/></g><g id="g1950"><path id="path1954" class="cls-3" d="M66.22,251.5l.2.28h.33v-.2H66.5l-.15-.2Zm0,0,.17.24h.25v-.06l-.2,0-.16-.2Z"/></g><g id="g1974"><path id="path1976" class="cls-4" d="M66.23,251.6l.25-.18a.12.12,0,0,0,0-.16h0a.1.1,0,0,0-.14,0l-.25.18a.13.13,0,0,0,0,.16h0A.1.1,0,0,0,66.23,251.6Z"/><path id="path1978" class="cls-3" d="M66.23,251.6l.25-.18a.12.12,0,0,0,0-.16h0a.1.1,0,0,0-.14,0l-.25.18a.13.13,0,0,0,0,.16h0A.1.1,0,0,0,66.23,251.6Z"/></g><g id="g2004"><path id="path2006" class="cls-2" d="M69.63,252.69l1.5-1.36a.14.14,0,0,1,.22,0h0a.2.2,0,0,1,0,.26L69.82,253a.15.15,0,0,1-.23,0h0A.2.2,0,0,1,69.63,252.69Z"/><path id="path2008" class="cls-3" d="M69.63,252.69l1.5-1.36a.14.14,0,0,1,.22,0h0a.2.2,0,0,1,0,.26L69.82,253a.15.15,0,0,1-.23,0h0A.2.2,0,0,1,69.63,252.69Z"/></g></g><g id="g2436"><path id="rect2826" class="cls-1" d="M100.48,251.23h3.27c.12,0,.22,0,.22.1h0c0,.06-.1.11-.22.11h-3.27c-.13,0-.23-.05-.23-.11h0C100.25,251.27,100.35,251.23,100.48,251.23Z"/><g id="g2856"><polygon id="polygon2858" class="cls-2" points="114.8 253.71 118.31 253.71 118.31 249.29 114.8 249.29 114.8 253.71"/><polygon id="polygon2860" class="cls-3" points="114.8 253.71 118.31 253.71 118.31 249.29 114.8 249.29 114.8 253.71"/></g><g id="g2868"><path id="path2870" class="cls-4" d="M118,249.6h0a.17.17,0,0,0-.15.18v.41a.17.17,0,0,0,.15.18h0a.17.17,0,0,0,.16-.18v-.41A.17.17,0,0,0,118,249.6Zm0,.17h0a.06.06,0,0,0-.06.06v.36a.06.06,0,0,0,.06.06h0a.06.06,0,0,0,0-.06v-.36S118,249.77,117.93,249.77Z"/><path id="path2872" class="cls-3" d="M118,249.6h0a.17.17,0,0,0-.15.18v.41a.17.17,0,0,0,.15.18h0a.17.17,0,0,0,.16-.18v-.41A.17.17,0,0,0,118,249.6Zm0,.17h0a.06.06,0,0,0-.06.06v.36a.06.06,0,0,0,.06.06h0a.06.06,0,0,0,0-.06v-.36S118,249.77,117.93,249.77Z"/></g><g id="g2880"><polygon id="polygon2882" class="cls-4" points="117.45 249.29 117.45 249.44 118.2 250.01 118.31 250.01 118.31 249.29 117.45 249.29"/><polygon id="polygon2884" class="cls-3" points="117.45 249.29 117.45 249.44 118.2 250.01 118.31 250.01 118.31 249.29 117.45 249.29"/></g><g id="g2892"><polygon id="polygon2894" class="cls-4" points="117.3 249.29 117.3 249.44 116.55 250.01 116.43 250.01 116.43 249.29 117.3 249.29"/><polygon id="polygon2896" class="cls-3" points="117.3 249.29 117.3 249.44 116.55 250.01 116.43 250.01 116.43 249.29 117.3 249.29"/></g><g id="g2904"><polygon id="polygon2906" class="cls-4" points="116.01 249.29 116.01 249.93 116.3 250.29 116.43 250.29 116.43 249.29 116.01 249.29"/><polygon id="polygon2908" class="cls-3" points="116.01 249.29 116.01 249.93 116.3 250.29 116.43 250.29 116.43 249.29 116.01 249.29"/></g><g id="g2916"><polygon id="polygon2918" class="cls-4" points="115.55 249.29 114.8 249.29 114.8 250.27 114.98 250.27 115.21 249.87 115.55 249.79 115.55 249.29"/><polygon id="polygon2920" class="cls-3" points="115.55 249.29 114.8 249.29 114.8 250.27 114.98 250.27 115.21 249.87 115.55 249.79 115.55 249.29"/></g><g id="g2928"><path id="path2930" class="cls-2" d="M114.86,250.39l-1.51,1.35a.14.14,0,0,1-.22,0h0a.21.21,0,0,1,0-.26l1.51-1.35a.14.14,0,0,1,.22,0h0a.21.21,0,0,1,0,.26Z"/><path id="path2932" class="cls-3" d="M114.86,250.39l-1.51,1.35a.14.14,0,0,1-.22,0h0a.21.21,0,0,1,0-.26l1.51-1.35a.14.14,0,0,1,.22,0h0a.21.21,0,0,1,0,.26Z"/></g><g id="g2940"><polygon id="polygon2942" class="cls-4" points="115.55 249.29 116.01 249.29 116.01 250.01 115.55 250.01 115.55 249.29"/><polygon id="polygon2944" class="cls-3" points="115.55 249.29 116.01 249.29 116.01 250.01 115.55 250.01 115.55 249.29"/></g><g id="g2952"><path id="path2954" class="cls-4" d="M118.31,251.58l-.47-.11-1.28-1.13v-.17h.29v.12H117l.8.67c.06,0,.16.07.17,0v-.79h.38Z"/><path id="path2956" class="cls-3" d="M118.31,251.58l-.47-.11-1.28-1.13v-.17h.29v.12H117l.8.67c.06,0,.16.07.17,0v-.79h.38Z"/></g><g id="g2964"><path id="path2966" class="cls-4" d="M117.83,251.55l-1.3-1.15a.09.09,0,0,1,0-.13h0a.07.07,0,0,1,.11,0l1.3,1.15a.09.09,0,0,1,0,.13h0A.07.07,0,0,1,117.83,251.55Z"/><path id="path2968" class="cls-3" d="M117.83,251.55l-1.3-1.15a.09.09,0,0,1,0-.13h0a.07.07,0,0,1,.11,0l1.3,1.15a.09.09,0,0,1,0,.13h0A.07.07,0,0,1,117.83,251.55Z"/></g><g id="g2976"><path id="path2978" class="cls-2" d="M113.42,251.29h-.37v.08h-.2l-.08-.06v.27l.28.2v.09h.37v-.59Zm-.37.22v.13l-.1,0v-.07l.1,0Z"/><path id="path2980" class="cls-3" d="M113.42,251.29h-.37v.08h-.2l-.08-.06v.27l.28.2v.09h.37v-.59Zm-.37.22v.13l-.1,0v-.07l.1,0Z"/></g><g id="g2988"><polygon id="polygon2990" class="cls-4" points="117.84 249.8 116.92 249.8 116.88 249.86 116.44 249.86 116.44 250.22 117.84 250.22 117.84 249.8"/><polygon id="polygon2992" class="cls-3" points="117.84 249.8 116.92 249.8 116.88 249.86 116.44 249.86 116.44 250.22 117.84 250.22 117.84 249.8"/></g><g id="g3000"><polygon id="polygon3002" class="cls-4" points="116.24 249.8 115.05 249.8 114.99 249.86 114.99 250.22 116.3 250.22 116.3 249.86 116.24 249.8"/><polygon id="polygon3004" class="cls-3" points="116.24 249.8 115.05 249.8 114.99 249.86 114.99 250.22 116.3 250.22 116.3 249.86 116.24 249.8"/></g><g id="g3120"><path id="path3122" class="cls-2" d="M118.36,249.1H114.7a.13.13,0,0,0-.13.14h0a.13.13,0,0,0,.13.13h3.66a.13.13,0,0,0,.14-.13h0A.14.14,0,0,0,118.36,249.1Z"/><path id="path3124" class="cls-3" d="M118.36,249.1H114.7a.13.13,0,0,0-.13.14h0a.13.13,0,0,0,.13.13h3.66a.13.13,0,0,0,.14-.13h0A.14.14,0,0,0,118.36,249.1Z"/></g><g id="g3126"><path id="path3130" class="cls-3" d="M118.26,251.5l-.2.28h-.33v-.2H118l.15-.2Zm0,0-.17.24h-.25v-.06l.2,0,.16-.2.06.05Z"/></g><g id="g3150"><path id="path3152" class="cls-4" d="M118.25,251.6l-.25-.18a.12.12,0,0,1,0-.16h0a.1.1,0,0,1,.14,0l.25.18a.13.13,0,0,1,0,.16h0A.1.1,0,0,1,118.25,251.6Z"/><path id="path3154" class="cls-3" d="M118.25,251.6l-.25-.18a.12.12,0,0,1,0-.16h0a.1.1,0,0,1,.14,0l.25.18a.13.13,0,0,1,0,.16h0A.1.1,0,0,1,118.25,251.6Z"/></g><g id="g3180"><path id="path3182" class="cls-2" d="M114.86,252.69l-1.51-1.36a.14.14,0,0,0-.22,0h0a.21.21,0,0,0,0,.26l1.51,1.36a.14.14,0,0,0,.22,0h0a.2.2,0,0,0,0-.25Z"/><path id="path3184" class="cls-3" d="M114.86,252.69l-1.51-1.36a.14.14,0,0,0-.22,0h0a.21.21,0,0,0,0,.26l1.51,1.36a.14.14,0,0,0,.22,0h0a.2.2,0,0,0,0-.25Z"/></g></g><g id="g3612"><polygon id="polygon3614" class="cls-5" points="38.86 119.87 110.43 119.87 110.43 251.85 38.86 251.85 38.86 119.87"/><path id="path3616" d="M110.43,119.92H38.86v-.1h71.57l0,.05Zm0-.1h0v.05Zm-.05,132v-132h.09v132l0,.05-.05-.05Zm.09,0v.05h0Zm-71.61,0h71.57v.09H38.86l0-.05,0,0Zm0,.09h0v-.05Zm0-132v132h-.1v-132l0-.05,0,.05Zm-.1,0v-.05h0Z"/></g><g id="g3618"><polygon id="polygon3620" class="cls-6" points="38.86 132.13 110.43 132.13 110.43 119.87 38.86 119.87 38.86 132.13"/><polygon id="polygon3622" class="cls-3" points="38.86 132.13 110.43 132.13 110.43 119.87 38.86 119.87 38.86 132.13"/></g><g id="g3624"><polygon id="polygon3626" class="cls-6" points="52.44 251.85 74.87 251.85 74.87 128.55 52.44 128.55 52.44 251.85"/><polygon id="polygon3628" class="cls-3" points="52.44 251.85 74.87 251.85 74.87 128.55 52.44 128.55 52.44 251.85"/></g><g id="g3630"><polygon id="polygon3632" class="cls-6" points="97.89 251.85 110.44 251.85 110.44 128.55 97.89 128.55 97.89 251.85"/><path id="path3634" d="M110.44,251.9H97.89v-.09h12.55l0,.05,0,0Zm0,0v0h0Zm0-123.31V251.86h-.1V128.55l0,0,0,0Zm0,0h0v0Zm-12.55,0h12.55v.09H97.89l0,0,0,0Zm0,0v0h0Zm0,123.31V128.55h.09V251.86l0,0,0,0Zm0,0h0v0Z"/></g><g id="g3636"><polygon id="polygon3638" class="cls-7" points="143.1 256.85 121.36 256.85 112.07 230.17 143.1 245.36 143.1 256.85"/><polygon id="polygon3640" class="cls-8" points="143.1 248.93 116.77 243.67 112.07 230.17 143.1 245.36 143.1 248.93"/></g><polygon id="polygon3642" class="cls-9" points="6.89 256.85 28.64 256.85 37.93 230.17 6.89 245.36 6.89 256.85"/><polygon id="polygon3644" class="cls-8" points="6.89 248.93 33.23 243.67 37.93 230.17 6.89 245.36 6.89 248.93"/><g id="g3646"><polygon id="polygon3648" class="cls-5" points="39.1 23.98 110.19 23.98 110.19 119.87 39.1 119.87 39.1 23.98"/><path id="path3650" class="cls-10" d="M110.19,24H39.1v-.1h71.09l0,.05,0,.05Zm0-.1h0V24Zm0,95.94V24h.1v95.89l0,0,0,0Zm.1,0v0h0Zm-71.14-.05h71.09v.1H39.1l-.05,0,.05-.05Zm0,.1h-.05v0Zm0-95.94v95.89h-.1V24l.05-.05,0,.05Zm-.1,0v-.05h.05Z"/></g><g id="g3652"><polygon id="polygon3654" class="cls-5" points="38.45 -63.46 110.84 -63.46 110.84 23.98 38.45 23.98 38.45 -63.46"/><path id="path3656" class="cls-10" d="M110.84-63.41H38.45v-.1h72.39l0,0Zm0-.1h0v0Zm0,87.49V-63.46h.1V24l0,.05,0-.05Zm.1,0V24h0Zm-72.44-.05h72.39V24H38.45L38.4,24Zm0,.1H38.4V24Zm0-87.49V24h-.1V-63.46l.05,0,0,0Zm-.1,0v0h.05Z"/></g><rect id="rect3690" class="cls-11" x="52.34" y="-54.07" width="21.32" height="78.05"/><g id="g3692"><polygon id="polygon3694" class="cls-6" points="98.22 23.98 110.84 23.98 110.84 -47.09 98.22 -47.09 98.22 23.98"/><polygon id="polygon3696" class="cls-3" points="98.22 23.98 110.84 23.98 110.84 -47.09 98.22 -47.09 98.22 23.98"/></g><g id="g3706"><rect id="rect3708" class="cls-12" x="74.78" y="55.11" width="22.05" height="11.71"/><rect id="rect3710" class="cls-13" x="74.78" y="65.85" width="22.05" height="0.98"/><rect id="rect3712" class="cls-14" x="74.78" y="64.87" width="22.05" height="0.98"/><rect id="rect3714" class="cls-13" x="74.78" y="63.89" width="22.05" height="0.98"/><rect id="rect3716" class="cls-14" x="74.78" y="62.92" width="22.05" height="0.98"/><rect id="rect3718" class="cls-13" x="74.78" y="61.94" width="22.05" height="0.98"/><rect id="rect3720" class="cls-14" x="74.78" y="60.97" width="22.05" height="0.98"/><rect id="rect3722" class="cls-13" x="74.78" y="59.99" width="22.05" height="0.98"/><rect id="rect3724" class="cls-14" x="74.78" y="59.02" width="22.05" height="0.98"/><rect id="rect3726" class="cls-13" x="74.78" y="58.04" width="22.05" height="0.98"/><rect id="rect3728" class="cls-14" x="74.78" y="57.07" width="22.05" height="0.98"/><rect id="rect3730" class="cls-13" x="74.78" y="56.09" width="22.05" height="0.98"/><rect id="rect3732" class="cls-14" x="74.78" y="55.12" width="22.05" height="0.98"/><rect id="rect3734" class="cls-15" x="74.78" y="55.11" width="8.7" height="5.86"/><g id="g3736"><polygon id="polygon3738" class="cls-5" points="76.38 60.17 76.15 59.98 75.92 60.17 76.01 59.86 75.77 59.68 76.06 59.68 76.15 59.37 76.24 59.68 76.52 59.68 76.29 59.86 76.38 60.17"/><polygon id="polygon3740" class="cls-5" points="77.9 60.17 77.67 59.98 77.44 60.17 77.53 59.86 77.29 59.68 77.58 59.68 77.67 59.37 77.75 59.68 78.04 59.68 77.81 59.86 77.9 60.17"/><polygon id="polygon3742" class="cls-5" points="79.42 60.17 79.19 59.98 78.95 60.17 79.05 59.86 78.81 59.68 79.1 59.68 79.19 59.37 79.28 59.68 79.56 59.68 79.33 59.86 79.42 60.17"/><polygon id="polygon3744" class="cls-5" points="80.94 60.17 80.71 59.98 80.47 60.17 80.56 59.86 80.33 59.68 80.62 59.68 80.71 59.37 80.79 59.68 81.08 59.68 80.85 59.86 80.94 60.17"/><polygon id="polygon3746" class="cls-5" points="82.46 60.17 82.23 59.98 81.99 60.17 82.08 59.86 81.85 59.68 82.14 59.68 82.23 59.37 82.31 59.68 82.6 59.68 82.37 59.86 82.46 60.17"/></g><g id="g3748"><polygon id="polygon3750" class="cls-5" points="76.38 58.97 76.15 58.78 75.92 58.97 76.01 58.66 75.77 58.48 76.06 58.48 76.15 58.17 76.24 58.48 76.52 58.48 76.29 58.66 76.38 58.97"/><polygon id="polygon3752" class="cls-5" points="77.9 58.97 77.67 58.78 77.44 58.97 77.53 58.66 77.29 58.48 77.58 58.48 77.67 58.17 77.75 58.48 78.04 58.48 77.81 58.66 77.9 58.97"/><polygon id="polygon3754" class="cls-5" points="79.42 58.97 79.19 58.78 78.95 58.97 79.05 58.66 78.81 58.48 79.1 58.48 79.19 58.17 79.28 58.48 79.56 58.48 79.33 58.66 79.42 58.97"/><polygon id="polygon3756" class="cls-5" points="80.94 58.97 80.71 58.78 80.47 58.97 80.56 58.66 80.33 58.48 80.62 58.48 80.71 58.17 80.79 58.48 81.08 58.48 80.85 58.66 80.94 58.97"/><polygon id="polygon3758" class="cls-5" points="82.46 58.97 82.23 58.78 81.99 58.97 82.08 58.66 81.85 58.48 82.14 58.48 82.23 58.17 82.31 58.48 82.6 58.48 82.37 58.66 82.46 58.97"/></g><g id="g3760"><polygon id="polygon3762" class="cls-5" points="76.38 57.81 76.15 57.62 75.92 57.81 76.01 57.5 75.77 57.31 76.06 57.32 76.15 57.01 76.24 57.32 76.52 57.31 76.29 57.5 76.38 57.81"/><polygon id="polygon3764" class="cls-5" points="77.9 57.81 77.67 57.62 77.44 57.81 77.53 57.5 77.29 57.31 77.58 57.32 77.67 57.01 77.75 57.32 78.04 57.31 77.81 57.5 77.9 57.81"/><polygon id="polygon3766" class="cls-5" points="79.42 57.81 79.19 57.62 78.95 57.81 79.05 57.5 78.81 57.31 79.1 57.32 79.19 57.01 79.28 57.32 79.56 57.31 79.33 57.5 79.42 57.81"/><polygon id="polygon3768" class="cls-5" points="80.94 57.81 80.71 57.62 80.47 57.81 80.56 57.5 80.33 57.31 80.62 57.32 80.71 57.01 80.79 57.32 81.08 57.31 80.85 57.5 80.94 57.81"/><polygon id="polygon3770" class="cls-5" points="82.46 57.81 82.23 57.62 81.99 57.81 82.08 57.5 81.85 57.31 82.14 57.32 82.23 57.01 82.31 57.32 82.6 57.31 82.37 57.5 82.46 57.81"/></g><g id="g3772"><polygon id="polygon3774" class="cls-5" points="76.38 56.63 76.15 56.44 75.92 56.63 76.01 56.33 75.77 56.14 76.06 56.14 76.15 55.83 76.24 56.14 76.52 56.14 76.29 56.33 76.38 56.63"/><polygon id="polygon3776" class="cls-5" points="77.9 56.63 77.67 56.44 77.44 56.63 77.53 56.33 77.29 56.14 77.58 56.14 77.67 55.83 77.75 56.14 78.04 56.14 77.81 56.33 77.9 56.63"/><polygon id="polygon3778" class="cls-5" points="79.42 56.63 79.19 56.44 78.95 56.63 79.05 56.33 78.81 56.14 79.1 56.14 79.19 55.83 79.28 56.14 79.56 56.14 79.33 56.33 79.42 56.63"/><polygon id="polygon3780" class="cls-5" points="80.94 56.63 80.71 56.44 80.47 56.63 80.56 56.33 80.33 56.14 80.62 56.14 80.71 55.83 80.79 56.14 81.08 56.14 80.85 56.33 80.94 56.63"/><polygon id="polygon3782" class="cls-5" points="82.46 56.63 82.23 56.44 81.99 56.63 82.08 56.33 81.85 56.14 82.14 56.14 82.23 55.83 82.31 56.14 82.6 56.14 82.37 56.33 82.46 56.63"/></g><g id="g3784"><polygon id="polygon3786" class="cls-5" points="75.61 60.76 75.37 60.57 75.14 60.76 75.23 60.45 75 60.26 75.29 60.26 75.37 59.96 75.46 60.26 75.75 60.26 75.52 60.45 75.61 60.76"/><polygon id="polygon3788" class="cls-5" points="77.13 60.75 76.89 60.56 76.66 60.75 76.75 60.45 76.52 60.26 76.81 60.26 76.89 59.96 76.98 60.26 77.27 60.26 77.03 60.45 77.13 60.75"/><polygon id="polygon3790" class="cls-5" points="78.64 60.75 78.41 60.56 78.18 60.75 78.27 60.45 78.04 60.26 78.33 60.26 78.41 59.96 78.5 60.26 78.79 60.26 78.56 60.45 78.64 60.75"/><polygon id="polygon3792" class="cls-5" points="80.17 60.75 79.93 60.56 79.7 60.75 79.79 60.45 79.56 60.26 79.84 60.26 79.93 59.96 80.02 60.26 80.31 60.26 80.07 60.45 80.17 60.75"/><polygon id="polygon3794" class="cls-5" points="81.68 60.75 81.45 60.56 81.22 60.75 81.31 60.45 81.08 60.26 81.36 60.26 81.45 59.96 81.54 60.26 81.83 60.26 81.59 60.45 81.68 60.75"/><polygon id="polygon3796" class="cls-5" points="83.2 60.75 82.97 60.56 82.74 60.75 82.83 60.45 82.6 60.26 82.88 60.26 82.97 59.96 83.06 60.26 83.35 60.26 83.12 60.45 83.2 60.75"/></g><g id="g3798"><polygon id="polygon3800" class="cls-5" points="75.61 59.59 75.37 59.41 75.14 59.59 75.23 59.29 75 59.1 75.29 59.1 75.37 58.8 75.46 59.1 75.75 59.1 75.52 59.29 75.61 59.59"/><polygon id="polygon3802" class="cls-5" points="77.13 59.59 76.89 59.41 76.66 59.59 76.75 59.29 76.52 59.1 76.81 59.1 76.89 58.8 76.98 59.1 77.27 59.1 77.03 59.29 77.13 59.59"/><polygon id="polygon3804" class="cls-5" points="78.64 59.59 78.41 59.41 78.18 59.59 78.27 59.29 78.04 59.1 78.33 59.1 78.41 58.8 78.5 59.1 78.79 59.1 78.56 59.29 78.64 59.59"/><polygon id="polygon3806" class="cls-5" points="80.17 59.59 79.93 59.41 79.7 59.59 79.79 59.29 79.56 59.1 79.84 59.1 79.93 58.8 80.02 59.1 80.31 59.1 80.07 59.29 80.17 59.59"/><polygon id="polygon3808" class="cls-5" points="81.68 59.59 81.45 59.41 81.22 59.59 81.31 59.29 81.08 59.1 81.36 59.1 81.45 58.8 81.54 59.1 81.83 59.1 81.59 59.29 81.68 59.59"/><polygon id="polygon3810" class="cls-5" points="83.2 59.59 82.97 59.41 82.74 59.59 82.83 59.29 82.6 59.1 82.88 59.1 82.97 58.8 83.06 59.1 83.35 59.1 83.12 59.29 83.2 59.59"/></g><g id="g3812"><polygon id="polygon3814" class="cls-5" points="75.61 58.4 75.37 58.22 75.14 58.4 75.23 58.1 75 57.91 75.29 57.91 75.37 57.61 75.46 57.91 75.75 57.91 75.52 58.1 75.61 58.4"/><polygon id="polygon3816" class="cls-5" points="77.13 58.4 76.89 58.22 76.66 58.4 76.75 58.1 76.52 57.91 76.81 57.91 76.89 57.61 76.98 57.91 77.27 57.91 77.03 58.1 77.13 58.4"/><polygon id="polygon3818" class="cls-5" points="78.64 58.4 78.41 58.22 78.18 58.4 78.27 58.1 78.04 57.91 78.33 57.91 78.41 57.61 78.5 57.91 78.79 57.91 78.56 58.1 78.64 58.4"/><polygon id="polygon3820" class="cls-5" points="80.17 58.4 79.93 58.22 79.7 58.4 79.79 58.1 79.56 57.91 79.84 57.91 79.93 57.61 80.02 57.91 80.31 57.91 80.07 58.1 80.17 58.4"/><polygon id="polygon3822" class="cls-5" points="81.68 58.4 81.45 58.22 81.22 58.4 81.31 58.1 81.08 57.91 81.36 57.91 81.45 57.61 81.54 57.91 81.83 57.91 81.59 58.1 81.68 58.4"/><polygon id="polygon3824" class="cls-5" points="83.2 58.4 82.97 58.22 82.74 58.4 82.83 58.1 82.6 57.91 82.88 57.91 82.97 57.61 83.06 57.91 83.35 57.91 83.12 58.1 83.2 58.4"/></g><g id="g3826"><polygon id="polygon3828" class="cls-5" points="75.61 57.26 75.37 57.07 75.14 57.26 75.23 56.95 75 56.77 75.29 56.77 75.37 56.46 75.46 56.77 75.75 56.77 75.52 56.95 75.61 57.26"/><polygon id="polygon3830" class="cls-5" points="77.13 57.26 76.89 57.07 76.66 57.26 76.75 56.95 76.52 56.77 76.81 56.77 76.89 56.46 76.98 56.77 77.27 56.77 77.03 56.95 77.13 57.26"/><polygon id="polygon3832" class="cls-5" points="78.64 57.26 78.41 57.07 78.18 57.26 78.27 56.95 78.04 56.77 78.33 56.77 78.41 56.46 78.5 56.77 78.79 56.77 78.56 56.95 78.64 57.26"/><polygon id="polygon3834" class="cls-5" points="80.17 57.26 79.93 57.07 79.7 57.26 79.79 56.95 79.56 56.77 79.84 56.77 79.93 56.46 80.02 56.77 80.31 56.77 80.07 56.95 80.17 57.26"/><polygon id="polygon3836" class="cls-5" points="81.68 57.26 81.45 57.07 81.22 57.26 81.31 56.95 81.08 56.77 81.36 56.77 81.45 56.46 81.54 56.77 81.83 56.77 81.59 56.95 81.68 57.26"/><polygon id="polygon3838" class="cls-5" points="83.2 57.26 82.97 57.07 82.74 57.26 82.83 56.95 82.6 56.77 82.88 56.77 82.97 56.46 83.06 56.77 83.35 56.77 83.12 56.95 83.2 57.26"/></g><g id="g3840"><polygon id="polygon3842" class="cls-5" points="75.61 56.03 75.37 55.84 75.14 56.03 75.23 55.73 75 55.54 75.29 55.54 75.37 55.24 75.46 55.54 75.75 55.54 75.52 55.73 75.61 56.03"/><polygon id="polygon3844" class="cls-5" points="77.13 56.03 76.89 55.84 76.66 56.03 76.75 55.73 76.52 55.54 76.81 55.54 76.89 55.24 76.98 55.54 77.27 55.54 77.03 55.73 77.13 56.03"/><polygon id="polygon3846" class="cls-5" points="78.64 56.03 78.41 55.84 78.18 56.03 78.27 55.73 78.04 55.54 78.33 55.54 78.41 55.24 78.5 55.54 78.79 55.54 78.56 55.73 78.64 56.03"/><polygon id="polygon3848" class="cls-5" points="80.17 56.03 79.93 55.84 79.7 56.03 79.79 55.73 79.56 55.54 79.84 55.54 79.93 55.24 80.02 55.54 80.31 55.54 80.07 55.73 80.17 56.03"/><polygon id="polygon3850" class="cls-5" points="81.68 56.03 81.45 55.84 81.22 56.03 81.31 55.73 81.08 55.54 81.36 55.54 81.45 55.24 81.54 55.54 81.83 55.54 81.59 55.73 81.68 56.03"/><polygon id="polygon3852" class="cls-5" points="83.2 56.03 82.97 55.84 82.74 56.03 82.83 55.73 82.6 55.54 82.88 55.54 82.97 55.24 83.06 55.54 83.35 55.54 83.12 55.73 83.2 56.03"/></g></g><g id="g3854"><rect id="rect3856" class="cls-13" x="39.14" y="65.85" width="12.77" height="0.98"/><rect id="rect3858" class="cls-14" x="39.14" y="64.87" width="12.77" height="0.98"/><rect id="rect3860" class="cls-13" x="39.14" y="63.89" width="12.77" height="0.98"/><rect id="rect3862" class="cls-14" x="39.14" y="62.92" width="12.77" height="0.98"/><rect id="rect3864" class="cls-13" x="39.14" y="61.94" width="12.77" height="0.98"/><rect id="rect3866" class="cls-14" x="39.14" y="60.97" width="12.77" height="0.98"/><rect id="rect3868" class="cls-13" x="39.14" y="59.99" width="12.77" height="0.98"/><rect id="rect3870" class="cls-14" x="39.14" y="59.02" width="12.77" height="0.98"/><rect id="rect3872" class="cls-13" x="39.14" y="58.04" width="12.77" height="0.98"/><rect id="rect3874" class="cls-14" x="39.14" y="57.07" width="12.77" height="0.98"/><rect id="rect3876" class="cls-13" x="39.14" y="56.09" width="12.77" height="0.98"/><rect id="rect3878" class="cls-14" x="39.14" y="55.12" width="12.77" height="0.98"/><rect id="rect3880" class="cls-15" x="39.14" y="55.11" width="2.63" height="5.86"/><g id="g3882"><polygon id="polygon3884" class="cls-5" points="39.7 60.17 39.52 59.98 39.33 60.17 39.4 59.86 39.21 59.68 39.44 59.68 39.52 59.37 39.59 59.68 39.82 59.68 39.63 59.86 39.7 60.17"/><polygon id="polygon3886" class="cls-5" points="40.95 60.17 40.76 59.98 40.57 60.17 40.64 59.86 40.45 59.68 40.68 59.68 40.76 59.37 40.83 59.68 41.06 59.68 40.87 59.86 40.95 60.17"/><polygon id="polygon3888" class="cls-5" points="39.7 58.97 39.52 58.78 39.33 58.97 39.4 58.66 39.21 58.48 39.44 58.48 39.52 58.17 39.59 58.48 39.82 58.48 39.63 58.66 39.7 58.97"/><polygon id="polygon3890" class="cls-5" points="40.95 58.97 40.76 58.78 40.57 58.97 40.64 58.66 40.45 58.48 40.68 58.48 40.76 58.17 40.83 58.48 41.06 58.48 40.87 58.66 40.95 58.97"/><polygon id="polygon3892" class="cls-5" points="39.7 57.81 39.52 57.62 39.33 57.81 39.4 57.5 39.21 57.31 39.44 57.32 39.52 57.01 39.59 57.32 39.82 57.31 39.63 57.5 39.7 57.81"/><polygon id="polygon3894" class="cls-5" points="40.95 57.81 40.76 57.62 40.57 57.81 40.64 57.5 40.45 57.31 40.68 57.32 40.76 57.01 40.83 57.32 41.06 57.31 40.87 57.5 40.95 57.81"/><polygon id="polygon3896" class="cls-5" points="39.7 56.63 39.52 56.44 39.33 56.63 39.4 56.33 39.21 56.14 39.44 56.14 39.52 55.83 39.59 56.14 39.82 56.14 39.63 56.33 39.7 56.63"/><polygon id="polygon3898" class="cls-5" points="40.95 56.63 40.76 56.44 40.57 56.63 40.64 56.33 40.45 56.14 40.68 56.14 40.76 55.83 40.83 56.14 41.06 56.14 40.87 56.33 40.95 56.63"/><polygon id="polygon3900" class="cls-5" points="40.31 60.75 40.12 60.56 39.94 60.75 40.01 60.45 39.82 60.26 40.05 60.26 40.12 59.96 40.2 60.26 40.43 60.26 40.24 60.45 40.31 60.75"/><polygon id="polygon3902" class="cls-5" points="41.55 60.75 41.36 60.56 41.17 60.75 41.25 60.45 41.06 60.26 41.29 60.26 41.36 59.96 41.44 60.26 41.67 60.26 41.48 60.45 41.55 60.75"/><polygon id="polygon3904" class="cls-5" points="40.31 59.59 40.12 59.41 39.94 59.59 40.01 59.29 39.82 59.1 40.05 59.1 40.12 58.8 40.2 59.1 40.43 59.1 40.24 59.29 40.31 59.59"/><polygon id="polygon3906" class="cls-5" points="41.55 59.59 41.36 59.41 41.17 59.59 41.25 59.29 41.06 59.1 41.29 59.1 41.36 58.8 41.44 59.1 41.67 59.1 41.48 59.29 41.55 59.59"/><polygon id="polygon3908" class="cls-5" points="40.31 58.4 40.12 58.22 39.94 58.4 40.01 58.1 39.82 57.91 40.05 57.91 40.12 57.61 40.2 57.91 40.43 57.91 40.24 58.1 40.31 58.4"/><polygon id="polygon3910" class="cls-5" points="41.55 58.4 41.36 58.22 41.17 58.4 41.25 58.1 41.06 57.91 41.29 57.91 41.36 57.61 41.44 57.91 41.67 57.91 41.48 58.1 41.55 58.4"/><polygon id="polygon3912" class="cls-5" points="40.31 57.26 40.12 57.07 39.94 57.26 40.01 56.95 39.82 56.77 40.05 56.77 40.12 56.46 40.2 56.77 40.43 56.77 40.24 56.95 40.31 57.26"/><polygon id="polygon3914" class="cls-5" points="41.55 57.26 41.36 57.07 41.17 57.26 41.25 56.95 41.06 56.77 41.29 56.77 41.36 56.46 41.44 56.77 41.67 56.77 41.48 56.95 41.55 57.26"/><polygon id="polygon3916" class="cls-5" points="40.31 56.03 40.12 55.84 39.94 56.03 40.01 55.73 39.82 55.54 40.05 55.54 40.12 55.24 40.2 55.54 40.43 55.54 40.24 55.73 40.31 56.03"/><polygon id="polygon3918" class="cls-5" points="41.55 56.03 41.36 55.84 41.17 56.03 41.25 55.73 41.06 55.54 41.29 55.54 41.36 55.24 41.44 55.54 41.67 55.54 41.48 55.73 41.55 56.03"/></g></g><line id="line3920" class="cls-16" x1="39.1" y1="27.77" x2="110.19" y2="27.77"/><line id="line3922" class="cls-16" x1="39.1" y1="49.63" x2="110.19" y2="49.63"/><line id="line3924" class="cls-16" x1="39.1" y1="71.49" x2="110.19" y2="71.49"/><line id="line3926" class="cls-16" x1="39.1" y1="94.42" x2="110.19" y2="94.42"/><line id="line3928" class="cls-17" x1="39.1" y1="116.04" x2="110.19" y2="116.04"/><ellipse id="ellipse3930" class="cls-18" cx="53.92" cy="12.19" rx="1.24" ry="2.12"/><g id="g3932"><polygon id="polygon3934" class="cls-19" points="38.86 220.31 110.44 220.31 110.44 221.27 38.86 221.27 38.86 220.31"/></g><rect id="rect3936" class="cls-20" x="87.1" y="220.31" width="2.54" height="31.54"/><g id="g3938"><polygon id="polygon3940" class="cls-19" points="89.65 220.31 92.68 220.31 92.68 251.85 89.65 251.85 89.65 220.31"/></g><g id="g3942"><polygon id="polygon3944" class="cls-19" points="92.68 220.31 95.38 220.31 95.38 251.85 92.68 251.85 92.68 220.31"/></g><g id="g3946"><path id="path3948" class="cls-10" d="M100.39,220.36H98.12v-.09h2.27l0,0Zm0-.09h0v0Zm0,31.59V220.31h.1v31.55l0,0,0,0Zm.1,0v0h0Zm-2.32-.05h2.27v.09H98.12l-.05,0,.05-.05Zm0,.09h-.05v0Zm0-31.59v31.55h-.09V220.31l.05,0,0,0Zm-.09,0v0h.05Z"/></g><g id="g3950"><path id="path3952" class="cls-10" d="M110.44,220.36h-3.23v-.09h3.23l0,0,0,.05Zm0-.09h0v0Zm0,31.59V220.31h.1v31.55l0,0Zm.1,0v0h0Zm-3.28-.05h3.23v.09h-3.23l0-.05,0,0Zm0,.09h0v-.05Zm.05-31.59v31.54h-.09V220.31l0,0,.05,0Zm-.09,0v0h0Z"/></g><g id="g3954"><polygon id="polygon3956" class="cls-19" points="80.94 220.31 84.02 220.31 84.02 251.85 80.94 251.85 80.94 220.31"/></g><g id="g3958"><polygon id="polygon3960" class="cls-19" points="80.94 119.87 84.02 119.87 84.02 165.78 80.94 165.78 80.94 119.87"/></g><g id="g3962"><polygon id="polygon3964" class="cls-19" points="77.86 119.87 80.94 119.87 80.94 165.78 77.86 165.78 77.86 119.87"/></g><g id="g3966"><polygon id="polygon3968" class="cls-19" points="74.78 119.87 77.86 119.87 77.86 165.78 74.78 165.78 74.78 119.87"/></g><g id="g3970"><polygon id="polygon3972" class="cls-19" points="71.7 119.87 74.78 119.87 74.78 165.78 71.7 165.78 71.7 119.87"/></g><g id="g3974"><polygon id="polygon3976" class="cls-19" points="68.62 119.87 71.7 119.87 71.7 165.78 68.62 165.78 68.62 119.87"/></g><g id="g3978"><polygon id="polygon3980" class="cls-19" points="65.54 119.87 68.62 119.87 68.62 165.78 65.54 165.78 65.54 119.87"/></g><g id="g3982"><polygon id="polygon3984" class="cls-19" points="62.46 119.87 65.54 119.87 65.54 165.78 62.46 165.78 62.46 119.87"/></g><g id="g3986"><polygon id="polygon3988" class="cls-19" points="59.38 119.87 62.46 119.87 62.46 165.78 59.38 165.78 59.38 119.87"/></g><g id="g3990"><polygon id="polygon3992" class="cls-19" points="56.3 119.87 59.38 119.87 59.38 165.78 56.3 165.78 56.3 119.87"/></g><g id="g3994"><polygon id="polygon3996" class="cls-19" points="53.22 119.87 56.3 119.87 56.3 165.78 53.22 165.78 53.22 119.87"/></g><g id="g3998"><polygon id="polygon4000" class="cls-19" points="50.13 119.87 53.22 119.87 53.22 165.78 50.13 165.78 50.13 119.87"/></g><g id="g4002"><polygon id="polygon4004" class="cls-19" points="47.53 119.87 50.13 119.87 50.13 165.78 47.53 165.78 47.53 119.87"/></g><g id="g4006"><path id="path4008" class="cls-10" d="M47.53,119.92H45.4v-.1h2.13l0,.05Zm0-.1h0v.05Zm-.05,46V119.87h.1v45.91l0,.05-.05-.05Zm.1,0v.05h0Zm-2.18-.05h2.13v.1H45.4l0-.05Zm0,.1h0v-.05Zm0-46v45.91h-.09V119.87l0-.05,0,.05Zm-.09,0v-.05h0Z"/></g><g id="g4010"><path id="path4012" class="cls-10" d="M45.4,119.92H43.74v-.1H45.4l0,.05,0,0Zm0-.1h0v.05Zm0,46V119.87h.09v45.91l0,.05Zm.09,0v.05h0Zm-1.7-.05H45.4v.1H43.74l-.05-.05.05-.05Zm0,.1h-.05v-.05Zm0-46v45.91h-.1V119.87l.05-.05Zm-.1,0v-.05h.05Z"/></g><g id="g4014"><path id="path4016" class="cls-10" d="M43.74,119.92H42.56v-.09h1.18l0,0,0,0Zm0-.09h0v0Zm-.05,46V119.87h.1v45.91l0,.05-.05-.05Zm.1,0v.05h0Zm-1.23-.05h1.18v.1H42.56l-.05-.05.05-.05Zm0,.1h-.05v-.05Zm0-46v45.91h-.09V119.87l.05,0,0,0Zm-.09,0v0h.05Z"/></g><g id="g4018"><path id="path4020" class="cls-10" d="M80.94,220.36H78.78v-.09h2.16l0,0Zm0-.09h0v0Zm0,31.59V220.31H81v31.55l0,0,0,0Zm.09,0v0h0Zm-2.21-.05h2.16v.09H78.78l0,0,0-.05Zm0,.09h0v0Zm0-31.59v31.55h-.09V220.31l0,0,0,0Zm-.09,0v0h0Z"/></g><g id="g4022"><polygon id="polygon4024" class="cls-19" points="75.75 220.31 78.78 220.31 78.78 251.85 75.75 251.85 75.75 220.31"/></g><g id="g4026"><polygon id="polygon4028" class="cls-19" points="72.72 220.31 75.75 220.31 75.75 251.85 72.72 251.85 72.72 220.31"/></g><g id="g4030"><polygon id="polygon4032" class="cls-19" points="69.69 220.31 72.72 220.31 72.72 251.85 69.69 251.85 69.69 220.31"/></g><g id="g4034"><polygon id="polygon4036" class="cls-19" points="66.66 220.31 69.69 220.31 69.69 251.85 66.66 251.85 66.66 220.31"/></g><g id="g4038"><polygon id="polygon4040" class="cls-19" points="60.6 220.31 63.63 220.31 63.63 251.85 60.6 251.85 60.6 220.31"/></g><g id="g4042"><polygon id="polygon4044" class="cls-19" points="49.86 220.31 52.44 220.31 52.44 251.85 49.86 251.85 49.86 220.31"/></g><g id="g4046"><path id="path4048" class="cls-10" d="M47.28,220.36H45v-.09h2.26l0,0,0,.05Zm0-.09h0v0Zm-.05,31.59V220.31h.09v31.55l0,0-.05,0Zm.09,0v0h0Zm-2.3-.05h2.26v.09H45l-.05-.05.05,0Zm0,.09H45v-.05Zm0-31.59v31.54H45V220.31l.05,0,0,0Zm-.09,0v0H45Z"/></g><g id="g4050"><path id="path4052" class="cls-10" d="M45,220.36H43.29v-.09H45l0,0,0,.05Zm0-.09h0v0ZM45,251.86V220.31h.09v31.55l0,0-.05,0Zm.09,0v0h0Zm-1.77-.05H45v.09H43.29l0-.05,0,0Zm0,.09h0v-.05Zm0-31.59v31.54h-.09V220.31l0,0,0,0Zm-.09,0v0h0Z"/></g><g id="g4054"><path id="path4056" class="cls-10" d="M41.74,220.36h-1.4v-.09h1.4l0,0Zm0-.09h0v0Zm0,31.59V220.31h.09v31.55l0,0,0,0Zm.09,0v0h0Zm-1.45-.05h1.4v.09h-1.4l-.05,0,.05-.05Zm0,.09h-.05v0Zm0-31.59v31.55h-.09V220.31l.05,0,0,0Zm-.09,0v0h.05Z"/></g><g id="g4058"><path id="path4060" class="cls-10" d="M40.34,220.36H38.93v-.09h1.41l0,0Zm0-.09h0v0Zm-.05,31.59V220.31h.09v31.55l0,0-.05,0Zm.09,0v0h0Zm-1.45-.05h1.41v.09H38.93l0,0,0-.05Zm0,.09h0v0Zm0-31.59v31.55h-.1V220.31l0,0,0,0Zm-.1,0v0h0Z"/></g><line id="line4062" class="cls-16" x1="38.86" y1="217.23" x2="109.95" y2="217.23"/><line id="line4064" class="cls-16" x1="38.86" y1="192.96" x2="109.95" y2="192.96"/><line id="line4066" class="cls-16" x1="38.86" y1="167.62" x2="109.95" y2="167.62"/><path id="path4068" class="cls-8" d="M22.87,262.43H43.64l-3.5-43.1h-1C33.64,233,27.05,248,22.87,262.43Z"/><path id="path4070" class="cls-21" d="M126.68,262.43H105.9l3.51-43.1h1C115.91,233,122.5,248,126.68,262.43Z"/><g id="g4072"><polygon id="polygon4074" class="cls-10" points="42.14 243.96 29.13 243.96 29.13 243.86 42.14 243.86 42.14 243.96"/></g><g id="g4076"><polygon id="polygon4078" class="cls-10" points="30.96 243.92 26.18 262.44 26.09 262.42 30.86 243.9 30.96 243.92"/></g><g id="g4080"><polygon id="polygon4082" class="cls-10" points="33.12 243.92 30.3 262.44 30.21 262.43 33.02 243.9 33.12 243.92"/></g><g id="g4084"><polygon id="polygon4086" class="cls-10" points="35.73 243.91 33.97 262.44 33.87 262.43 35.64 243.91 35.73 243.91"/></g><g id="g4088"><polygon id="polygon4090" class="cls-10" points="37.63 243.91 36.78 262.44 36.68 262.43 37.53 243.91 37.63 243.91"/></g><g id="g4092"><polygon id="polygon4094" class="cls-10" points="40.24 243.91 40.96 262.43 40.87 262.44 40.15 243.91 40.24 243.91"/></g><g id="g4096"><path id="path4098" class="cls-10" d="M34.59,251.11h-.1v-.29l0,0,0-.05v0l0,0,0,0,0,0,0,0,0,0,0,0,0,0,0,0,0,0,0,0,0,0,0,0,0,0,0,0,0,0h0l-.05,0h-.29v-.09h.22l.05,0h0l.05,0,0,0,0,0,0,0,0,0,0,0,0,0,0,0,0,0,0,0,0,0,0,0,0,0,0,0,0,.05,0,0,0,.05,0,0,0,.05,0,0v.32Zm-1.08,1.06v-.09h.25l0,0h.05l0,0,0,0,0,0,0,0,0,0,0,0,0,0,0,0,0,0,0,0,0,0,0,0,0,0,0,0,0,0,0,0v-.05l0,0,0-.05v-.28h.1v.31l0,.05,0,.05,0,0,0,0,0,0,0,0,0,0,0,0,0,0,0,0,0,0,0,0,0,0,0,0,0,0,0,0,0,0,0,0,0,0h-.05l0,0h-.27Zm-1.08-1.06h.1v.29l0,0v.05l0,0,0,0,0,0,0,0,0,0,0,0,0,0,0,0,0,0,0,0,0,0,0,0,0,0,0,0,0,0,.05,0,0,0h0l0,0h.25v.09h-.32l0,0,0,0-.05,0,0,0,0,0,0,0,0,0,0,0,0,0,0,0,0,0,0,0,0,0,0,0,0-.05,0,0,0-.05,0,0,0,0,0,0v-.05l0,0v-.22Zm1.08-1.06v.09h-.25l0,0h0l0,0-.05,0,0,0,0,0,0,0,0,0,0,0,0,0,0,0,0,0,0,0,0,0,0,0,0,0,0,0,0,0,0,0v.05l0,0v.29h-.1v-.21l0-.05v-.06l0,0,0-.05,0,0,0-.05,0,0,0,0,0,0,0,0,0,0,0,0,0,0,0,0,0,0,0,0,0,0,0,0,0,0,.05,0,0,0,0,0h.32Z"/></g><g id="g4100"><path id="path4102" class="cls-10" d="M28.85,251.07h-.09v-.43l0,0v0l0-.05,0,0,0,0,0,0,0,0,0,0,0,0,0,0,0,0,0,0,0,0,0,0,0,0,0,0,0,0,0,0,0,0H28v-.1h.11l0,0h.05l.05,0,.05,0,.05,0,0,0,0,0,.05,0,0,0,0,0,0,0,0,0,0,0,0,0,0,.05,0,0,0,0,0,.05,0,0v.05l0,.05v.47h0Zm-1.26.91v-.1H28l.05,0,0,0,.05,0,0,0,0,0,0,0,0,0,0,0,0,0,0,0,0,0,0,0,0,0,0,0,0,0,0,0,0,0,0-.05,0,0,0-.05,0,0v-.09h.09v.11l0,0,0,.05,0,.05,0,0,0,0,0,.05,0,0,0,0,0,0,0,0,0,0,0,0,0,0,0,0,0,0-.05,0,0,0,0,0,0,0-.05,0-.05,0h-.48Zm-.86-1.2.09,0h0v.38l0,0v.08l0,.05,0,0,0,0,0,0,0,0,0,0,0,0,0,0,0,0,0,0,0,0,0,0,0,0,0,0,0,0,.05,0,0,0h.19v.1h-.11l-.05,0-.05,0-.05,0h0l0,0,0,0,0,0,0,0,0,0,0,0,0,0,0,0,0,0,0,0,0,0,0,0,0,0,0-.05,0,0,0,0,0-.05v-.47Zm1.26-.9V250h-.44l-.05,0h0l-.05,0,0,0,0,0,0,0,0,0,0,0,0,0,0,0,0,0,0,0,0,0,0,0,0,0,0,0,0,0,0,0,0,0,0,0,0,.05v.09h-.09v-.11l0-.05,0,0,0-.05,0-.05,0,0,0,0,0,0,0,0,0,0,0,0,0,0,0,0,0,0,0,0,.05,0,0,0,.05,0,0,0,.05,0,.05,0,.05,0H28Z"/></g><g id="g4104"><polygon id="polygon4106" class="cls-10" points="39.26 219.34 30.07 243.93 29.98 243.9 39.17 219.31 39.26 219.34"/></g><g id="g4108"><path id="path4110" class="cls-10" d="M39.43,219.34l-7.2,24.58-.09,0,7.2-24.59h0l.09,0Zm-8.56,24.55,8.47-24.58.08,0L31,243.92Z"/></g><g id="g4112"><path id="path4114" class="cls-10" d="M39.6,219.36,35,243.92l-.09,0,4.56-24.56h0l.09,0Zm-6,24.54,5.93-24.56.09,0-5.93,24.56Z"/></g><g id="g4116"><path id="path4118" class="cls-10" d="M39.77,219.33l-2.14,24.58h-.1l2.14-24.59h.1ZM36.39,243.9l3.28-24.58h.1l-3.29,24.58Z"/></g><g id="g4120"><path id="path4122" class="cls-10" d="M40,219.32l.7,24.59h-.1l-.7-24.58H40Zm-.1,0,.06-1.26,0,1.26Zm-1.13,24.59,1.13-24.59H40l-1.13,24.58Z"/></g><g id="g4124"><polygon id="polygon4126" class="cls-10" points="107.41 243.96 107.41 243.86 120.42 243.86 120.42 243.96 107.41 243.96"/></g><g id="g4128"><polygon id="polygon4130" class="cls-10" points="118.59 243.92 118.68 243.9 123.45 262.42 123.36 262.44 118.59 243.92"/></g><g id="g4132"><polygon id="polygon4134" class="cls-10" points="116.43 243.92 116.53 243.9 119.34 262.43 119.24 262.44 116.43 243.92"/></g><g id="g4136"><polygon id="polygon4138" class="cls-10" points="113.81 243.91 113.91 243.91 115.67 262.43 115.58 262.44 113.81 243.91"/></g><g id="g4140"><polygon id="polygon4142" class="cls-10" points="111.92 243.91 112.02 243.91 112.86 262.43 112.77 262.44 111.92 243.91"/></g><g id="g4144"><polygon id="polygon4146" class="cls-10" points="109.31 243.91 109.4 243.91 108.68 262.44 108.58 262.43 109.31 243.91"/></g><g id="g4148"><path id="path4150" class="cls-10" d="M115,251.11h0v-.27l0-.05v0l0,0,0,0,0-.05,0,0,0,0,0-.05,0,0,0,0,0,0,0,0,0,0,0,0,0,0,0,0,0,0,0,0,.05,0,0,0,0,0H116v.09h-.25l-.05,0h0l0,0,0,0,0,0,0,0,0,0,0,0,0,0,0,0,0,0,0,0,0,0,0,0,0,0,0,0,0,0,0,0,0,.05,0,0,0,0v.29H115Zm1.08,1.06h-.32l0,0,0,0-.05,0,0,0,0,0,0,0,0,0,0,0,0,0,0,0,0,0,0,0,0,0,0-.05,0,0,0,0,0-.05,0,0,0-.05v0l0-.05v-.27h.1v.24l0,.05,0,0v.05l0,0,0,0,0,0,0,0,0,0,0,0,0,0,0,0,0,0,0,0,0,0,0,0,0,0,0,0,0,0,0,0,0,0,0,0H116v.09Zm1.07-1.06h0v.31l0,.05,0,.05,0,0,0,.05,0,0,0,0,0,0,0,0,0,0,0,0,0,0,0,0,0,0,0,0,0,0,0,0,0,0,0,0,0,0,0,0H116v-.09h.24l0,0h0l0,0,0,0,.05,0,0,0,0,0,0,0,0,0,0,0,0,0,0,0,0,0,0,0,0,0,0,0,0,0,0,0,0-.05,0,0,0-.05v-.28h.09ZM116,250.05h.32l0,0,0,0,0,0,0,0,0,0,0,0,0,0,0,0,0,0,0,0,0,0,0,0,0,0,0,0,0,.05,0,0,0,.05,0,0,0,.05,0,0v.32H117v-.24l0-.05v0l0-.05,0,0,0,0,0,0,0,0,0,0,0,0,0,0,0,0,0,0,0,0,0,0,0,0,0,0,0,0-.05,0,0,0h0l0,0H116v-.09Z"/></g><g id="g4152"><path id="path4154" class="cls-10" d="M120.69,251.07h0v-.46l0-.05v-.05l0,0,0,0,0,0,0,0,0,0,0,0,0,0,0,0,0,0,0,0,0,0,.05,0,0,0,0,0,0,0,0,0,0,0,.05,0h.16V250h-.15l0,0,0,0,0,0,0,0,0,0,0,0,0,0,0,0,0,0,0,0,0,0,0,0,0,0,0,0,0,0,0,0,0,0,0,0,0,0v.47h0l-.1,0ZM122,252h-.48l0,0-.05,0,0,0,0,0,0,0,0,0,0,0,0,0,0,0,0,0,0,0,0,0,0,0,0,0,0,0,0-.05,0,0,0,0,0-.05,0-.05,0,0v-.11h.09v.09l0,0,0,.05,0,0,0,0,0,0,0,0,0,0,0,0,0,0,0,0,0,0,0,0,0,0,0,0,0,0,0,0,0,0,0,0,0,0,0,0,.05,0H122v.1Zm.86-1.2h0v.52l0,0,0,.05,0,0,0,.05,0,0,0,0,0,0,0,0,0,0,0,0,0,0,0,0,0,0,0,0,0,0,0,0,0,0,0,0,0,0H122v-.09h.14l0,0,0,0,0,0,0,0,0,0,0,0,0,0,0,0,0,0,0,0,0,0,0,0,0,0,0,0,0,0,0,0,0,0,0,0v-.51h0l.09,0Zm-1.26-.9H122l0,0,0,0,0,0,0,0,0,0,0,0,.05,0,0,0,0,0,0,0,0,0,0,0,0,0,0,0,0,0,0,0,0,0,0,.05,0,.05,0,0v.05l0,0v.06h-.09v-.05l0,0v-.05l0,0,0,0,0,0,0,0,0,0,0,0,0,0,0,0,0,0,0,0,0,0,0,0,0,0,0,0,0,0,0,0,0,0,0,0h0l0,0h-.43l0-.09Z"/></g><g id="g4156"><polygon id="polygon4158" class="cls-10" points="110.29 219.34 110.38 219.31 119.56 243.9 119.48 243.93 110.29 219.34"/></g><g id="g4160"><path id="path4162" class="cls-10" d="M110.12,219.34l.09,0h0l7.2,24.59-.09,0-7.2-24.58Zm8.56,24.55-.09,0-8.47-24.58.09,0Z"/></g><g id="g4164"><path id="path4166" class="cls-10" d="M110,219.36l.09,0h0l4.56,24.56-.1,0L110,219.36Zm6,24.54-.09,0L110,219.36l.09,0Z"/></g><g id="g4168"><path id="path4170" class="cls-10" d="M109.78,219.33h.09L112,243.9h-.09l-2.14-24.58Zm3.38,24.57h-.1l-3.28-24.58h.09Z"/></g><g id="g4172"><path id="path4174" class="cls-10" d="M109.58,219.32h.09l-.7,24.58h-.09l.7-24.59Zm0,0,0-1.26,0,1.26Zm1.22,24.59h-.09l-1.13-24.58h.09l1.13,24.59Z"/></g><g id="g4176"><polygon id="polygon4178" class="cls-19" points="57.57 220.31 60.6 220.31 60.6 251.85 57.57 251.85 57.57 220.31"/></g><g id="g4180"><polygon id="polygon4182" class="cls-19" points="54.54 220.31 57.57 220.31 57.57 251.85 54.54 251.85 54.54 220.31"/></g><g id="g4184"><path id="path4186" class="cls-10" d="M102.66,220.36h-2.27v-.09h2.27l0,0Zm0-.09h0v0Zm0,31.59V220.31h.09v31.55l0,0,0,0Zm.09,0v0h0Zm-2.32-.05h2.27v.09h-2.27l0,0,0-.05Zm0,.09h0v0Zm0-31.59v31.55h-.1V220.31l0,0,0,0Zm-.1,0v0h0Z"/></g><g id="g4188"><path id="path4190" class="cls-10" d="M104.94,220.36h-2.27v-.09h2.27l0,0Zm0-.09h0v0Zm0,31.59V220.31h.1v31.55l0,0,0,0Zm.1,0v0h0Zm-2.32-.05h2.27v.09h-2.27l0,0,0-.05Zm0,.09h0v0Zm0-31.59v31.55h-.09V220.31l0,0,0,0Zm-.09,0v0h0Z"/></g><ellipse id="ellipse4192" class="cls-22" cx="53.9" cy="232.57" rx="1.22" ry="3.86"/><path id="path4194" class="cls-20" d="M74.87,219.39c-.79,0-1.21,1.05-1.43,1.88a1.43,1.43,0,1,0,2.86,0C76,220.49,75.66,219.39,74.87,219.39Z"/><polygon id="polygon4196" class="cls-8" points="61.43 262.05 87.53 262.05 76.3 221.27 73.44 221.27 61.43 262.05"/><polygon id="polygon4198" class="cls-21" points="61.43 262.05 74.48 262.05 74.87 221.27 73.44 221.27 61.43 262.05"/><g id="g4200"><polygon id="polygon4202" class="cls-10" points="82.5 243.96 66.75 243.96 66.75 243.86 82.5 243.86 82.5 243.96"/></g><g id="g4204"><polygon id="polygon4206" class="cls-10" points="120.34 243.96 107.27 243.96 107.27 243.86 120.34 243.86 120.34 243.96"/></g><polyline id="polyline4208" class="cls-20" points="67.85 262.05 74.13 221.27 64.61 262.05"/><polyline id="polyline4210" class="cls-20" points="78.46 262.05 74.87 221.27 71.1 262.05"/><polyline id="polyline4212" class="cls-20" points="85.06 262.05 75.43 221.27 81.7 262.05"/><ellipse id="ellipse4214" class="cls-20" cx="78.99" cy="251.17" rx="0.8" ry="1.12"/><ellipse id="ellipse4216" class="cls-20" cx="70.58" cy="251.17" rx="0.8" ry="1.12"/><ellipse id="ellipse4218" class="cls-23" cx="83.46" cy="250.96" rx="0.8" ry="1.12" transform="translate(-19.97 7.55) rotate(-4.63)"/><ellipse id="ellipse4220" class="cls-23" cx="66.1" cy="250.96" rx="1.12" ry="0.8" transform="translate(-189.37 296.61) rotate(-85.37)"/><path id="path4222" class="cls-14" d="M83,180.58,84.35,182h4.17l1.38-1.38v-8.24H88.24v7.4l-.57.57H85.19l-.55-.56v-7.41H83v8.24Zm0,14.68,1.38,1.38h4.17l1.38-1.38v-2.88L88.52,191H85.19l-.55-.55v-1.22l.55-.56h2.5l.55.56V190H89.9v-1.6L88.52,187H84.35L83,188.4v2.88l1.38,1.38h3.34l.56.56v1.2l-.56.57h-2.5l-.56-.56v-.77H83v1.6Zm-.42,16.06,2.87-9.62h2.07l2.86,9.62H88.63L88,209.2H84.91l-.63,2.12Zm2.83-3.78h2.13L86.45,204l-1.07,3.57Z"/><path id="path4224" class="cls-14" d="M41.4,180.58l.93,1.38h2.82l.94-1.38v-8.24H45v7.4l-.38.57H42.9l-.38-.56v-7.41H41.4v8.24Zm0,14.68.93,1.38h2.82l.94-1.38v-2.88L45.15,191H42.9l-.38-.55v-1.22l.38-.56h1.69l.38.56V190h1.12v-1.6L45.15,187H42.33l-.93,1.38v2.88l.93,1.38H44.6l.37.56v1.2l-.38.57H42.9l-.38-.56v-.77H41.4v1.6Zm-.29,16.06,1.94-9.62h1.41l1.93,9.62H45.23l-.44-2.12H42.71l-.43,2.12ZM43,207.54h1.44L43.75,204Z"/><rect id="rect4226" class="cls-24" x="74.87" y="135.05" width="23.1" height="18.39"/><g id="g4228"><path id="path4230" class="cls-10" d="M42.56,119.92H41.37v-.09h1.19l0,0,0,0Zm0-.09h0v0Zm-.05,46V119.87h.09v45.91l0,.05-.05-.05Zm.09,0v.05h0Zm-1.23-.05h1.19v.1H41.37l0-.05,0-.05Zm0,.1h0v-.05Zm.05-46v45.91h-.09V119.87l0,0,.05,0Zm-.09,0v0h0Z"/></g><g id="g4232"><path id="path4234" class="cls-10" d="M41.39,119.92H40.2v-.09h1.19l0,0,0,0Zm0-.09h0v0Zm0,46V119.87h.09v45.91l0,.05,0-.05Zm.09,0v.05h0Zm-1.23-.05h1.19v.1H40.2l0-.05,0-.05Zm0,.1h0v-.05Zm0-46v45.91h-.09V119.87l0,0,0,0Zm-.09,0v0h0Z"/></g><g id="g4236"><path id="path4238" class="cls-10" d="M40.2,119.92h-.87v-.1h.87l0,.05,0,0Zm0-.1h0v.05Zm0,46V119.87h.09v45.91l0,.05,0-.05Zm.09,0v.05h0Zm-.92-.05h.87v.1h-.87l0-.05,0-.05Zm0,.1h0v-.05Zm.05-46v45.91h-.09V119.87l0-.05.05.05Zm-.09,0v-.05h0Z"/></g><g id="g4240"><polygon id="polygon4242" class="cls-19" points="96.55 119.87 93.47 119.87 93.47 165.78 96.55 165.78 96.55 119.87"/></g><g id="g4244"><polygon id="polygon4246" class="cls-19" points="99.63 119.87 96.55 119.87 96.55 165.78 99.63 165.78 99.63 119.87"/></g><g id="g4248"><polygon id="polygon4250" class="cls-19" points="102.24 119.87 99.63 119.87 99.63 165.78 102.24 165.78 102.24 119.87"/></g><g id="g4252"><path id="path4254" class="cls-10" d="M102.24,119.92l0,0,0-.05h2.13v.1Zm0,0v-.05h0Zm.1,45.91-.05.05,0-.05V119.87h.1v45.91Zm-.05.05h0v-.05Zm2.13-.1,0,.05,0,.05h-2.13v-.1Zm0,.05v.05h0Zm-.09-45.91,0-.05,0,.05v45.91h-.09V119.87Zm0-.05h0v.05Z"/></g><g id="g4256"><path id="path4258" class="cls-10" d="M104.37,119.92l0,0,0-.05H106v.1Zm0,0v-.05h0Zm.09,45.91,0,.05,0-.05V119.87h.09Zm0,.05h0v-.05Zm1.66-.1,0,.05,0,.05h-1.66v-.1Zm0,.05v.05h0Zm-.1-45.91,0-.05,0,.05v45.91H106Zm0-.05h0v.05Z"/></g><g id="g4260"><path id="path4262" class="cls-10" d="M106,119.92l0,0,0,0h1.18v.09Zm0,0v0h0Zm.1,45.91,0,.05,0-.05V119.87h.1v45.91Zm0,.05h0v-.05Zm1.18-.1.05.05-.05.05H106v-.1Zm.05.05v.05h-.05Zm-.09-45.91,0,0,.05,0v45.91h-.09V119.87Zm0,0h.05v0Z"/></g><g id="g4264"><path id="path4266" class="cls-10" d="M107.21,119.92l0,0,0,0h1.19v.09Zm0,0v0h0Zm.09,45.91-.05.05,0-.05V119.87h.09v45.91Zm-.05.05h0v-.05Zm1.19-.1,0,.05,0,.05h-1.19v-.1Zm0,.05v.05h0Zm-.09-45.91.05,0,0,0v45.91h-.09V119.87Zm.05,0h0v0Z"/></g><g id="g4268"><path id="path4270" class="cls-10" d="M108.38,119.92l0,0,0,0h1.18v.09Zm0,0v0h0Zm.1,45.91-.05.05,0-.05V119.87h.1v45.91Zm-.05.05h0v-.05Zm1.18-.1,0,.05,0,.05h-1.18v-.1Zm0,.05v.05h0Zm-.09-45.91,0,0,0,0v45.91h-.09V119.87Zm0,0h0v0Z"/></g><g id="g4272"><path id="path4274" class="cls-10" d="M109.57,119.92l0,0,0-.05h.87v.1Zm0,0v-.05h0Zm.09,45.91,0,.05,0-.05V119.87h.09v45.91Zm0,.05h0v-.05Zm.87-.1,0,.05,0,.05h-.87v-.1Zm0,.05v.05h0Zm-.1-45.91,0-.05,0,.05v45.91h-.1V119.87Zm0-.05h0v.05Z"/></g><g id="g4276"><polygon id="polygon4278" class="cls-19" points="93.47 119.87 90.39 119.87 90.39 165.78 93.47 165.78 93.47 119.87"/></g><g id="g4280"><polygon id="polygon4282" class="cls-19" points="90.39 119.87 87.31 119.87 87.31 165.78 90.39 165.78 90.39 119.87"/></g><g id="g4284"><polygon id="polygon4286" class="cls-19" points="84.02 119.87 87.31 119.87 87.31 165.78 84.02 165.78 84.02 119.87"/></g><rect id="rect4290" class="cls-20" x="38.45" y="22.83" width="71.3" height="1.15"/><rect id="rect4292" class="cls-25" x="52.68" y="12.19" width="2.48" height="220.38"/><rect id="rect4294" class="cls-20" x="79.72" y="-63.46" width="3.03" height="87.44"/><g id="g4296"><polygon id="polygon4298" class="cls-10" points="110.84 1.21 38.45 1.21 38.45 0.9 110.84 0.9 110.84 1.21"/></g><polyline id="rect4300" class="cls-20" points="79.72 1.06 79.72 23.98 76.69 23.98 76.69 -63.46 79.72 -63.46 79.72 1.06"/><polyline id="rect4302" class="cls-20" points="76.69 1.06 76.69 23.98 73.66 23.98 73.66 -63.46 76.69 -63.46 76.69 1.06"/><polyline id="rect4304" class="cls-20" points="73.66 1.06 73.66 23.98 70.63 23.98 70.63 -63.46 73.66 -63.46 73.66 1.06"/><polyline id="rect4306" class="cls-20" points="70.63 0.9 70.63 23.98 67.6 23.98 67.6 -63.46 70.63 -63.46 70.63 0.9"/><polyline id="rect4308" class="cls-20" points="67.6 1.06 67.6 23.98 64.57 23.98 64.57 -63.46 67.6 -63.46 67.6 1.06"/><polyline id="rect4310" class="cls-20" points="64.57 0.9 64.57 23.98 61.54 23.98 61.54 -63.46 64.57 -63.46 64.57 0.9"/><polyline id="rect4312" class="cls-20" points="61.54 1.06 61.54 23.98 58.51 23.98 58.51 -63.46 61.54 -63.46 61.54 1.06"/><polyline id="rect4314" class="cls-20" points="58.51 1.21 58.51 23.98 55.48 23.98 55.48 -63.46 58.51 -63.46 58.51 1.21"/><polyline id="rect4316" class="cls-20" points="85.78 1.06 85.78 23.98 82.75 23.98 82.75 1.06"/><polyline id="rect4316-2" data-name="rect4316" class="cls-20" points="82.75 1.06 82.75 -63.46 85.78 -63.46 85.78 1.06"/><rect id="rect4318" class="cls-20" x="85.78" y="-63.46" width="3.03" height="87.44"/><polyline id="rect4320" class="cls-20" points="55.48 0.9 55.48 23.98 52.45 23.98 52.45 -63.46 55.48 -63.46 55.48 0.9"/><polyline id="rect4322" class="cls-20" points="52.45 1.06 52.45 23.98 49.42 23.98 49.42 1.06"/><polyline id="rect4322-2" data-name="rect4322" class="cls-20" points="49.42 1.06 49.42 -63.46 52.45 -63.46 52.45 1.06"/><polyline id="rect4324" class="cls-20" points="91.84 1.06 91.84 23.98 88.81 23.98 88.81 1.06"/><polyline id="rect4324-2" data-name="rect4324" class="cls-20" points="88.81 1.06 88.81 -63.46 91.84 -63.46 91.84 1.06"/><rect id="rect4326" class="cls-20" x="91.83" y="-63.46" width="3.03" height="87.44"/><polyline id="rect4328" class="cls-20" points="97.89 0.92 97.89 23.98 94.86 23.98 94.86 1.06"/><polyline id="rect4328-2" data-name="rect4328" class="cls-20" points="94.86 1.06 94.86 -63.46 97.89 -63.46 97.89 0.92"/><rect id="rect4330" class="cls-20" x="97.9" y="-63.46" width="3.03" height="87.44"/><g id="g4332"><path id="path4334" class="cls-10" d="M103.33-63.41h-2.4v-.1h2.4l0,0Zm0-.1h0v0Zm0,87.49V-63.46h.1V24l0,.05,0-.05Zm.1,0V24h0Zm-2.45-.05h2.4V24h-2.4l-.05-.05Zm0,.1h-.05V24Zm0-23V24h-.09V-63.46l.05,0,0,0h0V1.06m-.09-64.52v0h.05Z"/></g><g id="g4336"><path id="path4338" class="cls-10" d="M105.33-63.41h-2v-.1h2l0,0,0,.05Zm0-.1h0v0Zm0,87.49V-63.46h.1V24l0,.05,0-.05Zm.1,0V24h0Zm-2,0h2V24h-2l0-.05,0,0Zm0,.09h0V24Zm0-23.13V24h-.1V-63.46l0,0,0,0h0V.9m-.1-64.36v0h0Z"/></g><g id="g4340"><path id="path4342" class="cls-10" d="M107.33-63.41h-2v-.1h2l0,0,0,.05Zm0-.1h0v0Zm0,87.49V-63.46h.09V24l0,.05,0-.05Zm.09,0V24h0Zm-2,0h2V24h-2l0-.05,0,0Zm0,.09h0V24Zm0-23.13V24h-.09V-63.46l0,0,0,0h0V.9m-.09-64.36v0h0Z"/></g><g id="g4344"><path class="cls-10" d="M109.29-63.41V1.49h.09V-63.46l0,.05Z"/><path class="cls-10" d="M109.29,1.49V23.94h0V24l0-.05V1.49Z"/><polygon class="cls-10" points="109.38 24.03 109.38 23.98 109.34 24.03 109.38 24.03"/><polygon class="cls-10" points="107.29 24.03 107.33 24.03 107.29 23.98 107.29 24.03"/><polygon class="cls-10" points="109.29 23.93 109.29 23.98 109.34 24.03 109.34 23.93 109.29 23.93"/><path class="cls-10" d="M107.33,23.94h0V1.48h-.09V24h0l0,0Z"/><polygon class="cls-10" points="109.29 23.93 107.38 23.93 107.38 23.98 107.29 23.98 107.29 23.98 107.33 24.03 109.34 24.03 109.34 24.03 109.29 23.98 109.29 23.93"/><polygon class="cls-10" points="107.38 23.93 107.33 23.93 107.33 23.93 107.29 23.98 107.38 23.98 107.38 23.93"/><path class="cls-10" d="M107.38.92V-63.41h0v-.1l0,0V1.48h.09Z"/></g><g id="g4348"><path id="path4350" class="cls-10" d="M44.46-63.41l-.05-.05.05,0h2.4v.1Zm-.05-.05v0h.05ZM44.5,24l0,.05,0-.05V-63.46h.09V24Zm0,.05h0V24Zm2.41-.1,0,.05,0,.05H44.45v-.1Zm0,.05V24h0Zm0-22.92V24h-.1V-63.46h0l0,0,0,0V1.06m0-64.57h0v0Z"/></g><g id="g4352"><path id="path4354" class="cls-10" d="M42.45-63.41l0-.05,0,0h2v.1Zm0-.05v0h0ZM42.5,24l0,.05,0-.05V-63.46h.09V24Zm0,.05h0V24Zm2-.09,0,0,0,.05h-2v-.09Zm0,0V24h0ZM44.41,1.06V-63.46h0l.05,0,0,0V24h-.09V1.06m.05-64.57h0v0Z"/></g><g id="g4356"><path id="path4358" class="cls-10" d="M40.45-63.41l-.05-.05.05,0h2v.1Zm-.05-.05v0h.05ZM40.5,24l0,.05L40.4,24V-63.46h.1V24Zm0,.05H40.4V24Zm2-.09,0,0,0,.05h-2v-.09Zm0,0V24h0Zm0-22.77V24h-.09V-63.46h0l0,0,0,0V1.21m0-64.72h0v0Z"/></g><g id="g4360"><path id="path4362" class="cls-10" d="M38.45-63.41l-.05-.05.05,0h2v.1Zm-.05-.05v0h.05Zm0,64.67V-63.46h.1V24h0l0,.05L38.4,24V1.21M38.45,24H38.4V24Zm2-.09,0,0,0,.05h-2v-.09Zm0,0V24h0Zm0-22.92V24h-.1V-63.46h0l.05,0,0,0V1.06m0-64.57h0v0Z"/></g><g id="g5084"><g id="g5086"><polygon id="polygon5088" class="cls-26" points="44.71 247.12 47.77 247.12 46.96 251.08 43.9 251.08 44.71 247.12"/><path id="path5090" d="M47.77,247.15H44.71v-.06h3.06l0,0,0,0Zm0-.06h0v0Zm-.84,4,.81-4h.06l-.81,4,0,0,0,0Zm.06,0v0h0Zm-3.09,0H47v.06H43.9l0,0,0,0Zm0,.06h0v0Zm.84-4-.81,4h-.06l.81-4,0,0,0,0Zm-.06,0v0h0Z"/></g><g id="g5092"><polygon id="polygon5094" class="cls-26" points="58.59 247.12 61.65 247.12 60.37 251.08 57.31 251.08 58.59 247.12"/><path id="path5096" d="M61.65,247.15H58.59v-.06h3.06l0,0,0,0Zm0-.06h0v0l0,0Zm-1.32,4,1.29-4,.06,0-1.29,4,0,0,0,0Zm.06,0v0h0Zm-3.09,0h3.06v.06H57.3l0,0,0,0Zm0,.06h0v0l0,0Zm1.32-4-1.29,4,0,0,1.28-4,0,0,0,0Zm-.06,0v0h0l0,0Z"/></g><g id="g5098"><polygon id="polygon5100" class="cls-5" points="43.9 251.08 47.77 251.08 47.77 252.82 43.9 252.82 43.9 251.08"/><path id="path5102" d="M47.77,251.11H43.9v-.06h3.87l0,0,0,0Zm0-.06h0v0Zm0,1.77v-1.74h.06v1.74l0,0,0,0Zm.06,0v0h0Zm-3.9,0h3.87v.06H43.9l0,0,0,0Zm0,.06h0v0Zm0-1.77v1.74h-.06v-1.74l0,0,0,0Zm-.06,0v0h0Z"/></g><g id="g5104"><polygon id="polygon5106" class="cls-5" points="57.31 251.08 61.17 251.08 61.17 252.82 57.31 252.82 57.31 251.08"/><path id="path5108" d="M61.17,251.11H57.31v-.06h3.86l0,0,0,0Zm0-.06h0v0Zm0,1.77v-1.74h.06v1.74l0,0,0,0Zm.06,0v0h0Zm-3.89,0h3.86v.06H57.31l0,0,0,0Zm0,.06h0v0Zm0-1.77v1.74h-.06v-1.74l0,0,0,0Zm-.06,0v0h0Z"/></g><polygon id="polygon5110" class="cls-27" points="47.77 251.08 46.96 251.08 47.77 247.12 47.77 251.08"/><polygon id="polygon5112" class="cls-27" points="61.15 251.08 60.34 251.08 61.65 247.12 61.15 251.08"/><g id="g5114"><polygon id="polygon5116" class="cls-26" points="104.55 247.12 101.5 247.12 103.03 251.08 106.09 251.08 104.55 247.12"/><path id="path5118" d="M101.5,247.15l0,0,0,0h3v.06Zm0,0,0,0h0l0,0Zm1.59,3.94,0,0,0,0-1.53-4,0,0,1.54,4Zm0,0h0v0Zm3.06-.06,0,0,0,0H103v-.06Zm0,0,0,0h0l0,0Zm-1.59-3.94,0,0,0,0,1.54,4-.06,0-1.53-4Zm0,0h0v0Z"/></g><g id="g5120"><polygon id="polygon5122" class="cls-26" points="91.72 247.12 88.67 247.12 89.73 251.08 92.79 251.08 91.72 247.12"/><path id="path5124" d="M88.67,247.15l0,0,0,0h3v.06Zm0,0v0h0l0,0Zm1.12,3.95,0,0,0,0-1.06-4h.06l1.06,4Zm0,0h0v0l0,0Zm3.06-.06,0,0,0,0H89.73v-.06Zm0,0v0h0l0,0Zm-1.12-3.95,0,0,0,0,1.07,4-.06,0-1.06-4Zm0,0h0v0l0,0Z"/></g><g id="g5126"><polygon id="polygon5128" class="cls-5" points="106.09 251.08 101.53 251.08 101.53 252.82 106.09 252.82 106.09 251.08"/><polygon id="polygon5130" class="cls-3" points="106.09 251.08 101.53 251.08 101.53 252.82 106.09 252.82 106.09 251.08"/></g><g id="g5132"><polygon id="polygon5134" class="cls-5" points="92.79 251.08 88.92 251.08 88.92 252.82 92.79 252.82 92.79 251.08"/><path id="path5136" d="M88.92,251.11l0,0,0,0h3.87v.06Zm0,0v0h0Zm.06,1.74,0,0,0,0v-1.74H89v1.74Zm0,0h0v0Zm3.87-.06,0,0,0,0H88.92v-.06Zm0,0v0h0Zm-.06-1.74,0,0,0,0v1.74h-.06v-1.74Zm0,0h0v0Z"/></g><polygon id="polygon5138" class="cls-27" points="101.53 251.08 103.03 251.08 101.5 247.12 101.53 251.08"/><polygon id="polygon5140" class="cls-27" points="88.92 251.08 89.75 251.08 88.67 247.12 88.92 251.08"/></g><line id="line5142" class="cls-28" x1="46.96" y1="251.08" x2="46.96" y2="252.82"/><line id="line5144" class="cls-28" x1="60.36" y1="251.03" x2="60.36" y2="252.82"/><line id="line5146" class="cls-28" x1="89.73" y1="251.08" x2="89.73" y2="252.82"/><line id="line5148" class="cls-28" x1="103.03" y1="251.08" x2="103.03" y2="252.82"/><rect id="rect5150" class="cls-29" x="46.96" y="251.08" width="0.81" height="1.74"/><rect id="rect5152" class="cls-29" x="60.36" y="251.08" width="0.81" height="1.74"/><rect id="rect5154" class="cls-29" x="88.92" y="251.08" width="0.81" height="1.74"/><rect id="rect5156" class="cls-29" x="101.53" y="251.08" width="1.5" height="1.74"/><path id="path5192" class="cls-30" d="M72.86,256.85H76.2c-.14-8-.11-20.1-1.67-24.7C72.86,237.21,73,249,72.86,256.85Z"/><path id="path5194" class="cls-8" d="M74.53,245.36c.69,2.16.85,8.47.92,11.49H73.61C73.56,254,73.73,247.59,74.53,245.36Z"/></svg>