<svg xmlns="http://www.w3.org/2000/svg" viewBox="0 0 3000 1200"><defs><style>.cls-1{fill:#178181;}.cls-2{fill:#2aa846;}.cls-3{fill:#414141;opacity:0.37;isolation:isolate;}.cls-4{fill:#e8e8e8;}.cls-5{fill:#cdcdcd;}</style></defs><g id="Layer_2" data-name="Layer 2"><g id="svg4770"><g id="layer1"><g id="g5318"><circle id="circle4657" class="cls-1" cx="605.14" cy="622.45" r="200"/><path id="path4659" class="cls-2" d="M805.14,622.45a198.63,198.63,0,0,0-32.2-108.8s-11.4,16.7-9.3,27.4,14.7,11.5,13.4,19.4-10.6-2.2-22,18.5-5.7,49.3,10.7,51.4,39.4-7.9,39.4-7.9Z"/><path id="path4661" class="cls-2" d="M657.64,429.45a198.77,198.77,0,0,1,64,30.4s-23.2-3.8-32,4-21.6,26.4-32,0S657.64,429.45,657.64,429.45Z"/><path id="path4663" class="cls-2" d="M454.74,490.65a199.41,199.41,0,0,1,150.4-68.1s-13.6,8.2,12.1,22.1,13.9,20.4,8.6,24.6-14.6-8.6-20.7-17.1-32.1-21.8-52.1-14.6-37.1,12.4-34.3,19.1,37.1-6.2,50-5.5,8.6,8.6-3.6,17.9-13.6,20.7-.7,27.9,28.6,7.9,32.1,3.6-6.4-32.1,17.9-20,44.3,19.3,24.3,37.1-42.9,37.9-43.6,49.3,7.1,20.7,2.9,21.4-8.2-4.6-11.1-8.6-16.1-5.4-22.5-2.9-18.6,12.1-11.8,21.4,16.1,5,25.4,9.3,17.9,20.6,16.2,24.3-9.7-1-16.2-13.6-18.6-4.3-27.2-6.4-15-3.6-23.5-18.6-26.3-19.2-33.6-27.9c-20.8-24.8-19.3-43.6-23.6-52.1S454.74,490.65,454.74,490.65Z"/><path id="path4665" class="cls-2" d="M624.44,625.35s21.4,2.1,32.1,11.4,12.1,12.9,28.6,16.4,23.6,12.9,12.9,30.7-30,46.4-39.3,55-20.7,15.7-25,30-5.7,22.9,3.6,28.6c0,0-5,12.1-16.4-3.6s-2.1-34.3,0-45,7.9-42.9,4.3-50.7-20-12.9-24.3-29.3S604,620.55,624.44,625.35Z"/><path id="path4667" class="cls-3" d="M463.64,481.05c78.1-78.1,204.7-78.1,282.8,0s78.1,204.7,0,282.8c0,0,90.7-120-37.7-248.5S463.64,481.05,463.64,481.05Z"/></g></g></g><g id="Layer_2-2" data-name="Layer 2"><path class="cls-4" d="M2513.3,628.4c0,57-46.1,103.2-102.9,103.2s-102.9-46.2-102.9-103.2,46.1-103.2,102.9-103.2C2467.2,525.4,2513.1,571.5,2513.3,628.4Z"/><path class="cls-5" d="M2320.1,613.3a1.27,1.27,0,0,1-.6-.1,3.18,3.18,0,0,1-2.5-3.7h0a96.15,96.15,0,0,1,17.1-38.3,3.14,3.14,0,1,1,5,3.8,89.19,89.19,0,0,0-16,35.8,3,3,0,0,1-3,2.5Z"/><path class="cls-5" d="M2350.1,561.7a3.12,3.12,0,0,1-3.1-3.1,3.19,3.19,0,0,1,1.1-2.4,90.84,90.84,0,0,1,10-7.6,3.09,3.09,0,0,1,4.3,1,3.19,3.19,0,0,1-.9,4.3,110.16,110.16,0,0,0-9.4,7.1A2.88,2.88,0,0,1,2350.1,561.7Z"/><ellipse class="cls-5" cx="2382.7" cy="602" rx="15.8" ry="15.9"/><path class="cls-5" d="M2511.3,648.6a103.72,103.72,0,0,1-10.4,29,15.89,15.89,0,0,1,3.3-31.6A14.28,14.28,0,0,1,2511.3,648.6Z"/><ellipse class="cls-5" cx="2390.8" cy="668.8" rx="15.8" ry="15.9"/><ellipse class="cls-5" cx="2441.2" cy="679.5" rx="10.7" ry="10.8"/><ellipse class="cls-5" cx="2453.7" cy="607.4" rx="10.7" ry="10.8"/><circle class="cls-5" cx="2444.8" cy="581.5" r="5.4"/></g></g></svg>