<svg id="svg2" xmlns="http://www.w3.org/2000/svg" xmlns:xlink="http://www.w3.org/1999/xlink" viewBox="0 0 150 43.11"><defs><style>.cls-1{fill:#999;}.cls-1,.cls-2,.cls-3,.cls-4{stroke:#000;}.cls-1,.cls-10,.cls-11,.cls-12,.cls-2,.cls-3,.cls-4,.cls-5,.cls-6,.cls-7,.cls-9{stroke-miterlimit:11.34;}.cls-1,.cls-11,.cls-12,.cls-2,.cls-3,.cls-4,.cls-5,.cls-6,.cls-7{stroke-width:0.09px;}.cls-2,.cls-8{fill:#630;}.cls-10,.cls-12,.cls-2,.cls-6,.cls-8{fill-rule:evenodd;}.cls-3,.cls-7,.cls-9{fill:none;}.cls-5,.cls-6{fill:#fff;}.cls-10,.cls-11,.cls-12,.cls-5,.cls-6,.cls-7,.cls-9{stroke:gray;}.cls-9{stroke-width:0.22px;}.cls-10{stroke-width:0.09px;fill:url(#linear-gradient);}.cls-11,.cls-12{fill:#ccf;}</style><linearGradient id="linear-gradient" x1="-125.58" y1="682.95" x2="-124.87" y2="682.95" gradientTransform="matrix(2.83, 0, 0, -2.83, 423.8, 1949.77)" gradientUnits="userSpaceOnUse"><stop offset="0" stop-color="#fff"/><stop offset="0.21" stop-color="#fff"/><stop offset="0.5" stop-color="#e6e6e6"/><stop offset="0.75" stop-color="#fff"/><stop offset="1" stop-color="#fff"/></linearGradient></defs><rect id="_143930840" data-name=" 143930840" class="cls-1" x="88.24" y="19.01" width="1.79" height="3.52"/><g id="g102"><polygon id="_143930672" data-name=" 143930672" class="cls-2" points="89.69 19.01 90.03 17.49 88.33 17.47 88.58 19.01 89.69 19.01"/><line id="_143930576" data-name=" 143930576" class="cls-3" x1="89.75" y1="18.76" x2="88.54" y2="18.76"/><line id="_143930480" data-name=" 143930480" class="cls-3" x1="88.49" y1="18.46" x2="89.82" y2="18.46"/><line id="_143930360" data-name=" 143930360" class="cls-3" x1="89.87" y1="18.18" x2="88.44" y2="18.18"/><line id="_143930216" data-name=" 143930216" class="cls-3" x1="88.39" y1="17.85" x2="89.95" y2="17.85"/></g><g id="g109"><polygon id="_143930072" data-name=" 143930072" class="cls-2" points="89.69 22.53 90.03 24.05 88.33 24.07 88.58 22.53 89.69 22.53"/><line id="_143929976" data-name=" 143929976" class="cls-3" x1="89.75" y1="22.77" x2="88.54" y2="22.77"/><line id="_143929880" data-name=" 143929880" class="cls-3" x1="88.49" y1="23.08" x2="89.82" y2="23.08"/><line id="_143929760" data-name=" 143929760" class="cls-3" x1="89.87" y1="23.35" x2="88.44" y2="23.35"/><line id="_143929688" data-name=" 143929688" class="cls-3" x1="88.39" y1="23.69" x2="89.95" y2="23.69"/></g><circle id="_143929544" data-name=" 143929544" class="cls-4" cx="89.18" cy="21.58" r="0.85"/><rect id="_143929424" data-name=" 143929424" class="cls-1" x="58.7" y="19.01" width="1.79" height="3.52"/><g id="g118"><polygon id="_143929256" data-name=" 143929256" class="cls-2" points="60.15 22.53 60.49 24.05 58.79 24.07 59.04 22.53 60.15 22.53"/><line id="_143929160" data-name=" 143929160" class="cls-3" x1="60.21" y1="22.77" x2="59" y2="22.77"/><line id="_143929064" data-name=" 143929064" class="cls-3" x1="58.95" y1="23.08" x2="60.28" y2="23.08"/><line id="_143928944" data-name=" 143928944" class="cls-3" x1="60.34" y1="23.35" x2="58.9" y2="23.35"/><line id="_143928800" data-name=" 143928800" class="cls-3" x1="58.85" y1="23.69" x2="60.41" y2="23.69"/></g><g id="g125"><polygon id="_143928656" data-name=" 143928656" class="cls-2" points="60.15 19.01 60.49 17.49 58.79 17.47 59.04 19.01 60.15 19.01"/><line id="_143928560" data-name=" 143928560" class="cls-3" x1="60.21" y1="18.76" x2="59" y2="18.76"/><line id="_143928464" data-name=" 143928464" class="cls-3" x1="58.95" y1="18.46" x2="60.28" y2="18.46"/><line id="_143928344" data-name=" 143928344" class="cls-3" x1="60.34" y1="18.18" x2="58.9" y2="18.18"/><line id="_143928272" data-name=" 143928272" class="cls-3" x1="58.85" y1="17.85" x2="60.41" y2="17.85"/></g><circle id="_143928128" data-name=" 143928128" class="cls-4" cx="59.64" cy="19.96" r="0.85"/><rect id="rect3678" class="cls-5" x="60.49" y="13.6" width="27.75" height="31.32"/><path id="path3680" class="cls-6" d="M60.49,13.6H88.24L74.86-6.33c-.3-.46-.67-.46-1,0L60.49,13.6Z"/><rect id="rect4642" class="cls-5" x="68.94" y="-4.04" width="10.55" height="5.46"/><path id="path4918" class="cls-7" d="M60.49,41H79.9a.62.62,0,0,0,.61-.61v0a.62.62,0,0,0-.61-.62H60.49Z"/><g id="g4920"><path id="path4922" class="cls-8" d="M60.49,43.44H80.71a.61.61,0,0,0,.61-.62h0a.61.61,0,0,0-.61-.62H60.49Z"/><path id="path4924" class="cls-9" d="M60.49,43.44H80.71a.61.61,0,0,0,.61-.62h0a.61.61,0,0,0-.61-.62H60.49Z"/></g><path id="path4926" class="cls-7" d="M60.49,38.27H79.9a.61.61,0,0,0,.61-.61v0A.61.61,0,0,0,79.9,37H60.49Z"/><g id="g4928"><path id="path4930" class="cls-9" d="M60.49,35.59H80.65a.61.61,0,0,0,.62-.61v0a.61.61,0,0,0-.62-.61H60.49Z"/></g><line id="line4932" class="cls-7" x1="81.65" y1="44.92" x2="81.65" y2="13.6"/><line id="line4934" class="cls-7" x1="71.58" y1="34.35" x2="71.58" y2="13.6"/><line id="line4936" class="cls-7" x1="60.49" y1="17.44" x2="88.24" y2="17.44"/><rect id="rect4938" class="cls-7" x="81.65" y="17.44" width="1.89" height="3.84"/><rect id="rect4940" class="cls-7" x="73.42" y="13.6" width="1.35" height="3.85"/><rect id="rect4942" class="cls-7" x="79.1" y="13.6" width="2.54" height="3.85"/><rect id="rect4944" class="cls-7" x="60.49" y="13.6" width="1.41" height="3.85"/><rect id="rect4946" class="cls-1" x="73.72" y="19.8" width="1.79" height="3.52"/><g id="g4948"><polygon id="polygon4950" class="cls-2" points="75.51 20.13 77.03 19.8 77.05 21.5 75.51 21.24 75.51 20.13"/><line id="line4952" class="cls-3" x1="75.75" y1="20.08" x2="75.75" y2="21.28"/><line id="line4954" class="cls-3" x1="76.06" y1="21.34" x2="76.06" y2="20.01"/><line id="line4956" class="cls-3" x1="76.34" y1="19.95" x2="76.34" y2="21.38"/><line id="line4958" class="cls-3" x1="76.67" y1="21.44" x2="76.67" y2="19.88"/></g><g id="g4960"><polygon id="polygon4962" class="cls-2" points="73.72 21.28 72.2 20.95 72.18 22.65 73.72 22.39 73.72 21.28"/><line id="line4964" class="cls-3" x1="73.47" y1="21.23" x2="73.47" y2="22.43"/><line id="line4966" class="cls-3" x1="73.17" y1="22.48" x2="73.17" y2="21.16"/><line id="line4968" class="cls-3" x1="72.9" y1="21.1" x2="72.9" y2="22.53"/><line id="line4970" class="cls-3" x1="72.56" y1="22.59" x2="72.56" y2="21.03"/></g><g id="g4972"><polygon id="polygon4974" class="cls-2" points="75.22 19.8 75.56 18.27 73.86 18.25 74.12 19.8 75.22 19.8"/><line id="line4976" class="cls-3" x1="75.28" y1="19.55" x2="74.08" y2="19.55"/><line id="line4978" class="cls-3" x1="74.02" y1="19.24" x2="75.35" y2="19.24"/><line id="line4980" class="cls-3" x1="75.41" y1="18.97" x2="73.98" y2="18.97"/><line id="line4982" class="cls-3" x1="73.92" y1="18.63" x2="75.48" y2="18.63"/></g><g id="g4984"><polygon id="polygon4986" class="cls-2" points="75.22 23.31 75.56 24.83 73.86 24.85 74.12 23.31 75.22 23.31"/><line id="line4988" class="cls-3" x1="75.28" y1="23.56" x2="74.08" y2="23.56"/><line id="line4990" class="cls-3" x1="74.02" y1="23.87" x2="75.35" y2="23.87"/><line id="line4992" class="cls-3" x1="75.41" y1="24.14" x2="73.98" y2="24.14"/><line id="line4994" class="cls-3" x1="73.92" y1="24.47" x2="75.48" y2="24.47"/></g><rect id="rect4996" class="cls-5" x="66.5" y="13.6" width="1.33" height="3.85"/><polygon id="polygon4998" class="cls-7" points="66.5 13.6 69.02 10.25 69.83 10.25 67.83 13.6 66.5 13.6"/><polygon id="polygon5000" class="cls-10" points="67.83 13.6 67.83 17.44 69.04 17.44 69.04 13.6 69.83 10.25 67.83 13.6"/><rect id="rect5002" class="cls-11" x="73.24" y="5.46" width="2.3" height="2.38" rx="0.61"/><polygon id="polygon5004" class="cls-12" points="70.69 7.08 68.69 7.08 70.13 2.75 70.69 2.75 70.69 7.08"/><polygon id="polygon5006" class="cls-12" points="63.87 8.57 66.18 8.57 69.48 2.48 68.01 2.48 63.87 8.57"/><line id="line5008" class="cls-7" x1="77.65" y1="1.42" x2="82.84" y2="13.82"/></svg>