<svg id="svg2" xmlns="http://www.w3.org/2000/svg" xmlns:xlink="http://www.w3.org/1999/xlink" viewBox="0 0 150 114.53"><defs><style>.cls-1,.cls-2,.cls-9{fill:#fff;}.cls-1,.cls-10,.cls-11,.cls-2,.cls-5,.cls-7,.cls-8{stroke:gray;}.cls-1,.cls-10,.cls-11,.cls-2,.cls-3,.cls-4,.cls-5,.cls-7,.cls-8{stroke-miterlimit:11.34;}.cls-1,.cls-2,.cls-3,.cls-4,.cls-5{stroke-width:0.09px;}.cls-1,.cls-10,.cls-11,.cls-3,.cls-7,.cls-9{fill-rule:evenodd;}.cls-3,.cls-4{stroke:#000;}.cls-5{fill:none;}.cls-6{fill:gray;}.cls-10,.cls-11,.cls-7,.cls-8{stroke-width:0.09px;}.cls-7{fill:url(#linear-gradient);}.cls-8{fill:url(#linear-gradient-2);}.cls-10{fill:url(#linear-gradient-3);}.cls-11{fill:url(#linear-gradient-4);}</style><linearGradient id="linear-gradient" x1="-129.75" y1="500.86" x2="-128.78" y2="500.86" gradientTransform="matrix(2.83, 0, 0, -2.83, 423.8, 1481.91)" gradientUnits="userSpaceOnUse"><stop offset="0" stop-color="#fff"/><stop offset="0.21" stop-color="#fff"/><stop offset="0.5" stop-color="#e6e6e6"/><stop offset="0.75" stop-color="#fff"/><stop offset="1" stop-color="#fff"/></linearGradient><linearGradient id="linear-gradient-2" x1="-129.75" y1="498.61" x2="-128.78" y2="498.61" xlink:href="#linear-gradient"/><linearGradient id="linear-gradient-3" x1="-124.91" y1="517.49" x2="-124.61" y2="517.49" xlink:href="#linear-gradient"/><linearGradient id="linear-gradient-4" x1="-119.5" y1="510.53" x2="-119.13" y2="510.53" xlink:href="#linear-gradient"/></defs><polygon id="_143927960" data-name=" 143927960" class="cls-1" points="104.92 98.7 103.51 98.93 101.73 96.94 101.39 94.84 102.44 91.65 103.04 91.5 105.4 94.21 105.74 96.3 104.92 98.7"/><polygon id="_143927792" data-name=" 143927792" class="cls-1" points="44.16 98.7 45.57 98.93 47.35 96.94 47.69 94.84 46.64 91.65 45.85 91.57 43.68 94.21 43.34 96.3 44.16 98.7"/><polygon id="polygon3672" class="cls-1" points="38.58 116.5 110.64 116.5 98.47 76.45 50.27 76.45 38.58 116.5"/><rect id="rect3674" class="cls-2" x="50.27" y="-17.2" width="48.2" height="93.65"/><polygon id="polygon3698" class="cls-3" points="94.91 99.37 98.37 116.5 55.2 116.5 61.69 76.45 98.51 76.45 105.48 99.37 94.91 99.37"/><rect id="rect3700" class="cls-4" x="50.27" y="-11.5" width="48.2" height="12.55"/><line id="line4560" class="cls-5" x1="39.8" y1="116.5" x2="51.93" y2="76.45"/><line id="line4562" class="cls-5" x1="40.85" y1="116.5" x2="53.01" y2="76.45"/><line id="line4564" class="cls-5" x1="42.44" y1="116.5" x2="54.2" y2="76.45"/><line id="line4566" class="cls-5" x1="43.71" y1="116.5" x2="55.17" y2="76.45"/><line id="line4568" class="cls-5" x1="45.06" y1="116.5" x2="56.47" y2="76.45"/><line id="line4570" class="cls-5" x1="47.49" y1="116.5" x2="57.56" y2="76.45"/><line id="line4572" class="cls-5" x1="49.12" y1="116.5" x2="58.75" y2="76.45"/><line id="line4574" class="cls-5" x1="50.47" y1="116.5" x2="59.83" y2="76.45"/><line id="line4576" class="cls-5" x1="52.58" y1="116.5" x2="60.91" y2="76.45"/><line id="line4578" class="cls-5" x1="55.16" y1="116.5" x2="61.65" y2="76.45"/><line id="line4580" class="cls-5" x1="57.23" y1="116.5" x2="62.43" y2="76.45"/><line id="line4582" class="cls-5" x1="58.58" y1="116.5" x2="63.62" y2="76.45"/><line id="line4584" class="cls-5" x1="60.8" y1="116.5" x2="65.02" y2="76.45"/><line id="line4586" class="cls-5" x1="62.64" y1="116.5" x2="66.54" y2="76.45"/><line id="line4588" class="cls-5" x1="65.78" y1="116.5" x2="67.73" y2="76.45"/><line id="line4590" class="cls-5" x1="68.05" y1="116.5" x2="69.78" y2="76.45"/><line id="line4592" class="cls-5" x1="70.76" y1="116.5" x2="71.95" y2="76.45"/><line id="line4594" class="cls-5" x1="73.89" y1="116.5" x2="73.89" y2="76.45"/><line id="line4596" class="cls-5" x1="76.75" y1="116.5" x2="75.84" y2="76.45"/><line id="line4598" class="cls-5" x1="79.2" y1="116.5" x2="78.12" y2="76.45"/><line id="line4600" class="cls-5" x1="81.58" y1="116.5" x2="79.74" y2="76.45"/><line id="line4602" class="cls-5" x1="84.28" y1="116.5" x2="81.36" y2="76.45"/><line id="line4604" class="cls-5" x1="86.99" y1="116.5" x2="83.63" y2="76.45"/><line id="line4606" class="cls-5" x1="89.69" y1="116.5" x2="85.58" y2="76.45"/><line id="line4608" class="cls-5" x1="92.72" y1="116.5" x2="87.64" y2="76.45"/><line id="line4610" class="cls-5" x1="95.1" y1="116.5" x2="89.8" y2="76.45"/><line id="line4612" class="cls-5" x1="98.33" y1="116.5" x2="91.53" y2="76.79"/><line id="line4614" class="cls-5" x1="100.51" y1="116.5" x2="93.05" y2="76.45"/><line id="line4616" class="cls-5" x1="103.22" y1="116.5" x2="94.34" y2="76.45"/><line id="line4618" class="cls-5" x1="105.73" y1="116.5" x2="95.97" y2="76.45"/><line id="line4620" class="cls-5" x1="107.37" y1="116.5" x2="97.27" y2="76.45"/><line id="line4622" class="cls-5" x1="108.95" y1="116.5" x2="98.02" y2="76.45"/><polygon id="polygon4624" class="cls-1" points="75.3 98.37 74.26 98.37 73.06 96.13 73.06 93.99 74.45 91.02 75.22 91.02 76.61 94.02 76.61 96.13 75.3 98.37"/><rect id="rect4644" class="cls-5" x="50.27" y="60.46" width="48.2" height="1.3"/><rect id="rect4648" class="cls-5" x="50.27" y="75.29" width="48.2" height="1.16"/><rect id="rect4650" class="cls-5" x="50.27" y="11.3" width="48.2" height="1.16"/><rect id="rect4652" class="cls-5" x="66.45" y="60.46" width="1.95" height="15.99"/><g id="g4654"><path id="path4656" class="cls-6" d="M68.4-11.45H66.46v-.09H68.4l0,0Zm0-.09h0v0Zm0,24v-24h.09v24l0,0Zm.09,0v0h0Zm-2-.05H68.4v.09H66.46l0,0Zm0,.09h0v0Zm0-24v24h-.09v-24l0,0Zm-.09,0v0h0Z"/></g><rect id="rect4658" class="cls-5" x="64.51" y="60.46" width="1.95" height="15.99"/><g id="g4660"><path id="path4662" class="cls-6" d="M66.46-11.45H64.51v-.09h1.95l0,0Zm0-.09h0v0Zm0,24v-24h.09v24l0,0Zm.09,0v0h0Zm-2-.05h1.95v.09H64.51l-.05,0Zm0,.09h-.05v0Zm0-24v24h-.1v-24l.05,0Zm-.1,0v0h.05Z"/></g><rect id="rect4664" class="cls-5" x="62.56" y="60.46" width="1.95" height="15.99"/><g id="g4666"><path id="path4668" class="cls-6" d="M64.51-11.45h-2v-.09h2l0,0Zm0-.09h0v0Zm-.05,24v-24h.09v24l0,0Zm.09,0v0h0Zm-2-.05h2v.09h-2l-.05,0Zm0,.09h-.05v0Zm0-24v24h-.1v-24l.05,0Zm-.1,0v0h.05Z"/></g><rect id="rect4670" class="cls-5" x="60.61" y="60.46" width="1.95" height="15.99"/><g id="g4672"><path id="path4674" class="cls-6" d="M62.56-11.45h-2v-.09h2l0,0Zm0-.09h0v0Zm-.05,24v-24h.1v24l0,0Zm.1,0v0h0Zm-2-.05h2v.09h-2l0,0Zm0,.09h0v0Zm0-24v24h-.1v-24l0,0Zm-.1,0v0h0Z"/></g><rect id="rect4676" class="cls-5" x="58.66" y="60.46" width="1.95" height="15.99"/><g id="g4678"><path id="path4680" class="cls-6" d="M60.61-11.45h-2v-.09h2l0,0Zm0-.09h0v0Zm0,24v-24h.1v24l0,0Zm.1,0v0h0Zm-2-.05h2v.09h-2l0,0Zm0,.09h0v0Zm.05-24v24h-.09v-24l0,0Zm-.09,0v0h0Z"/></g><rect id="rect4682" class="cls-5" x="56.72" y="60.46" width="1.95" height="15.99"/><g id="g4684"><path id="path4686" class="cls-6" d="M58.66-11.45H56.72v-.09h1.94l.05,0Zm0-.09h.05v0Zm0,24v-24h.09v24l-.05,0Zm.09,0v0h-.05Zm-2-.05h1.94v.09H56.72l0,0Zm0,.09h0v0Zm0-24v24h-.09v-24l0,0Zm-.09,0v0h0Z"/></g><rect id="rect4688" class="cls-5" x="54.77" y="60.46" width="1.95" height="15.99"/><g id="g4690"><path id="path4692" class="cls-6" d="M56.72-11.45H54.77v-.09h1.95l0,0Zm0-.09h0v0l0,0Zm0,24v-24h.09v24l0,0Zm.09,0v0h0Zm-2-.05h1.95v.09H54.77l-.05,0Zm0,.09h-.05v0Zm0-24v24h-.1v-24l.05,0Zm-.1,0v0h.05Z"/></g><g id="g4694"><path id="path4696" class="cls-6" d="M54.77,60.51H53.46v-.09h1.31l0,0,0,0Zm0-.09h0v0Zm-.05,16v-16h.1v16l0,0-.05,0Zm.1,0v0h0Zm-1.36,0h1.31v.09H53.46l-.05,0,.05,0Zm0,.09h-.05v0Zm0-16v16h-.09v-16l.05,0,0,0Zm-.09,0v0h.05Z"/></g><g id="g4698"><path id="path4700" class="cls-6" d="M54.77-11.45H53.46v-.09h1.31l0,0,0,.05Zm0-.09h0v0Zm-.05,24v-24h.1v24l0,0-.05,0Zm.1,0v0h0Zm-1.36-.05h1.31v.09H53.46l-.05,0,.05-.05Zm0,.09h-.05v0Zm0-24v24h-.09v-24l.05,0,0,0Zm-.09,0v0h.05Z"/></g><g id="g4702"><path id="path4704" class="cls-6" d="M53.46,60.51H51.9v-.09h1.56l0,0Zm0-.09h0v0Zm-.05,16v-16h.09v16l0,0Zm.09,0v0h0Zm-1.6,0h1.56v.09H51.9l0,0Zm0,.09h0v0Zm.05-16v16h-.09v-16l0,0Zm-.09,0v0h0Z"/></g><g id="g4706"><path id="path4708" class="cls-6" d="M53.46-11.45H51.9v-.09h1.56l0,0,0,.05Zm0-.09h0v0Zm-.05,24v-24h.09v24l0,0-.05,0Zm.09,0v0h0Zm-1.6-.05h1.56v.09H51.9l0,0,0-.05Zm0,.09h0v0Zm.05-24v24h-.09v-24l0,0,.05,0Zm-.09,0v0h0Z"/></g><g id="g4710"><path id="path4712" class="cls-6" d="M51.9,60.51h-1v-.09h1l.05,0-.05,0Zm0-.09H52v0Zm0,16v-16H52v16l-.05,0,0,0Zm.09,0v0H51.9Zm-1,0h1v.09h-1l-.05,0,.05,0Zm0,.09h-.05v0Zm0-16v16h-.09v-16l.05,0,0,0Zm-.09,0v0h.05Z"/></g><g id="g4714"><path id="path4716" class="cls-6" d="M51.9-11.45h-1v-.09h1l.05,0Zm0-.09H52v0Zm0,24v-24H52v24l-.05,0Zm.09,0v0H51.9Zm-1-.05h1v.09h-1l-.05,0Zm0,.09h-.05v0Zm0-24v24h-.09v-24l.05,0Zm-.09,0v0h.05Z"/></g><rect id="rect4718" class="cls-5" x="68.4" y="60.46" width="1.95" height="15.99"/><g id="g4720"><path id="path4722" class="cls-6" d="M70.35-11.45H68.4v-.09h1.95l.05,0Zm0-.09h.05v0Zm0,24v-24h.1v24l-.05,0Zm.1,0v0h-.05Zm-2-.05h1.95v.09H68.4l0,0Zm0,.09h0v0Zm0-24v24h-.09v-24l0,0Zm-.09,0v0h0Z"/></g><rect id="rect4724" class="cls-5" x="70.35" y="60.46" width="1.95" height="15.99"/><g id="g4726"><path id="path4728" class="cls-6" d="M72.3-11.45h-2v-.09h2l0,0Zm0-.09h0v0Zm0,24v-24h.1v24l0,0Zm.1,0v0h0Zm-2-.05h2v.09h-2l0,0Zm0,.09h0v0Zm.05-24v24h-.1v-24l0,0Zm-.1,0v0h0Z"/></g><rect id="rect4730" class="cls-5" x="72.3" y="60.46" width="1.95" height="15.99"/><g id="g4732"><path id="path4734" class="cls-6" d="M74.25-11.45h-2v-.09h2l0,0Zm0-.09h0v0Zm0,24v-24h.09v24l0,0Zm.09,0v0h0Zm-2-.05h2v.09h-2l0,0Zm0,.09h0v0Zm0-24v24h-.1v-24l0,0Zm-.1,0v0h0Z"/></g><rect id="rect4736" class="cls-5" x="74.25" y="60.46" width="1.95" height="15.99"/><g id="g4738"><path id="path4740" class="cls-6" d="M76.19-11.45H74.25v-.09h1.94l0,0Zm0-.09h0v0Zm0,24v-24h.09v24l0,0Zm.09,0v0h0Zm-2-.05h1.94v.09H74.25l0,0Zm0,.09h0v0Zm0-24v24H74.2v-24l0,0Zm-.09,0v0h0Z"/></g><rect id="rect4742" class="cls-5" x="76.19" y="60.46" width="1.95" height="15.99"/><g id="g4744"><path id="path4746" class="cls-6" d="M78.14-11.45h-2v-.09h2l0,0Zm0-.09h0v0Zm0,24v-24h.1v24l0,0Zm.1,0v0h0Zm-2-.05h2v.09h-2l0,0Zm0,.09h0v0Zm0-24v24h-.09v-24l0,0Zm-.09,0v0h0Z"/></g><rect id="rect4748" class="cls-5" x="78.14" y="60.46" width="1.95" height="15.99"/><g id="g4750"><path id="path4752" class="cls-6" d="M80.09-11.45h-2v-.09h2l0,0Zm0-.09h0v0Zm0,24v-24h.1v24l0,0Zm.1,0v0h0Zm-2-.05h2v.09h-2l0,0Zm0,.09h0v0Zm0-24v24h-.1v-24l0,0Zm-.1,0v0h0Z"/></g><rect id="rect4754" class="cls-5" x="80.09" y="60.46" width="1.95" height="15.99"/><g id="g4756"><path id="path4758" class="cls-6" d="M82-11.45h-2v-.09h2l0,0Zm0-.09h0v0Zm-.05,24v-24h.09v24l0,0Zm.09,0v0h0Zm-2-.05h2v.09h-2l0,0Zm0,.09h0v0Zm0-24v24H80v-24l0,0Zm-.1,0v0h0Z"/></g><rect id="rect4760" class="cls-5" x="82.04" y="60.46" width="1.95" height="15.99"/><g id="g4762"><path id="path4764" class="cls-6" d="M84-11.45H82v-.09H84l0,0Zm0-.09h0v0Zm0,24v-24H84v24l0,0Zm.09,0v0h0Zm-2-.05H84v.09H82l-.05,0Zm0,.09H82v0Zm0-24v24H82v-24l.05,0Zm-.09,0v0H82Z"/></g><rect id="rect4766" class="cls-5" x="83.98" y="60.46" width="1.95" height="15.99"/><g id="g4768"><path id="path4770" class="cls-6" d="M85.93-11.45H84v-.09h2l0,0Zm0-.09h0v0Zm-.05,24v-24H86v24l0,0Zm.1,0v0h0Zm-2-.05h2v.09H84l0,0Zm0,.09h0v0Zm0-24v24h-.09v-24l0,0Zm-.09,0v0h0Z"/></g><rect id="rect4772" class="cls-5" x="85.93" y="60.46" width="1.95" height="15.99"/><g id="g4774"><path id="path4776" class="cls-6" d="M87.88-11.45H85.93v-.09h1.95l0,0Zm0-.09h0v0Zm0,24v-24h.09v24l0,0Zm.09,0v0h0Zm-2-.05h1.95v.09H85.93l-.05,0Zm0,.09h-.05v0Zm0-24v24h-.1v-24l.05,0Zm-.1,0v0h.05Z"/></g><rect id="rect4778" class="cls-5" x="87.88" y="60.46" width="1.95" height="15.99"/><g id="g4780"><path id="path4782" class="cls-6" d="M89.83-11.45h-2v-.09h2l0,0Zm0-.09h0v0Zm0,24v-24h.1v24l0,0Zm.1,0v0h0Zm-2-.05h2v.09h-2l0,0Zm0,.09h0v0Zm.05-24v24h-.1v-24l0,0Zm-.1,0v0h0Z"/></g><rect id="rect4784" class="cls-5" x="89.83" y="60.46" width="1.95" height="15.99"/><g id="g4786"><path id="path4788" class="cls-6" d="M91.78-11.45h-2v-.09h2l0,0Zm0-.09h0v0Zm0,24v-24h.09v24l0,0Zm.09,0v0h0Zm-2-.05h2v.09h-2l0,0Zm0,.09h0v0Zm0-24v24h-.09v-24l0,0Zm-.09,0v0h0Z"/></g><rect id="rect4790" class="cls-5" x="91.78" y="60.46" width="1.95" height="15.99"/><g id="g4792"><path id="path4794" class="cls-6" d="M93.72-11.45H91.78v-.09h1.94l0,0Zm0-.09h0v0Zm0,24v-24h.09v24l0,0Zm.09,0v0h0Zm-2-.05h1.94v.09H91.78l0,0Zm0,.09h0v0Zm0-24v24h-.09v-24l0,0Zm-.09,0v0h0Z"/></g><g id="g4796"><path id="path4798" class="cls-6" d="M95.22,60.51h-1.5v-.09h1.5l0,0,0,0Zm0-.09h0v0Zm0,16v-16h.09v16l0,0,0,0Zm.09,0v0h0Zm-1.55,0h1.5v.09h-1.5l0,0,0,0Zm0,.09h0v0Zm0-16v16h-.1v-16l0,0,0,0Zm-.1,0v0h0Z"/></g><g id="g4800"><path id="path4802" class="cls-6" d="M95.22-11.45h-1.5v-.09h1.5l0,0,0,.05Zm0-.09h0v0Zm0,24v-24h.09v24l0,0,0,0Zm.09,0v0h0Zm-1.55-.05h1.5v.09h-1.5l0,0,0-.05Zm0,.09h0v0Zm0-24v24h-.1v-24l0,0,0,0Zm-.1,0v0h0Z"/></g><g id="g4804"><path id="path4806" class="cls-6" d="M96.28,60.51H95.22v-.09h1.06l0,0,0,0Zm0-.09h0v0Zm0,16v-16h.1v16l0,0,0,0Zm.1,0v0h0Zm-1.11,0h1.06v.09H95.22l0,0,0,0Zm0,.09h0v0Zm0-16v16h-.09v-16l0,0,0,0Zm-.09,0v0h0Z"/></g><g id="g4808"><path id="path4810" class="cls-6" d="M96.28-11.45H95.22v-.09h1.06l0,0,0,.05Zm0-.09h0v0Zm0,24v-24h.1v24l0,0,0,0Zm.1,0v0h0Zm-1.11-.05h1.06v.09H95.22l0,0,0-.05Zm0,.09h0v0Zm0-24v24h-.09v-24l0,0,0,0Zm-.09,0v0h0Z"/></g><g id="g4812"><path id="path4814" class="cls-6" d="M97.29,60.51h-1v-.09h1l0,0,0,0Zm0-.09h0v0Zm0,16v-16h.09v16l0,0,0,0Zm.09,0v0h0Zm-1.06,0h1v.09h-1l0,0,0,0Zm0,.09h0v0Zm0-16v16h-.09v-16l0,0,0,0Zm-.09,0v0h0Z"/></g><g id="g4816"><path id="path4818" class="cls-6" d="M97.29-11.45h-1v-.09h1l0,0Zm0-.09h0v0Zm0,24v-24h.09v24l0,0Zm.09,0v0h0Zm-1.06-.05h1v.09h-1l0,0Zm0,.09h0v0Zm0-24v24h-.1v-24l0,0Zm-.1,0v0h0Z"/></g><g id="g4820"><path id="path4822" class="cls-6" d="M97.9,60.51h-.61v-.09h.61l0,0,0,0Zm0-.09h0v0Zm0,16v-16H98v16l0,0,0,0Zm.09,0v0h0Zm-.66,0h.61v.09h-.61l0,0,0,0Zm0,.09h0v0Zm0-16v16h-.09v-16l0,0,0,0Zm-.09,0v0h0Z"/></g><g id="g4824"><path id="path4826" class="cls-6" d="M97.9-11.45h-.61v-.09h.61l0,0,0,.05Zm0-.09h0v0Zm0,24v-24H98v24l0,0,0,0Zm.09,0v0h0Zm-.66-.05h.61v.09h-.61l0,0,0-.05Zm0,.09h0v0Zm0-24v24h-.09v-24l0,0,0,0Zm-.09,0v0h0Z"/></g><polygon id="polygon4828" class="cls-1" points="74.46 72.03 73.61 72.89 73.61 74.85 76.31 74.85 76.31 72.89 75.45 72.03 74.46 72.03"/><polygon id="polygon4830" class="cls-1" points="74.46 66.49 73.61 65.63 73.61 63.68 76.31 63.68 76.31 65.63 75.45 66.49 74.46 66.49"/><path id="path4832" class="cls-1" d="M57.46,56.49a6.38,6.38,0,0,0-2.68,5.58c0,3.07,1.2,5.57,2.68,5.57s2.67-2.5,2.67-5.57A6.81,6.81,0,0,0,57.46,56.49Z"/><rect id="rect4834" class="cls-2" x="54.78" y="62.07" width="5.36" height="13.58"/><path id="path4836" class="cls-7" d="M57.37,58.75A4.23,4.23,0,0,0,56,62.16c0,1.88.62,3.41,1.38,3.41s1.38-1.53,1.38-3.41A4.23,4.23,0,0,0,57.37,58.75Z"/><g id="g4838"><rect id="rect4840" class="cls-8" x="56" y="62.16" width="2.76" height="12.71"/><path id="path4842" class="cls-5" d="M56,69.23a2.48,2.48,0,0,1,2.76,0"/></g><polygon id="polygon4844" class="cls-1" points="91.3 73.87 91.3 67.81 95.19 72.93 95.19 74.77 91.99 72.98 91.3 73.87"/><g id="g4846"><g id="g4848"><rect id="rect4850" class="cls-2" x="68.2" y="1.06" width="1.51" height="27.89"/><g id="g4852"><polygon id="polygon4854" class="cls-9" points="69.07 30.95 70.58 30.95 69.72 28.94 68.2 28.94 69.07 30.95"/><path id="path4856" class="cls-6" d="M70.58,31H69.07V30.9h1.51l0,0,0,.06Zm0-.06,0,.06h-.07Zm-.87-2,.87,2-.09,0-.86-2,0-.06Zm0,0h0v0l0,0Zm-1.52,0h1.52V29H68.2l0,0,0-.06Zm0,.06,0-.06h.07ZM69,31l-.87-2,.09,0,.86,2,0,.06Zm0,0h0v0l0,0Z"/></g><g id="g4858"><polygon id="polygon4860" class="cls-9" points="69.72 1.06 68.2 1.06 69.07 -0.94 70.58 -0.94 69.72 1.06"/><path id="path4862" class="cls-6" d="M68.2,1.1l0-.06,0,0h1.52V1.1Zm0,0h-.07l0-.06ZM69-1l0,0,0,.06-.86,2-.09,0Zm0,0v0h0l0,0Zm1.55,0,0,.06,0,0H69.07V-1Zm0,0h.07l0,.06Zm-.82,2.07,0,0,0-.06.87-2,.09,0Zm0,0v0h0l0,0Z"/></g><polygon id="polygon4864" class="cls-1" points="69.72 28.94 70.58 30.95 70.58 -0.94 69.72 1.06 69.72 28.94"/></g><g id="g4866"><polygon id="polygon4868" class="cls-9" points="69.07 30.95 70.58 30.95 69.72 28.94 68.2 28.94 69.07 30.95"/><path id="path4870" class="cls-6" d="M70.58,31H69.07V30.9h1.51l0,0,0,.06Zm0-.06,0,.06h-.07Zm-.87-2,.87,2-.09,0-.86-2,0-.06Zm0,0h0v0l0,0Zm-1.52,0h1.52V29H68.2l0,0,0-.06Zm0,.06,0-.06h.07ZM69,31l-.87-2,.09,0,.86,2,0,.06Zm0,0h0v0l0,0Z"/></g><g id="g4872"><polygon id="polygon4874" class="cls-9" points="69.72 1.06 68.2 1.06 69.07 -0.94 70.58 -0.94 69.72 1.06"/><path id="path4876" class="cls-6" d="M68.2,1.1l0-.06,0,0h1.52V1.1Zm0,0h-.07l0-.06ZM69-1l0,0,0,.06-.86,2-.09,0Zm0,0v0h0l0,0Zm1.55,0,0,.06,0,0H69.07V-1Zm0,0h.07l0,.06Zm-.82,2.07,0,0,0-.06.87-2,.09,0Zm0,0v0h0l0,0Z"/></g><polygon id="polygon4878" class="cls-10" points="69.72 28.94 70.58 30.95 70.58 -0.94 69.72 1.06 69.72 28.94"/><rect id="rect4880" class="cls-2" x="68.2" y="1.06" width="1.51" height="27.89"/></g><g id="g4882"><g id="g4884"><rect id="rect4886" class="cls-2" x="86.11" y="1.06" width="2.16" height="67.35"/><g id="g4888"><polygon id="polygon4890" class="cls-9" points="85.08 70.19 87.24 70.19 88.27 68.41 86.11 68.41 85.08 70.19"/><path id="path4892" class="cls-6" d="M87.24,70.24H85.08v-.09h2.16l0,.07Zm0,0v0h0l0,0Zm1-1.79-1,1.79-.08,0,1-1.78,0,0,0,.07Zm0-.07h.08l0,.07Zm-2.16,0h2.16v.1H86.11l0-.07Zm0,0v0h0l0,0Zm-1,1.78,1-1.78.08,0-1,1.79,0,0,0-.07Zm0,.07H85l0-.07Z"/></g><g id="g4894"><polygon id="polygon4896" class="cls-9" points="88.27 1.06 86.11 1.06 85.08 -0.73 87.24 -0.73 88.27 1.06"/><path id="path4898" class="cls-6" d="M86.11,1.1l0,0,0-.07h2.16V1.1Zm0,0h0l0,0,0,0ZM85-.71l0-.07,0,0,1,1.78-.08.05L85-.71Zm0,0,0-.07h.08Zm2.2-.07,0,0,0,.07H85.08v-.1Zm0,0h0l0,0-.05,0ZM88.31,1l0,.07,0,0-1-1.79.08,0,1,1.78Zm0,0,0,.07h-.08Z"/></g><polygon id="polygon4900" class="cls-1" points="85.08 -0.73 85.08 70.19 86.11 68.41 86.11 1.06 85.08 -0.73"/></g><rect id="rect4902" class="cls-2" x="86.11" y="1.06" width="2.16" height="67.35"/><g id="g4904"><polygon id="polygon4906" class="cls-9" points="85.08 70.19 87.24 70.19 88.27 68.41 86.11 68.41 85.08 70.19"/><path id="path4908" class="cls-6" d="M87.24,70.24H85.08v-.09h2.16l0,.07Zm0,0v0h0l0,0Zm1-1.79-1,1.79-.08,0,1-1.78,0,0,0,.07Zm0-.07h.08l0,.07Zm-2.16,0h2.16v.1H86.11l0-.07Zm0,0v0h0l0,0Zm-1,1.78,1-1.78.08,0-1,1.79,0,0,0-.07Zm0,.07H85l0-.07Z"/></g><g id="g4910"><polygon id="polygon4912" class="cls-9" points="88.27 1.06 86.11 1.06 85.08 -0.73 87.24 -0.73 88.27 1.06"/><path id="path4914" class="cls-6" d="M86.11,1.1l0,0,0-.07h2.16V1.1Zm0,0h0l0,0,0,0ZM85-.71l0-.07,0,0,1,1.78-.08.05L85-.71Zm0,0,0-.07h.08Zm2.2-.07,0,0,0,.07H85.08v-.1Zm0,0h0l0,0-.05,0ZM88.31,1l0,.07,0,0-1-1.79.08,0,1,1.78Zm0,0,0,.07h-.08Z"/></g><polygon id="polygon4916" class="cls-11" points="85.08 -0.73 85.08 70.19 86.11 68.41 86.11 1.06 85.08 -0.73"/></g></svg>