<svg id="svg2" xmlns="http://www.w3.org/2000/svg" xmlns:xlink="http://www.w3.org/1999/xlink" viewBox="0 0 150 78.9"><defs><style>.cls-1,.cls-10,.cls-2{fill:#fff;}.cls-1,.cls-11,.cls-12,.cls-14,.cls-2,.cls-8{stroke:gray;}.cls-1,.cls-11,.cls-12,.cls-14,.cls-2,.cls-3,.cls-4,.cls-6,.cls-7,.cls-8{stroke-miterlimit:11.34;}.cls-1,.cls-2,.cls-3,.cls-4,.cls-8{stroke-width:0.09px;}.cls-10,.cls-11,.cls-12,.cls-13,.cls-2,.cls-4{fill-rule:evenodd;}.cls-3,.cls-4,.cls-6{stroke:#000;}.cls-4,.cls-9{fill:gray;}.cls-13,.cls-5{fill:#630;}.cls-14,.cls-6,.cls-7,.cls-8{fill:none;}.cls-6,.cls-7{stroke-width:0.31px;}.cls-7{stroke:red;}.cls-11,.cls-12{stroke-width:0.09px;}.cls-11{fill:url(#linear-gradient);}.cls-12{fill:url(#linear-gradient-2);}.cls-14{stroke-width:0.22px;}</style><linearGradient id="linear-gradient" x1="-124.91" y1="596.39" x2="-124.61" y2="596.39" gradientTransform="matrix(2.83, 0, 0, -2.83, 423.8, 1784.46)" gradientUnits="userSpaceOnUse"><stop offset="0" stop-color="#fff"/><stop offset="0.21" stop-color="#fff"/><stop offset="0.5" stop-color="#e6e6e6"/><stop offset="0.75" stop-color="#fff"/><stop offset="1" stop-color="#fff"/></linearGradient><linearGradient id="linear-gradient-2" x1="-119.5" y1="589.43" x2="-119.13" y2="589.43" xlink:href="#linear-gradient"/></defs><rect id="rect3674" class="cls-1" x="50.27" y="61.7" width="48.2" height="93.65"/><polygon id="polygon3676" class="cls-2" points="50.27 61.7 98.47 61.7 88.24 1.81 60.49 1.81 50.27 61.7"/><rect id="rect3678" class="cls-1" x="60.49" y="-29.51" width="27.75" height="31.32"/><rect id="rect3700" class="cls-3" x="50.27" y="67.4" width="48.2" height="12.55"/><polygon id="polygon4460" class="cls-4" points="52.53 48.44 96.21 48.44 96.41 49.63 52.33 49.63 52.53 48.44"/><rect id="rect4462" class="cls-5" x="61.92" y="48.83" width="1.73" height="0.8"/><rect id="rect4464" class="cls-5" x="84.16" y="48.44" width="1.73" height="0.8"/><line id="line4466" class="cls-6" x1="74.8" y1="48.44" x2="74.8" y2="1.81"/><polyline id="polyline4468" class="cls-7" points="97.03 53.28 95.21 53.28 94.86 55.05 93.25 55.05 92.83 53.28 90.73 53.28 90.31 55.05 88.07 55.05 87.63 53.28 85.06 53.28 84.58 55.05 82.57 55.05 82.06 53.27 79.6 53.27 79.12 55.05 76.73 55.05 76.19 53.28 72.95 53.28 72.49 55.05 70.42 55.05 69.92 53.28 67.21 53.28 66.75 55.05 64.14 55.05 63.7 53.28 60.91 53.28 60.47 55.05 57.69 55.05 57.28 53.28 55.31 53.28 54.92 55.05 53.43 55.05 53.07 53.28 51.7 53.28"/><rect id="rect4646" class="cls-8" x="50.27" y="67.4" width="48.2" height="1.3"/><g id="g4654"><path id="path4656" class="cls-9" d="M68.4,67.45H66.46v-.09H68.4l0,0Zm0-.09h0v0Zm0,24v-24h.09v24l0,0Zm.09,0v0h0Zm-2-.05H68.4v.09H66.46l0,0Zm0,.09h0v0Zm0-24v24h-.09v-24l0,0Zm-.09,0v0h0Z"/></g><g id="g4660"><path id="path4662" class="cls-9" d="M66.46,67.45H64.51v-.09h1.95l0,0Zm0-.09h0v0Zm0,24v-24h.09v24l0,0Zm.09,0v0h0Zm-2-.05h1.95v.09H64.51l-.05,0Zm0,.09h-.05v0Zm0-24v24h-.1v-24l.05,0Zm-.1,0v0h.05Z"/></g><g id="g4666"><path id="path4668" class="cls-9" d="M64.51,67.45h-2v-.09h2l0,0Zm0-.09h0v0Zm-.05,24v-24h.09v24l0,0Zm.09,0v0h0Zm-2-.05h2v.09h-2l-.05,0Zm0,.09h-.05v0Zm0-24v24h-.1v-24l.05,0Zm-.1,0v0h.05Z"/></g><g id="g4672"><path id="path4674" class="cls-9" d="M62.56,67.45h-2v-.09h2l0,0Zm0-.09h0v0Zm-.05,24v-24h.1v24l0,0Zm.1,0v0h0Zm-2-.05h2v.09h-2l0,0Zm0,.09h0v0Zm0-24v24h-.1v-24l0,0Zm-.1,0v0h0Z"/></g><g id="g4678"><path id="path4680" class="cls-9" d="M60.61,67.45h-2v-.09h2l0,0Zm0-.09h0v0Zm0,24v-24h.1v24l0,0Zm.1,0v0h0Zm-2-.05h2v.09h-2l0,0Zm0,.09h0v0Zm.05-24v24h-.09v-24l0,0Zm-.09,0v0h0Z"/></g><g id="g4684"><path id="path4686" class="cls-9" d="M58.66,67.45H56.72v-.09h1.94l.05,0Zm0-.09h.05v0Zm0,24v-24h.09v24l-.05,0Zm.09,0v0h-.05Zm-2-.05h1.94v.09H56.72l0,0Zm0,.09h0v0Zm0-24v24h-.09v-24l0,0Zm-.09,0v0h0Z"/></g><g id="g4690"><path id="path4692" class="cls-9" d="M56.72,67.45H54.77v-.09h1.95l0,0Zm0-.09h0v0l0,0Zm0,24v-24h.09v24l0,0Zm.09,0v0h0Zm-2-.05h1.95v.09H54.77l-.05,0Zm0,.09h-.05v0Zm0-24v24h-.1v-24l.05,0Zm-.1,0v0h.05Z"/></g><g id="g4698"><path id="path4700" class="cls-9" d="M54.77,67.45H53.46v-.09h1.31l0,0,0,0Zm0-.09h0v0Zm-.05,24v-24h.1v24l0,0-.05,0Zm.1,0v0h0Zm-1.36-.05h1.31v.09H53.46l-.05,0,.05-.05Zm0,.09h-.05v0Zm0-24v24h-.09v-24l.05,0,0,0Zm-.09,0v0h.05Z"/></g><g id="g4706"><path id="path4708" class="cls-9" d="M53.46,67.45H51.9v-.09h1.56l0,0,0,0Zm0-.09h0v0Zm-.05,24v-24h.09v24l0,0-.05,0Zm.09,0v0h0Zm-1.6-.05h1.56v.09H51.9l0,0,0-.05Zm0,.09h0v0Zm.05-24v24h-.09v-24l0,0,.05,0Zm-.09,0v0h0Z"/></g><g id="g4714"><path id="path4716" class="cls-9" d="M51.9,67.45h-1v-.09h1l.05,0Zm0-.09H52v0Zm0,24v-24H52v24l-.05,0Zm.09,0v0H51.9Zm-1-.05h1v.09h-1l-.05,0Zm0,.09h-.05v0Zm0-24v24h-.09v-24l.05,0Zm-.09,0v0h.05Z"/></g><g id="g4720"><path id="path4722" class="cls-9" d="M70.35,67.45H68.4v-.09h1.95l.05,0Zm0-.09h.05v0Zm0,24v-24h.1v24l-.05,0Zm.1,0v0h-.05Zm-2-.05h1.95v.09H68.4l0,0Zm0,.09h0v0Zm0-24v24h-.09v-24l0,0Zm-.09,0v0h0Z"/></g><g id="g4726"><path id="path4728" class="cls-9" d="M72.3,67.45h-2v-.09h2l0,0Zm0-.09h0v0Zm0,24v-24h.1v24l0,0Zm.1,0v0h0Zm-2-.05h2v.09h-2l0,0Zm0,.09h0v0Zm.05-24v24h-.1v-24l0,0Zm-.1,0v0h0Z"/></g><g id="g4732"><path id="path4734" class="cls-9" d="M74.25,67.45h-2v-.09h2l0,0Zm0-.09h0v0Zm0,24v-24h.09v24l0,0Zm.09,0v0h0Zm-2-.05h2v.09h-2l0,0Zm0,.09h0v0Zm0-24v24h-.1v-24l0,0Zm-.1,0v0h0Z"/></g><g id="g4738"><path id="path4740" class="cls-9" d="M76.19,67.45H74.25v-.09h1.94l0,0Zm0-.09h0v0Zm0,24v-24h.09v24l0,0Zm.09,0v0h0Zm-2-.05h1.94v.09H74.25l0,0Zm0,.09h0v0Zm0-24v24H74.2v-24l0,0Zm-.09,0v0h0Z"/></g><g id="g4744"><path id="path4746" class="cls-9" d="M78.14,67.45h-2v-.09h2l0,0Zm0-.09h0v0Zm0,24v-24h.1v24l0,0Zm.1,0v0h0Zm-2-.05h2v.09h-2l0,0Zm0,.09h0v0Zm0-24v24h-.09v-24l0,0Zm-.09,0v0h0Z"/></g><g id="g4750"><path id="path4752" class="cls-9" d="M80.09,67.45h-2v-.09h2l0,0Zm0-.09h0v0Zm0,24v-24h.1v24l0,0Zm.1,0v0h0Zm-2-.05h2v.09h-2l0,0Zm0,.09h0v0Zm0-24v24h-.1v-24l0,0Zm-.1,0v0h0Z"/></g><g id="g4756"><path id="path4758" class="cls-9" d="M82,67.45h-2v-.09h2l0,0Zm0-.09h0v0Zm-.05,24v-24h.09v24l0,0Zm.09,0v0h0Zm-2-.05h2v.09h-2l0,0Zm0,.09h0v0Zm0-24v24H80v-24l0,0Zm-.1,0v0h0Z"/></g><g id="g4762"><path id="path4764" class="cls-9" d="M84,67.45H82v-.09H84l0,0Zm0-.09h0v0Zm0,24v-24H84v24l0,0Zm.09,0v0h0Zm-2-.05H84v.09H82l-.05,0Zm0,.09H82v0Zm0-24v24H82v-24l.05,0Zm-.09,0v0H82Z"/></g><g id="g4768"><path id="path4770" class="cls-9" d="M85.93,67.45H84v-.09h2l0,0Zm0-.09h0v0Zm-.05,24v-24H86v24l0,0Zm.1,0v0h0Zm-2-.05h2v.09H84l0,0Zm0,.09h0v0Zm0-24v24h-.09v-24l0,0Zm-.09,0v0h0Z"/></g><g id="g4774"><path id="path4776" class="cls-9" d="M87.88,67.45H85.93v-.09h1.95l0,0Zm0-.09h0v0Zm0,24v-24h.09v24l0,0Zm.09,0v0h0Zm-2-.05h1.95v.09H85.93l-.05,0Zm0,.09h-.05v0Zm0-24v24h-.1v-24l.05,0Zm-.1,0v0h.05Z"/></g><g id="g4780"><path id="path4782" class="cls-9" d="M89.83,67.45h-2v-.09h2l0,0Zm0-.09h0v0Zm0,24v-24h.1v24l0,0Zm.1,0v0h0Zm-2-.05h2v.09h-2l0,0Zm0,.09h0v0Zm.05-24v24h-.1v-24l0,0Zm-.1,0v0h0Z"/></g><g id="g4786"><path id="path4788" class="cls-9" d="M91.78,67.45h-2v-.09h2l0,0Zm0-.09h0v0Zm0,24v-24h.09v24l0,0Zm.09,0v0h0Zm-2-.05h2v.09h-2l0,0Zm0,.09h0v0Zm0-24v24h-.09v-24l0,0Zm-.09,0v0h0Z"/></g><g id="g4792"><path id="path4794" class="cls-9" d="M93.72,67.45H91.78v-.09h1.94l0,0Zm0-.09h0v0Zm0,24v-24h.09v24l0,0Zm.09,0v0h0Zm-2-.05h1.94v.09H91.78l0,0Zm0,.09h0v0Zm0-24v24h-.09v-24l0,0Zm-.09,0v0h0Z"/></g><g id="g4800"><path id="path4802" class="cls-9" d="M95.22,67.45h-1.5v-.09h1.5l0,0,0,0Zm0-.09h0v0Zm0,24v-24h.09v24l0,0,0,0Zm.09,0v0h0Zm-1.55-.05h1.5v.09h-1.5l0,0,0-.05Zm0,.09h0v0Zm0-24v24h-.1v-24l0,0,0,0Zm-.1,0v0h0Z"/></g><g id="g4808"><path id="path4810" class="cls-9" d="M96.28,67.45H95.22v-.09h1.06l0,0,0,0Zm0-.09h0v0Zm0,24v-24h.1v24l0,0,0,0Zm.1,0v0h0Zm-1.11-.05h1.06v.09H95.22l0,0,0-.05Zm0,.09h0v0Zm0-24v24h-.09v-24l0,0,0,0Zm-.09,0v0h0Z"/></g><g id="g4816"><path id="path4818" class="cls-9" d="M97.29,67.45h-1v-.09h1l0,0Zm0-.09h0v0Zm0,24v-24h.09v24l0,0Zm.09,0v0h0Zm-1.06-.05h1v.09h-1l0,0Zm0,.09h0v0Zm0-24v24h-.1v-24l0,0Zm-.1,0v0h0Z"/></g><g id="g4824"><path id="path4826" class="cls-9" d="M97.9,67.45h-.61v-.09h.61l0,0,0,0Zm0-.09h0v0Zm0,24v-24H98v24l0,0,0,0Zm.09,0v0h0Zm-.66-.05h.61v.09h-.61l0,0,0-.05Zm0,.09h0v0Zm0-24v24h-.09v-24l0,0,0,0Zm-.09,0v0h0Z"/></g><g id="g4846"><g id="g4848"><g id="g4858"><polygon id="polygon4860" class="cls-10" points="69.72 79.96 68.2 79.96 69.07 77.95 70.58 77.95 69.72 79.96"/><path id="path4862" class="cls-9" d="M68.2,80l0-.06,0,0h1.52V80Zm0,0h-.07l0-.06ZM69,77.93l0,0,0,.06-.86,2-.09,0Zm0,0v0h0l0,0Zm1.55,0,0,.06,0,0H69.07v-.09Zm0,0h.07l0,.06ZM69.76,80l0,0,0-.06.87-2,.09,0Zm0,0v0h0l0,0Z"/></g><polygon id="polygon4864" class="cls-2" points="69.72 107.84 70.58 109.84 70.58 77.95 69.72 79.96 69.72 107.84"/></g><g id="g4872"><polygon id="polygon4874" class="cls-10" points="69.72 79.96 68.2 79.96 69.07 77.95 70.58 77.95 69.72 79.96"/><path id="path4876" class="cls-9" d="M68.2,80l0-.06,0,0h1.52V80Zm0,0h-.07l0-.06ZM69,77.93l0,0,0,.06-.86,2-.09,0Zm0,0v0h0l0,0Zm1.55,0,0,.06,0,0H69.07v-.09Zm0,0h.07l0,.06ZM69.76,80l0,0,0-.06.87-2,.09,0Zm0,0v0h0l0,0Z"/></g><polygon id="polygon4878" class="cls-11" points="69.72 107.84 70.58 109.84 70.58 77.95 69.72 79.96 69.72 107.84"/></g><g id="g4882"><g id="g4884"><g id="g4894"><polygon id="polygon4896" class="cls-10" points="88.27 79.96 86.11 79.96 85.08 78.17 87.24 78.17 88.27 79.96"/><path id="path4898" class="cls-9" d="M86.11,80l0,0,0-.07h2.16V80Zm0,0h0l0,0,0,0ZM85,78.19l0-.07,0,0,1,1.78-.08,0-1-1.79Zm0,0,0-.07h.08Zm2.2-.07,0,0,0,.07H85.08v-.1Zm0,0h0l0,0-.05,0Zm1.07,1.81,0,.07,0,0-1-1.79.08,0,1,1.78Zm0,0,0,.07h-.08Z"/></g><polygon id="polygon4900" class="cls-2" points="85.08 78.17 85.08 149.09 86.11 147.31 86.11 79.96 85.08 78.17"/></g><g id="g4910"><polygon id="polygon4912" class="cls-10" points="88.27 79.96 86.11 79.96 85.08 78.17 87.24 78.17 88.27 79.96"/><path id="path4914" class="cls-9" d="M86.11,80l0,0,0-.07h2.16V80Zm0,0h0l0,0,0,0ZM85,78.19l0-.07,0,0,1,1.78-.08,0-1-1.79Zm0,0,0-.07h.08Zm2.2-.07,0,0,0,.07H85.08v-.1Zm0,0h0l0,0-.05,0Zm1.07,1.81,0,.07,0,0-1-1.79.08,0,1,1.78Zm0,0,0,.07h-.08Z"/></g><polygon id="polygon4916" class="cls-12" points="85.08 78.17 85.08 149.09 86.11 147.31 86.11 79.96 85.08 78.17"/></g><g id="g4920"><path id="path4922" class="cls-13" d="M60.49.33H80.71a.61.61,0,0,0,.61-.61v0a.61.61,0,0,0-.61-.61H60.49Z"/><path id="path4924" class="cls-14" d="M60.49.33H80.71a.61.61,0,0,0,.61-.61v0a.61.61,0,0,0-.61-.61H60.49Z"/></g><line id="line4932" class="cls-8" x1="81.65" y1="1.81" x2="81.65" y2="-29.51"/></svg>